SplineFontDB: 3.2
FontName: Samaano-Bold-Slanted
FullName: Samaano Bold Slanted
FamilyName: Samaano
Weight: Bold
Copyright: Copyright 2024 The Samaano Project Authors (https://github.com/mitradranirban/samaano-fonts)
UComments: "2024-8-27: Created with FontForge (http://fontforge.org)"
Version: 1.1
ItalicAngle: 0
UnderlinePosition: 0
UnderlineWidth: 102
Ascent: 1638
Descent: 410
InvalidEm: 0
UFOAscent: 1638
UFODescent: -410
LayerCount: 2
Layer: 0 0 "Back" 1
Layer: 1 0 "public.default" 0 "glyphs"
StyleMap: 0x0000
FSType: 0
OS2Version: 0
OS2_WeightWidthSlopeOnly: 0
OS2_UseTypoMetrics: 0
CreationTime: 1729151287
ModificationTime: 1729154064
PfmFamily: 16
TTFWeight: 700
TTFWidth: 5
LineGap: 0
VLineGap: 0
Panose: 2 7 8 9 2 2 5 2 4 4
OS2TypoAscent: 2457
OS2TypoAOffset: 0
OS2TypoDescent: -615
OS2TypoDOffset: 0
OS2TypoLinegap: 0
OS2WinAscent: 2476
OS2WinAOffset: 0
OS2WinDescent: 958
OS2WinDOffset: 0
HheadAscent: 2457
HheadAOffset: 0
HheadDescent: -615
HheadDOffset: 0
OS2CapHeight: 1548
OS2XHeight: 1023
OS2FamilyClass: 1031
OS2Vendor: 'anir'
MarkAttachClasses: 1
DEI: 91125
LangName: 1033 "Copyright 2024 The Samaano Project Authors (https://github.com/mitradranirban/samaano-fonts)" "" "" "" "" "Version 1.000" "" "" "Dr Anirban Mitra" "Dr Anirban Mitra" "A Monospace Variable Font Family in Latin and Devanagari created using mostly rectangular components" "https://fonts.atipra.in" "https://github.com/mitradranirban" "Copyright 2024 The Samaano Project Authors (https://github.com/mitradranirban/samaano-fonts)+AAoA +AAoA-This Font Software is licensed under the SIL Open Font License, Version 1.1.+AAoA-This license is available with a FAQ at: http://scripts.sil.org/OFL+AAoACgAA" "http://scripts.sil.org/OFL"
PickledDataWithLists: "(dp0
Vorg.unifiedfontobject.normalizer.modTimes
p1
Vversion: 0.6.1\\u000a1729145354.1 fontinfo.plist\\u000a1729145354.1 layercontents.plist\\u000a1729145354.1 metainfo.plist
p2
sVpublic.glyphOrder
p3
(lp4
V.notdef
p5
aVspace
p6
aVexclam
p7
aVquotedbl
p8

StartChar: .notdef
Encoding: 0 0 0
GlifName: _notdef
Width: 3374
VWidth: 0
Flags: HW
LayerCount: 2
Fore
SplineSet
889.544921875 -26 m 257
 1887.54492188 -26 l 257
 2484.45507812 1614 l 257
 1486.45507812 1614 l 257
 889.544921875 -26 l 257
992.662109375 54 m 257
 1532.4296875 1537 l 257
 1663.37109375 817 l 257
 992.662109375 54 l 257
1084.66210938 54 m 257
 1673.34570312 740 l 257
 1764.66210938 54 l 257
 1084.66210938 54 l 257
1656.43359375 1548 m 257
 2287.43359375 1548 l 257
 1733.21679688 899 l 257
 1656.43359375 1548 l 257
1743.19140625 822 m 257
 2383.43359375 1548 l 257
 1839.66210938 54 l 257
 1743.19140625 822 l 257
EndSplineSet
EndChar

StartChar: A
Encoding: 65 65 1
GlifName: A_
Width: 2894
VWidth: 0
Flags: HW
LayerCount: 2
Fore
SplineSet
766.787109375 0 m 257
 965.787109375 0 l 257
 1529.21289062 1548 l 257
 1330.21289062 1548 l 257
 766.787109375 0 l 257
1312.59570312 1332 m 257
 1973.59570312 1332 l 257
 2052.21289062 1548 l 257
 1391.21289062 1548 l 257
 1312.59570312 1332 l 257
1218.12890625 1023 m 257
 1154.79785156 849 l 257
 1785.79785156 849 l 257
 1849.12890625 1023 l 257
 1218.12890625 1023 l 257
1363.78710938 0 m 257
 1563.78710938 0 l 257
 2127.21289062 1548 l 257
 1927.21289062 1548 l 257
 1363.78710938 0 l 257
EndSplineSet
EndChar

StartChar: AE
Encoding: 198 198 2
GlifName: A_E_
Width: 2996
VWidth: 0
Flags: HW
LayerCount: 2
Fore
SplineSet
1380.12207031 185 m 257
 1312.78710938 0 l 257
 1662.78710938 0 l 257
 1730.12207031 185 l 257
 1380.12207031 185 l 257
791.787109375 0 m 257
 990.787109375 0 l 257
 1554.21289062 1548 l 257
 1355.21289062 1548 l 257
 791.787109375 0 l 257
1337.59570312 1332 m 257
 2125.59570312 1332 l 257
 2204.21289062 1548 l 257
 1416.21289062 1548 l 257
 1337.59570312 1332 l 257
1243.12890625 1023 m 257
 1179.79785156 849 l 257
 1897.79785156 849 l 257
 1961.12890625 1023 l 257
 1243.12890625 1023 l 257
1217.78710938 0 m 257
 1417.78710938 0 l 257
 1981.21289062 1548 l 257
 1781.21289062 1548 l 257
 1217.78710938 0 l 257
EndSplineSet
EndChar

StartChar: B
Encoding: 66 66 12
GlifName: B_
Width: 2732
VWidth: 0
Flags: HW
LayerCount: 2
Fore
SplineSet
725.888671875 0 m 257
 933.888671875 0 l 257
 1493.31054688 1537 l 257
 1285.31054688 1537 l 257
 725.888671875 0 l 257
1534.33203125 1331 m 257
 1922.85546875 989 l 257
 2005.11132812 1215 l 257
 1609.31054688 1537 l 257
 1534.33203125 1331 l 257
1347.34375 820 m 257
 1924.58203125 991 l 257
 2006.11132812 1215 l 257
 1421.23046875 1023 l 257
 1347.34375 820 l 257
1064.046875 201 m 257
 990.888671875 0 l 257
 1677.37304688 364 l 257
 1758.90234375 588 l 257
 1064.046875 201 l 257
1264.25976562 567 m 257
 1677.37304688 364 l 257
 1758.17382812 586 l 257
 1336.68945312 766 l 257
 1264.25976562 567 l 257
1259.23046875 1023 m 257
 1185.34375 820 l 257
 1347.34375 820 l 257
 1421.23046875 1023 l 257
 1259.23046875 1023 l 257
1164.68945312 766 m 257
 1092.25976562 567 l 257
 1264.25976562 567 l 257
 1336.68945312 766 l 257
 1164.68945312 766 l 257
896.681640625 200 m 257
 823.888671875 0 l 257
 990.888671875 0 l 257
 1063.68164062 200 l 257
 896.681640625 200 l 257
1445.31054688 1537 m 257
 1370.33203125 1331 l 257
 1533.33203125 1331 l 257
 1608.31054688 1537 l 257
 1445.31054688 1537 l 257
EndSplineSet
EndChar

StartChar: C
Encoding: 67 67 13
GlifName: C_
Width: 3054
VWidth: 0
Flags: HW
LayerCount: 2
Fore
SplineSet
1365.7109375 1537 m 257
 806.2890625 0 l 257
 1006.2890625 0 l 257
 1565.7109375 1537 l 257
 1365.7109375 1537 l 257
1464.7109375 1537 m 257
 1392.28125 1338 l 257
 2175.28125 1338 l 257
 2247.7109375 1537 l 257
 1464.7109375 1537 l 257
963.71875 199 m 257
 891.2890625 0 l 257
 1686.2890625 0 l 257
 1758.71875 199 l 257
 963.71875 199 l 257
EndSplineSet
EndChar

StartChar: D
Encoding: 68 68 19
GlifName: D_
Width: 2534
VWidth: 0
Flags: HW
LayerCount: 2
Fore
SplineSet
1239.75488281 1548 m 257
 676.329101562 0 l 257
 878.329101562 0 l 257
 1441.75488281 1548 l 257
 1239.75488281 1548 l 257
1565.75488281 1548 m 257
 1493.68847656 1350 l 257
 1764.49414062 767 l 257
 1857.67089844 1023 l 257
 1565.75488281 1548 l 257
1083.48730469 201 m 257
 1010.32910156 0 l 257
 1762.22265625 769 l 257
 1854.67089844 1023 l 257
 1083.48730469 201 l 257
1403.75488281 1548 m 257
 1331.32519531 1349 l 257
 1493.32519531 1349 l 257
 1565.75488281 1548 l 257
 1403.75488281 1548 l 257
921.123046875 200 m 257
 848.329101562 0 l 257
 1010.32910156 0 l 257
 1083.12304688 200 l 257
 921.123046875 200 l 257
EndSplineSet
EndChar

StartChar: Dcroat
Encoding: 272 272 21
GlifName: D_croat
Width: 2534
VWidth: 0
Flags: HW
LayerCount: 2
Fore
SplineSet
909.641601562 935 m 257
 835.02734375 730 l 257
 1311.02734375 730 l 257
 1385.64160156 935 l 257
 909.641601562 935 l 257
1239.75488281 1548 m 257
 676.329101562 0 l 257
 878.329101562 0 l 257
 1441.75488281 1548 l 257
 1239.75488281 1548 l 257
1565.75488281 1548 m 257
 1493.68847656 1350 l 257
 1764.49414062 767 l 257
 1857.67089844 1023 l 257
 1565.75488281 1548 l 257
1083.48730469 201 m 257
 1010.32910156 0 l 257
 1762.22265625 769 l 257
 1854.67089844 1023 l 257
 1083.48730469 201 l 257
1403.75488281 1548 m 257
 1331.32519531 1349 l 257
 1493.32519531 1349 l 257
 1565.75488281 1548 l 257
 1403.75488281 1548 l 257
921.123046875 200 m 257
 848.329101562 0 l 257
 1010.32910156 0 l 257
 1083.12304688 200 l 257
 921.123046875 200 l 257
EndSplineSet
EndChar

StartChar: E
Encoding: 69 69 22
GlifName: E_
Width: 2884
VWidth: 0
Flags: HW
LayerCount: 2
Fore
SplineSet
1323.2109375 1537 m 257
 763.7890625 0 l 257
 963.7890625 0 l 257
 1523.2109375 1537 l 257
 1323.2109375 1537 l 257
1401.2109375 1537 m 257
 1326.9609375 1333 l 257
 2045.9609375 1333 l 257
 2120.2109375 1537 l 257
 1401.2109375 1537 l 257
904.674804688 203 m 257
 830.7890625 0 l 257
 1576.7890625 0 l 257
 1650.67480469 203 l 257
 904.674804688 203 l 257
1153.99511719 888 m 257
 1081.20019531 688 l 257
 1580.20019531 688 l 257
 1652.99511719 888 l 257
 1153.99511719 888 l 257
EndSplineSet
EndChar

StartChar: Eng
Encoding: 330 330 31
GlifName: E_ng
Width: 2900
VWidth: 0
Flags: HW
LayerCount: 2
Fore
SplineSet
1103.625 -211 m 257
 1031.92285156 -408 l 257
 1418.92285156 -408 l 257
 1490.625 -211 l 257
 1103.625 -211 l 257
1310.73828125 1490 m 257
 768.422851562 0 l 257
 969.422851562 0 l 257
 1511.73828125 1490 l 257
 1310.73828125 1490 l 257
1904.64257812 1476 m 257
 1218.92285156 -408 l 257
 1419.92285156 -408 l 257
 2105.64257812 1476 l 257
 1904.64257812 1476 l 257
1332.57714844 1550 m 257
 1260.875 1353 l 257
 2059.875 1353 l 257
 2131.57714844 1550 l 257
 1332.57714844 1550 l 257
EndSplineSet
EndChar

StartChar: Eth
Encoding: 208 208 33
GlifName: E_th
Width: 2534
VWidth: 0
Flags: HW
LayerCount: 2
Fore
SplineSet
909.641601562 935 m 257
 835.02734375 730 l 257
 1311.02734375 730 l 257
 1385.64160156 935 l 257
 909.641601562 935 l 257
1239.75488281 1548 m 257
 676.329101562 0 l 257
 878.329101562 0 l 257
 1441.75488281 1548 l 257
 1239.75488281 1548 l 257
1565.75488281 1548 m 257
 1493.68847656 1350 l 257
 1764.49414062 767 l 257
 1857.67089844 1023 l 257
 1565.75488281 1548 l 257
1083.48730469 201 m 257
 1010.32910156 0 l 257
 1762.22265625 769 l 257
 1854.67089844 1023 l 257
 1083.48730469 201 l 257
1403.75488281 1548 m 257
 1331.32519531 1349 l 257
 1493.32519531 1349 l 257
 1565.75488281 1548 l 257
 1403.75488281 1548 l 257
921.123046875 200 m 257
 848.329101562 0 l 257
 1010.32910156 0 l 257
 1083.12304688 200 l 257
 921.123046875 200 l 257
EndSplineSet
EndChar

StartChar: Euro
Encoding: 8364 8364 34
GlifName: E_uro
Width: 2486
VWidth: 0
Flags: HW
LayerCount: 2
Fore
SplineSet
720.208007812 520 m 257
 666.33984375 372 l 257
 1462.33984375 372 l 257
 1516.20800781 520 l 257
 720.208007812 520 l 257
883.255859375 935 m 257
 829.751953125 788 l 257
 1609.75195312 788 l 257
 1663.25585938 935 l 257
 883.255859375 935 l 257
1171.28515625 1023 m 257
 864.09375 179 l 257
 1054.09375 179 l 257
 1361.28515625 1023 l 257
 1171.28515625 1023 l 257
1711.30664062 1633 m 257
 1170.28515625 1023 l 257
 1361.28515625 1023 l 257
 1819.66015625 1601 l 257
 1711.30664062 1633 l 257
864.09375 179 m 257
 995.171875 -406 l 257
 1147.171875 -406 l 257
 1054.09375 179 l 257
 864.09375 179 l 257
EndSplineSet
EndChar

StartChar: F
Encoding: 70 70 35
GlifName: F_
Width: 2770
VWidth: 0
Flags: HW
LayerCount: 2
Fore
SplineSet
1298.71289062 1548 m 257
 735.287109375 0 l 257
 935.287109375 0 l 257
 1498.71289062 1548 l 257
 1298.71289062 1548 l 257
1400.71289062 1548 m 257
 1327.5546875 1347 l 257
 1961.5546875 1347 l 257
 2034.71289062 1548 l 257
 1400.71289062 1548 l 257
1143.76074219 875 m 257
 1069.875 672 l 257
 1618.875 672 l 257
 1692.76074219 875 l 257
 1143.76074219 875 l 257
EndSplineSet
EndChar

StartChar: G
Encoding: 71 71 36
GlifName: G_
Width: 2814
VWidth: 0
Flags: HW
LayerCount: 2
Fore
SplineSet
1309.71289062 1548 m 257
 746.287109375 0 l 257
 948.287109375 0 l 257
 1511.71289062 1548 l 257
 1309.71289062 1548 l 257
1367.71289062 1548 m 257
 1294.5546875 1347 l 257
 1994.5546875 1347 l 257
 2067.71289062 1548 l 257
 1367.71289062 1548 l 257
850.809570312 202 m 257
 777.287109375 0 l 257
 1540.28710938 0 l 257
 1613.80957031 202 l 257
 850.809570312 202 l 257
1545.47460938 561 m 257
 1347.83886719 18 l 257
 1546.83886719 18 l 257
 1744.47460938 561 l 257
 1545.47460938 561 l 257
EndSplineSet
EndChar

StartChar: H
Encoding: 72 72 40
GlifName: H_
Width: 2884
VWidth: 0
Flags: HW
LayerCount: 2
Fore
SplineSet
1323.7109375 1537 m 257
 764.2890625 0 l 257
 964.2890625 0 l 257
 1523.7109375 1537 l 257
 1323.7109375 1537 l 257
1909.7109375 1537 m 257
 1350.2890625 0 l 257
 1560.2890625 0 l 257
 2119.7109375 1537 l 257
 1909.7109375 1537 l 257
1256.63085938 1023 m 257
 1182.01660156 818 l 257
 1728.01660156 818 l 257
 1802.63085938 1023 l 257
 1256.63085938 1023 l 257
EndSplineSet
EndChar

StartChar: Hbar
Encoding: 294 294 41
GlifName: H_bar
Width: 2946
VWidth: 0
Flags: HW
LayerCount: 2
Fore
SplineSet
1339.45507812 1537 m 257
 780.033203125 0 l 257
 980.033203125 0 l 257
 1539.45507812 1537 l 257
 1339.45507812 1537 l 257
1925.45507812 1537 m 257
 1366.03320312 0 l 257
 1576.03320312 0 l 257
 2135.45507812 1537 l 257
 1925.45507812 1537 l 257
1272.375 1023 m 257
 1197.76074219 818 l 257
 1743.76074219 818 l 257
 1818.375 1023 l 257
 1272.375 1023 l 257
1240.96679688 1434 m 257
 1165.26074219 1226 l 257
 2090.26074219 1226 l 257
 2165.96679688 1434 l 257
 1240.96679688 1434 l 257
EndSplineSet
EndChar

StartChar: I
Encoding: 73 73 43
GlifName: I_
Width: 2728
VWidth: 0
Flags: HW
LayerCount: 2
Fore
SplineSet
1302.11914062 1537 m 257
 1228.59765625 1335 l 257
 1929.59765625 1335 l 257
 2003.11914062 1537 l 257
 1302.11914062 1537 l 257
1510.00585938 1468 m 257
 1006.27050781 84 l 257
 1206.27050781 84 l 257
 1710.00585938 1468 l 257
 1510.00585938 1468 l 257
796.947265625 204 m 257
 724.880859375 6 l 257
 1480.88085938 6 l 257
 1552.94726562 204 l 257
 796.947265625 204 l 257
EndSplineSet
EndChar

StartChar: J
Encoding: 74 74 54
GlifName: J_
Width: 2834
VWidth: 0
Flags: HW
LayerCount: 2
Fore
SplineSet
1881.890625 1527 m 257
 1326.109375 0 l 257
 1526.109375 0 l 257
 2081.890625 1527 l 257
 1881.890625 1527 l 257
827.814453125 208 m 257
 752.109375 0 l 257
 1367.109375 0 l 257
 1442.81445312 208 l 257
 827.814453125 208 l 257
934.185546875 503 m 257
 770.03515625 52 l 257
 968.03515625 52 l 257
 1132.18554688 503 l 257
 934.185546875 503 l 257
EndSplineSet
EndChar

StartChar: K
Encoding: 75 75 56
GlifName: K_
Width: 2924
VWidth: 0
Flags: HW
LayerCount: 2
Fore
SplineSet
1331.75585938 1537 m 257
 774.154296875 5 l 257
 975.154296875 5 l 257
 1532.75585938 1537 l 257
 1331.75585938 1537 l 257
1180.94140625 999 m 257
 1240.25 835 l 257
 2149.84570312 1529 l 257
 1882.84570312 1529 l 257
 1180.94140625 999 l 257
1237.78320312 798 m 257
 1044.3671875 643 l 257
 1365.33398438 0 l 257
 1646.33398438 0 l 257
 1237.78320312 798 l 257
EndSplineSet
EndChar

StartChar: L
Encoding: 76 76 57
GlifName: L_
Width: 1990
VWidth: 0
Flags: HW
LayerCount: 2
Fore
SplineSet
1101.98046875 1542 m 257
 540.73828125 0 l 257
 738.73828125 0 l 257
 1299.98046875 1542 l 257
 1101.98046875 1542 l 257
723.26171875 202 m 257
 649.73828125 0 l 257
 1375.73828125 0 l 257
 1449.26171875 202 l 257
 723.26171875 202 l 257
EndSplineSet
EndChar

StartChar: Lcaron
Encoding: 317 317 59
GlifName: L_caron
Width: 2308
VWidth: 0
Flags: HW
LayerCount: 2
Fore
SplineSet
1180.9921875 1542 m 257
 619.75 0 l 257
 817.75 0 l 257
 1378.9921875 1542 l 257
 1180.9921875 1542 l 257
802.2734375 202 m 257
 728.75 0 l 257
 1454.75 0 l 257
 1528.2734375 202 l 257
 802.2734375 202 l 257
1558.25 1496 m 257
 1473.80859375 1264 l 257
 1603.80859375 1264 l 257
 1688.25 1496 l 257
 1558.25 1496 l 257
EndSplineSet
EndChar

StartChar: Lslash
Encoding: 321 321 61
GlifName: L_slash
Width: 1990
VWidth: 0
Flags: HW
LayerCount: 2
Fore
SplineSet
1101.98046875 1542 m 257
 540.73828125 0 l 257
 738.73828125 0 l 257
 1299.98046875 1542 l 257
 1101.98046875 1542 l 257
723.26171875 202 m 257
 649.73828125 0 l 257
 1375.73828125 0 l 257
 1449.26171875 202 l 257
 723.26171875 202 l 257
714.0390625 902 m 257
 731.4375 730 l 257
 1238.95898438 932 l 257
 1221.5625 1104 l 257
 714.0390625 902 l 257
EndSplineSet
EndChar

StartChar: M
Encoding: 77 77 62
GlifName: M_
Width: 2938
VWidth: 0
Flags: HW
LayerCount: 2
Fore
SplineSet
1341.21484375 1548 m 257
 777.7890625 0 l 257
 980.7890625 0 l 257
 1544.21484375 1548 l 257
 1341.21484375 1548 l 257
1958.2109375 1537 m 257
 1398.7890625 0 l 257
 1600.7890625 0 l 257
 2160.2109375 1537 l 257
 1958.2109375 1537 l 257
1334.90234375 1429 m 257
 1480.04199219 1031 l 257
 1668.04199219 1031 l 257
 1520.21484375 1548 l 257
 1334.90234375 1429 l 257
1985.2109375 1537 m 257
 1476.13085938 1023 l 257
 1663.13085938 1023 l 257
 2133.37695312 1488 l 257
 1985.2109375 1537 l 257
EndSplineSet
EndChar

StartChar: N
Encoding: 78 78 63
GlifName: N_
Width: 2958
VWidth: 0
Flags: HW
LayerCount: 2
Fore
SplineSet
1346.21289062 1548 m 257
 782.787109375 0 l 257
 987.787109375 0 l 257
 1551.21289062 1548 l 257
 1346.21289062 1548 l 257
1973.21289062 1548 m 257
 1409.78710938 0 l 257
 1611.78710938 0 l 257
 2175.21289062 1548 l 257
 1973.21289062 1548 l 257
1347.21289062 1548 m 257
 1410.78710938 0 l 257
 1613.78710938 0 l 257
 1552.21289062 1548 l 257
 1347.21289062 1548 l 257
EndSplineSet
EndChar

StartChar: O
Encoding: 79 79 67
GlifName: O_
Width: 2892
VWidth: 0
Flags: HW
LayerCount: 2
Fore
SplineSet
1325.7109375 1537 m 257
 766.2890625 0 l 257
 967.2890625 0 l 257
 1526.7109375 1537 l 257
 1325.7109375 1537 l 257
1922.7109375 1537 m 257
 1363.2890625 0 l 257
 1566.2890625 0 l 257
 2125.7109375 1537 l 257
 1922.7109375 1537 l 257
1389.7109375 1537 m 257
 1316.91699219 1337 l 257
 1959.91699219 1337 l 257
 2032.7109375 1537 l 257
 1389.7109375 1537 l 257
880.5390625 204 m 257
 806.2890625 0 l 257
 1479.2890625 0 l 257
 1553.5390625 204 l 257
 880.5390625 204 l 257
EndSplineSet
EndChar

StartChar: OE
Encoding: 338 338 68
GlifName: O_E_
Width: 2836
VWidth: 0
Flags: HW
LayerCount: 2
Fore
SplineSet
1315.21289062 1548 m 257
 751.787109375 0 l 257
 952.787109375 0 l 257
 1516.21289062 1548 l 257
 1315.21289062 1548 l 257
1707.21289062 1548 m 257
 1143.78710938 0 l 257
 1344.78710938 0 l 257
 1908.21289062 1548 l 257
 1707.21289062 1548 l 257
1352.21289062 1548 m 257
 1279.78320312 1349 l 257
 2011.78320312 1349 l 257
 2084.21289062 1548 l 257
 1352.21289062 1548 l 257
863.581054688 200 m 257
 790.787109375 0 l 257
 1528.78710938 0 l 257
 1601.58105469 200 l 257
 863.581054688 200 l 257
1559.4375 859 m 257
 1486.64355469 659 l 257
 1730.64355469 659 l 257
 1803.4375 859 l 257
 1559.4375 859 l 257
EndSplineSet
EndChar

StartChar: Oslash
Encoding: 216 216 76
GlifName: O_slash
Width: 3250
VWidth: 0
Flags: HW
LayerCount: 2
Fore
SplineSet
2232.34375 1667 m 257
 856.2265625 -45 l 257
 1017.65625 -118 l 257
 2393.7734375 1594 l 257
 2232.34375 1667 l 257
1507.02734375 1537 m 257
 947.60546875 0 l 257
 1148.60546875 0 l 257
 1708.02734375 1537 l 257
 1507.02734375 1537 l 257
2104.02734375 1537 m 257
 1544.60546875 0 l 257
 1747.60546875 0 l 257
 2307.02734375 1537 l 257
 2104.02734375 1537 l 257
1571.02734375 1537 m 257
 1498.23242188 1337 l 257
 2141.23242188 1337 l 257
 2214.02734375 1537 l 257
 1571.02734375 1537 l 257
1061.85546875 204 m 257
 987.60546875 0 l 257
 1660.60546875 0 l 257
 1734.85546875 204 l 257
 1061.85546875 204 l 257
EndSplineSet
EndChar

StartChar: P
Encoding: 80 80 78
GlifName: P_
Width: 2804
VWidth: 0
Flags: HW
LayerCount: 2
Fore
SplineSet
1304.57519531 1548 m 257
 744.424804688 9 l 257
 934.424804688 9 l 257
 1494.57519531 1548 l 257
 1304.57519531 1548 l 257
1383.57519531 1548 m 257
 1310.05371094 1346 l 257
 1966.05371094 1346 l 257
 2039.57519531 1548 l 257
 1383.57519531 1548 l 257
1859.57519531 1548 m 257
 1616.80761719 881 l 257
 1816.80761719 881 l 257
 2059.57519531 1548 l 257
 1859.57519531 1548 l 257
1192.86914062 1068 m 257
 1120.07519531 868 l 257
 1807.07519531 868 l 257
 1879.86914062 1068 l 257
 1192.86914062 1068 l 257
EndSplineSet
EndChar

StartChar: Q
Encoding: 81 81 79
GlifName: Q_
Width: 2890
VWidth: 0
Flags: HW
LayerCount: 2
Fore
SplineSet
1323.80078125 1537 m 257
 766.19921875 5 l 257
 965.19921875 5 l 257
 1522.80078125 1537 l 257
 1323.80078125 1537 l 257
1922.80078125 1537 m 257
 1363.37890625 0 l 257
 1564.37890625 0 l 257
 2123.80078125 1537 l 257
 1922.80078125 1537 l 257
1387.80078125 1537 m 257
 1315.00683594 1337 l 257
 1958.00683594 1337 l 257
 2030.80078125 1537 l 257
 1387.80078125 1537 l 257
878.993164062 205 m 257
 804.37890625 0 l 257
 1477.37890625 0 l 257
 1551.99316406 205 l 257
 878.993164062 205 l 257
1220.02246094 21 m 257
 1294.64746094 -285 l 257
 1527.86816406 -169 l 257
 1453.24316406 137 l 257
 1220.02246094 21 l 257
EndSplineSet
EndChar

StartChar: R
Encoding: 82 82 80
GlifName: R_
Width: 2816
VWidth: 0
Flags: HW
LayerCount: 2
Fore
SplineSet
1306.7109375 1537 m 257
 747.2890625 0 l 257
 948.2890625 0 l 257
 1507.7109375 1537 l 257
 1306.7109375 1537 l 257
1385.7109375 1537 m 257
 1312.18945312 1335 l 257
 1968.18945312 1335 l 257
 2041.7109375 1537 l 257
 1385.7109375 1537 l 257
1868.7109375 1537 m 257
 1626.67089844 872 l 257
 1826.67089844 872 l 257
 2068.7109375 1537 l 257
 1868.7109375 1537 l 257
1203.01269531 1079 m 257
 1126.21484375 868 l 257
 1813.21484375 868 l 257
 1890.01269531 1079 l 257
 1203.01269531 1079 l 257
1267.39941406 874 m 257
 1351.2890625 0 l 257
 1591.2890625 0 l 257
 1493.67089844 872 l 257
 1267.39941406 874 l 257
EndSplineSet
EndChar

StartChar: S
Encoding: 83 83 83
GlifName: S_
Width: 2430
VWidth: 0
Flags: HW
LayerCount: 2
Fore
SplineSet
1181.7109375 1537 m 257
 1108.55371094 1336 l 257
 1706.55371094 1336 l 257
 1779.7109375 1537 l 257
 1181.7109375 1537 l 257
1183.53125 1542 m 257
 996.450195312 1028 l 257
 1198.45019531 1028 l 257
 1385.53125 1542 l 257
 1183.53125 1542 l 257
722.71875 199 m 257
 650.2890625 0 l 257
 1358.2890625 0 l 257
 1430.71875 199 l 257
 722.71875 199 l 257
1193.2890625 0 m 257
 1394.2890625 0 l 257
 1523.49804688 355 l 257
 1322.49804688 355 l 257
 1193.2890625 0 l 257
996.450195312 1028 m 257
 1322.49804688 355 l 257
 1523.49804688 355 l 257
 1198.45019531 1028 l 257
 996.450195312 1028 l 257
EndSplineSet
EndChar

StartChar: T
Encoding: 84 84 88
GlifName: T_
Width: 2268
VWidth: 0
Flags: HW
LayerCount: 2
Fore
SplineSet
884.12109375 1548 m 257
 811.327148438 1348 l 257
 1585.32714844 1348 l 257
 1658.12109375 1548 l 257
 884.12109375 1548 l 257
1130.35644531 1436 m 257
 609.87890625 6 l 257
 809.87890625 6 l 257
 1330.35644531 1436 l 257
 1130.35644531 1436 l 257
EndSplineSet
EndChar

StartChar: Thorn
Encoding: 222 222 90
GlifName: T_horn
Width: 2572
VWidth: 0
Flags: HW
LayerCount: 2
Fore
SplineSet
1243.71679688 1542 m 257
 685.75 9 l 257
 875.75 9 l 257
 1433.71679688 1542 l 257
 1243.71679688 1542 l 257
1210.61425781 1234 m 257
 1138.18359375 1035 l 257
 1794.18359375 1035 l 257
 1866.61425781 1234 l 257
 1210.61425781 1234 l 257
1686.25 1233 m 257
 1444.57324219 569 l 257
 1644.57324219 569 l 257
 1886.25 1233 l 257
 1686.25 1233 l 257
998.430664062 684 m 257
 925.635742188 484 l 257
 1612.63574219 484 l 257
 1685.43066406 684 l 257
 998.430664062 684 l 257
EndSplineSet
EndChar

StartChar: U
Encoding: 85 85 91
GlifName: U_
Width: 2712
VWidth: 0
Flags: HW
LayerCount: 2
Fore
SplineSet
1280.7109375 1537 m 257
 721.2890625 0 l 257
 921.2890625 0 l 257
 1480.7109375 1537 l 257
 1280.7109375 1537 l 257
1791.7109375 1537 m 257
 1232.2890625 0 l 257
 1431.2890625 0 l 257
 1990.7109375 1537 l 257
 1791.7109375 1537 l 257
841.083007812 200 m 257
 768.2890625 0 l 257
 1388.2890625 0 l 257
 1461.08300781 200 l 257
 841.083007812 200 l 257
EndSplineSet
EndChar

StartChar: V
Encoding: 86 86 102
GlifName: V_
Width: 2402
VWidth: 0
Flags: HW
LayerCount: 2
Fore
SplineSet
947.212890625 1548 m 257
 643.787109375 0 l 257
 864.787109375 0 l 257
 1148.21289062 1548 l 257
 947.212890625 1548 l 257
1557.21289062 1548 m 257
 768.787109375 0 l 257
 991.787109375 0 l 257
 1758.21289062 1548 l 257
 1557.21289062 1548 l 257
EndSplineSet
EndChar

StartChar: W
Encoding: 87 87 103
GlifName: W_
Width: 2938
VWidth: 0
Flags: HW
LayerCount: 2
Fore
SplineSet
1342.21289062 1548 m 257
 778.787109375 0 l 257
 979.787109375 0 l 257
 1543.21289062 1548 l 257
 1342.21289062 1548 l 257
1959.21289062 1548 m 257
 1400.15429688 12 l 257
 1601.15429688 12 l 257
 2160.21289062 1548 l 257
 1959.21289062 1548 l 257
1461.94824219 1028 m 257
 1087.78710938 0 l 257
 1288.78710938 0 l 257
 1662.94824219 1028 l 257
 1461.94824219 1028 l 257
850.9453125 201 m 257
 777.787109375 0 l 257
 1596.78710938 0 l 257
 1669.9453125 201 l 257
 850.9453125 201 l 257
EndSplineSet
EndChar

StartChar: X
Encoding: 88 88 108
GlifName: X_
Width: 2956
VWidth: 0
Flags: HW
LayerCount: 2
Fore
SplineSet
1340.12109375 1548 m 257
 1418.6953125 0 l 257
 1618.6953125 0 l 257
 1539.12109375 1548 l 257
 1340.12109375 1548 l 257
781.87890625 6 m 257
 982.87890625 6 l 257
 2174.12109375 1548 l 257
 1975.12109375 1548 l 257
 781.87890625 6 l 257
EndSplineSet
EndChar

StartChar: Y
Encoding: 89 89 109
GlifName: Y_
Width: 2206
VWidth: 0
Flags: HW
LayerCount: 2
Fore
SplineSet
921.268554688 897 m 257
 594.787109375 0 l 257
 796.787109375 0 l 257
 1123.26855469 897 l 257
 921.268554688 897 l 257
907.212890625 1548 m 257
 656.4375 859 l 257
 856.4375 859 l 257
 1107.21289062 1548 l 257
 907.212890625 1548 l 257
1412.21289062 1548 m 257
 1161.4375 859 l 257
 1360.4375 859 l 257
 1611.21289062 1548 l 257
 1412.21289062 1548 l 257
784.12890625 1023 m 257
 724.4375 859 l 257
 1270.4375 859 l 257
 1330.12890625 1023 l 257
 784.12890625 1023 l 257
EndSplineSet
EndChar

StartChar: Z
Encoding: 90 90 114
GlifName: Z_
Width: 2966
VWidth: 0
Flags: HW
LayerCount: 2
Fore
SplineSet
1347.21289062 1548 m 257
 1270.05175781 1336 l 257
 2104.05175781 1336 l 257
 2181.21289062 1548 l 257
 1347.21289062 1548 l 257
861.94921875 212 m 257
 784.787109375 0 l 257
 1612.78710938 0 l 257
 1689.94921875 212 l 257
 861.94921875 212 l 257
1842.6875 1335 m 257
 861.584960938 211 l 257
 1068.58496094 211 l 257
 2087.6875 1335 l 257
 1842.6875 1335 l 257
EndSplineSet
EndChar

StartChar: a
Encoding: 97 97 118
GlifName: a
Width: 2286
VWidth: 0
Flags: HW
LayerCount: 2
Fore
SplineSet
984.670898438 1023 m 257
 912.240234375 824 l 257
 1518.24023438 824 l 257
 1590.67089844 1023 l 257
 984.670898438 1023 l 257
1477.67089844 1023 m 257
 1105.32910156 0 l 257
 1299.32910156 0 l 257
 1671.67089844 1023 l 257
 1477.67089844 1023 l 257
834.34765625 599 m 257
 761.916992188 400 l 257
 1385.91699219 400 l 257
 1458.34765625 599 l 257
 834.34765625 599 l 257
825.612304688 575 m 257
 616.329101562 0 l 257
 817.329101562 0 l 257
 1026.61230469 575 l 257
 825.612304688 575 l 257
687.487304688 201 m 257
 614.329101562 0 l 257
 1304.32910156 0 l 257
 1377.48730469 201 l 257
 687.487304688 201 l 257
EndSplineSet
EndChar

StartChar: acute
Encoding: 180 180 122
GlifName: acute
Width: 822
VWidth: 0
Flags: HW
LayerCount: 2
Fore
SplineSet
485.9140625 1556 m 257
 263.46484375 1302 l 257
 334.72265625 1256 l 257
 558.53515625 1511 l 257
 485.9140625 1556 l 257
EndSplineSet
EndChar

StartChar: acutecomb
Encoding: 769 769 123
GlifName: acutecomb
Width: 902
VWidth: 0
Flags: HW
LayerCount: 2
Fore
SplineSet
525.9140625 2180 m 257
 303.46484375 1926 l 257
 374.72265625 1880 l 257
 598.53515625 2135 l 257
 525.9140625 2180 l 257
EndSplineSet
EndChar

StartChar: ae
Encoding: 230 230 125
GlifName: ae
Width: 2714
VWidth: 0
Flags: HW
LayerCount: 2
Fore
SplineSet
1072.67089844 1023 m 257
 1000.24023438 824 l 257
 1819.24023438 824 l 257
 1891.67089844 1023 l 257
 1072.67089844 1023 l 257
1473.67089844 1023 m 257
 1101.32910156 0 l 257
 1295.32910156 0 l 257
 1667.67089844 1023 l 257
 1473.67089844 1023 l 257
941.34765625 599 m 257
 868.916992188 400 l 257
 1665.91699219 400 l 257
 1738.34765625 599 l 257
 941.34765625 599 l 257
932.612304688 575 m 257
 723.329101562 0 l 257
 924.329101562 0 l 257
 1133.61230469 575 l 257
 932.612304688 575 l 257
794.487304688 201 m 257
 721.329101562 0 l 257
 1641.32910156 0 l 257
 1714.48730469 201 l 257
 794.487304688 201 l 257
1797.67089844 1023 m 257
 1570.91699219 400 l 257
 1765.91699219 400 l 257
 1992.67089844 1023 l 257
 1797.67089844 1023 l 257
EndSplineSet
EndChar

StartChar: ampersand
Encoding: 38 38 128
GlifName: ampersand
Width: 2696
VWidth: 0
Flags: HW
LayerCount: 2
Fore
SplineSet
1430.61914062 1537 m 257
 1323.56445312 12 l 257
 1485.58007812 56 l 257
 1592.61914062 1537 l 257
 1430.61914062 1537 l 257
1925.11914062 1401 m 257
 1974.61914062 1537 l 257
 1508.61914062 1537 l 257
 1459.11914062 1401 l 257
 1925.11914062 1401 l 257
1781.49804688 1446 m 257
 1588.95800781 917 l 257
 1748.95800781 917 l 257
 1941.49804688 1446 l 257
 1781.49804688 1446 l 257
1099.54589844 1045 m 257
 1026.02441406 843 l 257
 1722.02441406 843 l 257
 1795.54589844 1045 l 257
 1099.54589844 1045 l 257
1099.54589844 1045 m 257
 727.932617188 24 l 257
 937.932617188 24 l 257
 1309.54589844 1045 l 257
 1099.54589844 1045 l 257
788.3515625 190 m 257
 721.380859375 6 l 257
 1529.38085938 6 l 257
 1596.3515625 190 l 257
 788.3515625 190 l 257
EndSplineSet
EndChar

StartChar: asciicircum
Encoding: 94 94 131
GlifName: asciicircum
Width: 1566
VWidth: 0
Flags: HW
LayerCount: 2
Fore
SplineSet
1083.98046875 1023 m 257
 934.98046875 1023 l 257
 445.7734375 407 l 257
 573.20703125 345 l 257
 1083.98046875 1023 l 257
897.66796875 904 m 257
 949.48046875 343 l 257
 1120.2265625 400 l 257
 1083.98046875 1023 l 257
 897.66796875 904 l 257
EndSplineSet
EndChar

StartChar: asciitilde
Encoding: 126 126 132
GlifName: asciitilde
Width: 1860
VWidth: 0
Flags: HW
LayerCount: 2
Fore
SplineSet
802.376953125 815 m 257
 766.34375 716 l 257
 1094.14160156 655 l 257
 1130.17480469 754 l 257
 802.376953125 815 l 257
543.266601562 757 m 257
 522.59765625 659 l 257
 766.34375 716 l 257
 802.376953125 815 l 257
 543.266601562 757 l 257
1130.17480469 754 m 257
 1094.14160156 655 l 257
 1326.46191406 796 l 257
 1337.40234375 892 l 257
 1130.17480469 754 l 257
EndSplineSet
EndChar

StartChar: asterisk
Encoding: 42 42 133
GlifName: asterisk
Width: 2342
VWidth: 0
Flags: HW
LayerCount: 2
Fore
SplineSet
1246.66601562 1297 m 257
 883.787109375 300 l 257
 1113.78710938 300 l 257
 1476.66601562 1297 l 257
 1246.66601562 1297 l 257
817.599609375 1099 m 257
 1276.625 360 l 257
 1488.03710938 504 l 257
 1024.28320312 1241 l 257
 817.599609375 1099 l 257
1618.0078125 1232 m 257
 637.6796875 525 l 257
 723.9921875 372 l 257
 1704.3203125 1079 l 257
 1618.0078125 1232 l 257
EndSplineSet
EndChar

StartChar: at
Encoding: 64 64 134
GlifName: at
Width: 3132
VWidth: 0
Flags: HW
LayerCount: 2
Fore
SplineSet
1390.30664062 1023 m 257
 1337.89453125 879 l 257
 2156.89453125 879 l 257
 2209.30664062 1023 l 257
 1390.30664062 1023 l 257
1769.43554688 592 m 257
 1553.96484375 0 l 257
 1706.96484375 0 l 257
 1922.43554688 592 l 257
 1769.43554688 592 l 257
1439.34765625 600 m 257
 1382.56835938 444 l 257
 1807.56835938 444 l 257
 1864.34765625 600 l 257
 1439.34765625 600 l 257
1432.34375 589 m 257
 1222.33203125 12 l 257
 1396.33203125 12 l 257
 1606.34375 589 l 257
 1432.34375 589 l 257
1284.39257812 188 m 257
 1215.96484375 0 l 257
 1709.96484375 0 l 257
 1778.39257812 188 l 257
 1284.39257812 188 l 257
1302.30664062 1023 m 257
 848.80078125 -223 l 257
 1024.80078125 -223 l 257
 1478.30664062 1023 l 257
 1302.30664062 1023 l 257
896.6640625 -86 m 257
 834.060546875 -258 l 257
 1782.06054688 -258 l 257
 1844.6640625 -86 l 257
 896.6640625 -86 l 257
2146.93945312 1011 m 257
 1778.96484375 0 l 257
 1929.96484375 0 l 257
 2297.93945312 1011 l 257
 2146.93945312 1011 l 257
1714.66015625 175 m 257
 1650.96484375 0 l 257
 1859.96484375 0 l 257
 1923.66015625 175 l 257
 1714.66015625 175 l 257
EndSplineSet
EndChar

StartChar: b
Encoding: 98 98 136
GlifName: b
Width: 2432
VWidth: 0
Flags: HW
LayerCount: 2
Fore
SplineSet
1210.43164062 1537 m 257
 651.009765625 0 l 257
 850.009765625 0 l 257
 1409.43164062 1537 l 257
 1210.43164062 1537 l 257
1123.99023438 1033 m 257
 1051.56054688 834 l 257
 1569.56054688 834 l 257
 1641.99023438 1033 l 257
 1123.99023438 1033 l 257
1581.99023438 1033 m 257
 1206.00976562 0 l 257
 1405.00976562 0 l 257
 1780.99023438 1033 l 257
 1581.99023438 1033 l 257
851.3515625 207 m 257
 776.009765625 0 l 257
 1326.00976562 0 l 257
 1401.3515625 207 l 257
 851.3515625 207 l 257
EndSplineSet
EndChar

StartChar: backslash
Encoding: 92 92 137
GlifName: backslash
Width: 820
VWidth: 0
Flags: HW
LayerCount: 2
Fore
SplineSet
251.412109375 1441 m 257
 349.19921875 -13 l 257
 568.587890625 65 l 257
 471.80078125 1519 l 257
 251.412109375 1441 l 257
EndSplineSet
EndChar

StartChar: bar
Encoding: 124 124 138
GlifName: bar
Width: 1704
VWidth: 0
Flags: HW
LayerCount: 2
Fore
SplineSet
1028.02734375 1435 m 257
 472.97265625 -90 l 257
 675.97265625 -90 l 257
 1231.02734375 1435 l 257
 1028.02734375 1435 l 257
EndSplineSet
EndChar

StartChar: braceleft
Encoding: 123 123 139
GlifName: braceleft
Width: 2080
VWidth: 0
Flags: HW
LayerCount: 2
Fore
SplineSet
1221.25195312 1548 m 257
 962.83203125 838 l 257
 1108.83203125 838 l 257
 1367.25195312 1548 l 257
 1221.25195312 1548 l 257
824.1484375 424 m 257
 565.73046875 -286 l 257
 711.73046875 -286 l 257
 970.1484375 424 l 257
 824.1484375 424 l 257
619.96484375 690 m 257
 598.126953125 630 l 257
 1108.83203125 838 l 257
 962.83203125 838 l 257
 619.96484375 690 l 257
619.96484375 690 m 257
 598.126953125 630 l 257
 822.513671875 425 l 257
 971.513671875 425 l 257
 619.96484375 690 l 257
1242.26953125 1603 m 257
 1187.31054688 1452 l 257
 1499.71484375 1574 l 257
 1514.26953125 1603 l 257
 1242.26953125 1603 l 257
619.869140625 -140 m 257
 566.3671875 -287 l 257
 842.3671875 -287 l 257
 847.09765625 -274 l 257
 619.869140625 -140 l 257
EndSplineSet
EndChar

StartChar: braceright
Encoding: 125 125 140
GlifName: braceright
Width: 2168
VWidth: 0
Flags: HW
LayerCount: 2
Fore
SplineSet
1559.38671875 1548 m 257
 1397.38671875 1548 l 257
 1138.96875 838 l 257
 1300.96875 838 l 257
 1559.38671875 1548 l 257
1136.28515625 424 m 257
 976.28515625 424 l 257
 717.865234375 -286 l 257
 877.865234375 -286 l 257
 1136.28515625 424 l 257
1520.1015625 690 m 257
 1295.96875 838 l 257
 1134.96875 838 l 257
 1498.26171875 630 l 257
 1520.1015625 690 l 257
1520.1015625 690 m 257
 976.28515625 424 l 257
 1136.28515625 424 l 257
 1498.26171875 630 l 257
 1520.1015625 690 l 257
1580.40625 1603 m 257
 1305.40625 1603 l 257
 1298.84960938 1574 l 257
 1525.4453125 1452 l 257
 1580.40625 1603 l 257
916.005859375 -140 m 257
 591.234375 -274 l 257
 587.59375 -284 l 257
 863.59375 -284 l 257
 916.005859375 -140 l 257
EndSplineSet
EndChar

StartChar: bracketleft
Encoding: 91 91 141
GlifName: bracketleft
Width: 2008
VWidth: 0
Flags: HW
LayerCount: 2
Fore
SplineSet
1196.97949219 1542 m 257
 547.65625 -242 l 257
 669.65625 -242 l 257
 1318.97949219 1542 l 257
 1196.97949219 1542 l 257
1251.34375 1543 m 257
 1205.11914062 1416 l 257
 1414.11914062 1416 l 257
 1460.34375 1543 l 257
 1251.34375 1543 l 257
656.616210938 -91 m 257
 601.65625 -242 l 257
 815.65625 -242 l 257
 870.616210938 -91 l 257
 656.616210938 -91 l 257
EndSplineSet
EndChar

StartChar: bracketright
Encoding: 93 93 142
GlifName: bracketright
Width: 2024
VWidth: 0
Flags: HW
LayerCount: 2
Fore
SplineSet
1350.66210938 1542 m 257
 701.337890625 -242 l 257
 823.337890625 -242 l 257
 1472.66210938 1542 l 257
 1350.66210938 1542 l 257
1201.02539062 1543 m 257
 1154.80078125 1416 l 257
 1363.80078125 1416 l 257
 1410.02539062 1543 l 257
 1201.02539062 1543 l 257
606.298828125 -91 m 257
 551.337890625 -242 l 257
 765.337890625 -242 l 257
 820.298828125 -91 l 257
 606.298828125 -91 l 257
EndSplineSet
EndChar

StartChar: breve
Encoding: 728 728 143
GlifName: breve
Width: 1642
VWidth: 0
Flags: HW
LayerCount: 2
Fore
SplineSet
968.34765625 1548 m 257
 943.59765625 1480 l 257
 1133.34765625 1548 l 257
 1168.65234375 1645 l 257
 968.34765625 1548 l 257
644.34765625 1548 m 257
 619.59765625 1480 l 257
 943.59765625 1480 l 257
 968.34765625 1548 l 257
 644.34765625 1548 l 257
503.193359375 1630 m 257
 473.34765625 1548 l 257
 619.59765625 1480 l 257
 644.34765625 1548 l 257
 503.193359375 1630 l 257
EndSplineSet
EndChar

StartChar: brokenbar
Encoding: 166 166 144
GlifName: brokenbar
Width: 1838
VWidth: 0
Flags: HW
LayerCount: 2
Fore
SplineSet
504.353515625 -332 m 257
 614.353515625 -332 l 257
 983.418945312 682 l 257
 873.418945312 682 l 257
 504.353515625 -332 l 257
915.727539062 790 m 257
 1025.72753906 790 l 257
 1333.64648438 1636 l 257
 1223.64648438 1636 l 257
 915.727539062 790 l 257
EndSplineSet
EndChar

StartChar: bullet
Encoding: 8226 8226 145
GlifName: bullet
Width: 982
VWidth: 0
Flags: HW
LayerCount: 2
Fore
SplineSet
395.452148438 1023 m 257
 301.547851562 765 l 257
 586.547851562 765 l 257
 680.452148438 1023 l 257
 395.452148438 1023 l 257
EndSplineSet
EndChar

StartChar: c
Encoding: 99 99 146
GlifName: c
Width: 2304
VWidth: 0
Flags: HW
LayerCount: 2
Fore
SplineSet
989.170898438 1023 m 257
 917.46875 826 l 257
 1613.46875 826 l 257
 1685.17089844 1023 l 257
 989.170898438 1023 l 257
976.975585938 984 m 257
 618.829101562 0 l 257
 820.829101562 0 l 257
 1178.97558594 984 l 257
 976.975585938 984 l 257
797.987304688 201 m 257
 724.829101562 0 l 257
 1306.82910156 0 l 257
 1379.98730469 201 l 257
 797.987304688 201 l 257
EndSplineSet
EndChar

StartChar: caron
Encoding: 711 711 148
GlifName: caron
Width: 942
VWidth: 0
Flags: HW
LayerCount: 2
Fore
SplineSet
392.9375 1083 m 257
 383.783203125 1437 l 257
 293.772460938 1404 l 257
 314.9375 1083 l 257
 392.9375 1083 l 257
340.868164062 1146 m 257
 392.9375 1083 l 257
 648.227539062 1408 l 257
 580.783203125 1437 l 257
 340.868164062 1146 l 257
EndSplineSet
EndChar

StartChar: cedilla
Encoding: 184 184 153
GlifName: cedilla
Width: 1420
VWidth: 0
Flags: HW
LayerCount: 2
Fore
SplineSet
625.764648438 242 m 257
 507.837890625 -82 l 257
 663.837890625 -82 l 257
 781.764648438 242 l 257
 625.764648438 242 l 257
456.426757812 -226 m 257
 412.75 -346 l 257
 858.75 -346 l 257
 902.426757812 -226 l 257
 456.426757812 -226 l 257
855.25 62 m 257
 719.852539062 -310 l 257
 871.852539062 -310 l 257
 1007.25 62 l 257
 855.25 62 l 257
561.25 62 m 257
 504.470703125 -94 l 257
 950.470703125 -94 l 257
 1007.25 62 l 257
 561.25 62 l 257
EndSplineSet
EndChar

StartChar: cent
Encoding: 162 162 154
GlifName: cent
Width: 2334
VWidth: 0
Flags: HW
LayerCount: 2
Fore
SplineSet
1589.40625 1183 m 257
 1442.40625 1183 l 257
 980.52734375 -86 l 257
 1127.52734375 -86 l 257
 1589.40625 1183 l 257
1004.17089844 1023 m 257
 932.46875 826 l 257
 1628.46875 826 l 257
 1700.17089844 1023 l 257
 1004.17089844 1023 l 257
991.975585938 984 m 257
 633.829101562 0 l 257
 835.829101562 0 l 257
 1193.97558594 984 l 257
 991.975585938 984 l 257
812.987304688 201 m 257
 739.829101562 0 l 257
 1321.82910156 0 l 257
 1394.98730469 201 l 257
 812.987304688 201 l 257
EndSplineSet
EndChar

StartChar: circumflex
Encoding: 710 710 155
GlifName: circumflex
Width: 772
VWidth: 0
Flags: HW
LayerCount: 2
Fore
SplineSet
506.946289062 1330 m 257
 446.946289062 1330 l 257
 251.045898438 1083 l 257
 301.946289062 1058 l 257
 506.946289062 1330 l 257
431.475585938 1282 m 257
 452.946289062 1058 l 257
 520.954101562 1080 l 257
 506.946289062 1330 l 257
 431.475585938 1282 l 257
EndSplineSet
EndChar

StartChar: colon
Encoding: 58 58 156
GlifName: colon
Width: 1496
VWidth: 0
Flags: HW
LayerCount: 2
Fore
SplineSet
511.439453125 430 m 257
 428.08984375 201 l 257
 676.08984375 201 l 257
 759.439453125 430 l 257
 511.439453125 430 l 257
801.91015625 1294 m 257
 712.009765625 1047 l 257
 978.009765625 1047 l 257
 1067.91015625 1294 l 257
 801.91015625 1294 l 257
EndSplineSet
EndChar

StartChar: comma
Encoding: 44 44 157
GlifName: comma
Width: 1042
VWidth: 0
Flags: HW
LayerCount: 2
Fore
SplineSet
476.700195312 237 m 257
 393.3515625 8 l 257
 641.3515625 8 l 257
 724.700195312 237 l 257
 476.700195312 237 l 257
537.575195312 135 m 257
 317.299804688 -146 l 257
 439.461914062 -206 l 257
 636.439453125 0 l 257
 537.575195312 135 l 257
EndSplineSet
EndChar

StartChar: copyright
Encoding: 169 169 158
GlifName: copyright
Width: 3310
VWidth: 0
Flags: HW
LayerCount: 2
Fore
SplineSet
1434.2109375 1537 m 257
 874.7890625 0 l 257
 1075.7890625 0 l 257
 1635.2109375 1537 l 257
 1434.2109375 1537 l 257
2232.2109375 1537 m 257
 1672.7890625 0 l 257
 1875.7890625 0 l 257
 2435.2109375 1537 l 257
 2232.2109375 1537 l 257
1544.2109375 1537 m 257
 1471.41699219 1337 l 257
 2162.41699219 1337 l 257
 2235.2109375 1537 l 257
 1544.2109375 1537 l 257
1083.0390625 204 m 257
 1008.7890625 0 l 257
 1681.7890625 0 l 257
 1756.0390625 204 l 257
 1083.0390625 204 l 257
1556.46191406 1197 m 257
 1483.30371094 996 l 257
 1918.30371094 996 l 257
 1991.46191406 1197 l 257
 1556.46191406 1197 l 257
1541.81054688 1154 m 257
 1245.5390625 340 l 257
 1414.5390625 340 l 257
 1710.81054688 1154 l 257
 1541.81054688 1154 l 257
1301.95410156 495 m 257
 1228.79589844 294 l 257
 1668.79589844 294 l 257
 1741.95410156 495 l 257
 1301.95410156 495 l 257
EndSplineSet
EndChar

StartChar: currency
Encoding: 164 164 159
GlifName: currency
Width: 2984
VWidth: 0
Flags: HW
LayerCount: 2
Fore
SplineSet
1258.61328125 1202 m 257
 886.63671875 180 l 257
 1086.63671875 180 l 257
 1458.61328125 1202 l 257
 1258.61328125 1202 l 257
1874.34179688 1204 m 257
 1501.63671875 180 l 257
 1703.63671875 180 l 257
 2076.34179688 1204 l 257
 1874.34179688 1204 l 257
1382.34179688 1204 m 257
 1308.8203125 1002 l 257
 1894.8203125 1002 l 257
 1968.34179688 1204 l 257
 1382.34179688 1204 l 257
1086.4296875 380 m 257
 1014 181 l 257
 1586 181 l 257
 1658.4296875 380 l 257
 1086.4296875 380 l 257
1235.66601562 1356 m 257
 1145.76367188 1109 l 257
 1413.76367188 1109 l 257
 1503.66601562 1356 l 257
 1235.66601562 1356 l 257
1924.56640625 1331 m 257
 1834.66601562 1084 l 257
 2098.66601562 1084 l 257
 2188.56640625 1331 l 257
 1924.56640625 1331 l 257
885.333984375 366 m 257
 795.43359375 119 l 257
 1059.43359375 119 l 257
 1149.33398438 366 l 257
 885.333984375 366 l 257
1557.15429688 371 m 257
 1467.25390625 124 l 257
 1731.25390625 124 l 257
 1821.15429688 371 l 257
 1557.15429688 371 l 257
EndSplineSet
EndChar

StartChar: d
Encoding: 100 100 160
GlifName: d
Width: 2808
VWidth: 0
Flags: HW
LayerCount: 2
Fore
SplineSet
1861.390625 1527 m 257
 1305.609375 0 l 257
 1506.609375 0 l 257
 2062.390625 1527 l 257
 1861.390625 1527 l 257
1213.95117188 1023 m 257
 1140.79296875 822 l 257
 1693.79296875 822 l 257
 1766.95117188 1023 l 257
 1213.95117188 1023 l 257
1117.95117188 1023 m 257
 745.609375 0 l 257
 946.609375 0 l 257
 1318.95117188 1023 l 257
 1117.95117188 1023 l 257
912.583984375 195 m 257
 841.609375 0 l 257
 1458.609375 0 l 257
 1529.58398438 195 l 257
 912.583984375 195 l 257
EndSplineSet
EndChar

StartChar: dagger
Encoding: 8224 8224 161
GlifName: dagger
Width: 1858
VWidth: 0
Flags: HW
LayerCount: 2
Fore
SplineSet
741.6640625 1251 m 257
 681.607421875 1086 l 257
 1287.60742188 1086 l 257
 1347.6640625 1251 l 257
 741.6640625 1251 l 257
1073.76171875 1548 m 257
 510.3359375 0 l 257
 655.3359375 0 l 257
 1218.76171875 1548 l 257
 1073.76171875 1548 l 257
EndSplineSet
EndChar

StartChar: daggerdbl
Encoding: 8225 8225 162
GlifName: daggerdbl
Width: 1858
VWidth: 0
Flags: HW
LayerCount: 2
Fore
SplineSet
627.376953125 937 m 257
 567.322265625 772 l 257
 1173.32226562 772 l 257
 1233.37695312 937 l 257
 627.376953125 937 l 257
741.6640625 1251 m 257
 681.607421875 1086 l 257
 1287.60742188 1086 l 257
 1347.6640625 1251 l 257
 741.6640625 1251 l 257
1073.76171875 1548 m 257
 510.3359375 0 l 257
 655.3359375 0 l 257
 1218.76171875 1548 l 257
 1073.76171875 1548 l 257
EndSplineSet
EndChar

StartChar: dcaron
Encoding: 271 271 163
GlifName: dcaron
Width: 3136
VWidth: 0
Flags: HW
LayerCount: 2
Fore
SplineSet
1943.03320312 1527 m 257
 1387.25 0 l 257
 1588.25 0 l 257
 2144.03320312 1527 l 257
 1943.03320312 1527 l 257
1295.59179688 1023 m 257
 1222.43359375 822 l 257
 1775.43359375 822 l 257
 1848.59179688 1023 l 257
 1295.59179688 1023 l 257
1199.59179688 1023 m 257
 827.25 0 l 257
 1028.25 0 l 257
 1400.59179688 1023 l 257
 1199.59179688 1023 l 257
994.224609375 195 m 257
 923.25 0 l 257
 1540.25 0 l 257
 1611.22460938 195 l 257
 994.224609375 195 l 257
2178.75 1496 m 257
 2094.30859375 1264 l 257
 2224.30859375 1264 l 257
 2308.75 1496 l 257
 2178.75 1496 l 257
EndSplineSet
EndChar

StartChar: dcroat
Encoding: 273 273 164
GlifName: dcroat
Width: 2930
VWidth: 0
Flags: HW
LayerCount: 2
Fore
SplineSet
1891.95703125 1527 m 257
 1336.17480469 0 l 257
 1537.17480469 0 l 257
 2092.95703125 1527 l 257
 1891.95703125 1527 l 257
1244.51660156 1023 m 257
 1171.35839844 822 l 257
 1724.35839844 822 l 257
 1797.51660156 1023 l 257
 1244.51660156 1023 l 257
1148.51660156 1023 m 257
 776.174804688 0 l 257
 977.174804688 0 l 257
 1349.51660156 1023 l 257
 1148.51660156 1023 l 257
943.149414062 195 m 257
 872.174804688 0 l 257
 1489.17480469 0 l 257
 1560.14941406 195 l 257
 943.149414062 195 l 257
1709.82519531 1403 m 257
 1636.66699219 1202 l 257
 2080.66699219 1202 l 257
 2153.82519531 1403 l 257
 1709.82519531 1403 l 257
EndSplineSet
EndChar

StartChar: degree
Encoding: 176 176 165
GlifName: degree
Width: 1180
VWidth: 0
Flags: HW
LayerCount: 2
Fore
SplineSet
537.9296875 1456 m 257
 685.9296875 1456 l 257
 638.615234375 1326 l 257
 490.615234375 1326 l 257
 537.9296875 1456 l 257
466.416015625 1548 m 257
 353.583984375 1238 l 257
 713.583984375 1238 l 257
 826.416015625 1548 l 257
 466.416015625 1548 l 257
EndSplineSet
EndChar

StartChar: dieresis
Encoding: 168 168 166
GlifName: dieresis
Width: 1020
VWidth: 0
Flags: HW
LayerCount: 2
Fore
SplineSet
351.380859375 1030 m 257
 314.619140625 929 l 257
 426.619140625 929 l 257
 463.380859375 1030 l 257
 351.380859375 1030 l 257
593.380859375 1030 m 257
 556.619140625 929 l 257
 668.619140625 929 l 257
 705.380859375 1030 l 257
 593.380859375 1030 l 257
EndSplineSet
EndChar

StartChar: divide
Encoding: 247 247 167
GlifName: divide
Width: 2008
VWidth: 0
Flags: HW
LayerCount: 2
Fore
SplineSet
792.271484375 430 m 257
 708.923828125 201 l 257
 956.923828125 201 l 257
 1040.27148438 430 l 257
 792.271484375 430 l 257
1082.7421875 1294 m 257
 992.841796875 1047 l 257
 1258.84179688 1047 l 257
 1348.7421875 1294 l 257
 1082.7421875 1294 l 257
628.853515625 808 m 257
 553.146484375 600 l 257
 1379.14648438 600 l 257
 1454.85351562 808 l 257
 628.853515625 808 l 257
EndSplineSet
EndChar

StartChar: dollar
Encoding: 36 36 168
GlifName: dollar
Width: 2438
VWidth: 0
Flags: HW
LayerCount: 2
Fore
SplineSet
1185.7109375 1537 m 257
 1120.56054688 1358 l 257
 1718.56054688 1358 l 257
 1783.7109375 1537 l 257
 1185.7109375 1537 l 257
1187.53125 1542 m 257
 1000.45019531 1028 l 257
 1205.45019531 1028 l 257
 1392.53125 1542 l 257
 1187.53125 1542 l 257
713.616210938 163 m 257
 654.2890625 0 l 257
 1362.2890625 0 l 257
 1421.61621094 163 l 257
 713.616210938 163 l 257
1192.2890625 0 m 257
 1398.2890625 0 l 257
 1527.49804688 355 l 257
 1321.49804688 355 l 257
 1192.2890625 0 l 257
1000.45019531 1028 m 257
 1321.49804688 355 l 257
 1527.49804688 355 l 257
 1205.45019531 1028 l 257
 1000.45019531 1028 l 257
1480.74414062 1636 m 257
 807.03515625 -215 l 257
 1021.03515625 -215 l 257
 1694.74414062 1636 l 257
 1480.74414062 1636 l 257
EndSplineSet
EndChar

StartChar: dotaccent
Encoding: 729 729 169
GlifName: dotaccent
Width: 676
VWidth: 0
Flags: HW
LayerCount: 2
Fore
SplineSet
281.48046875 1053 m 257
 226.51953125 902 l 257
 394.51953125 902 l 257
 449.48046875 1053 l 257
 281.48046875 1053 l 257
EndSplineSet
EndChar

StartChar: dotbelowcomb
Encoding: 803 803 170
GlifName: dotbelowcomb
Width: 1004
VWidth: 0
Flags: HW
LayerCount: 2
Fore
SplineSet
414.950195312 -204 m 257
 325.049804688 -451 l 257
 589.049804688 -451 l 257
 678.950195312 -204 l 257
 414.950195312 -204 l 257
EndSplineSet
EndChar

StartChar: dotlessi
Encoding: 305 305 171
GlifName: dotlessi
Width: 1852
VWidth: 0
Flags: HW
LayerCount: 2
Fore
SplineSet
1144.16894531 1018 m 257
 824.239257812 139 l 257
 1026.23925781 139 l 257
 1346.16894531 1018 l 257
 1144.16894531 1018 l 257
577.897460938 204 m 257
 505.831054688 6 l 257
 1247.83105469 6 l 257
 1319.89746094 204 l 257
 577.897460938 204 l 257
924.168945312 1018 m 257
 851.375 818 l 257
 1227.375 818 l 257
 1300.16894531 1018 l 257
 924.168945312 1018 l 257
EndSplineSet
EndChar

StartChar: e
Encoding: 101 101 172
GlifName: e
Width: 2286
VWidth: 0
Flags: HW
LayerCount: 2
Fore
SplineSet
1036.67089844 1023 m 257
 959.873046875 812 l 257
 1594.87304688 812 l 257
 1671.67089844 1023 l 257
 1036.67089844 1023 l 257
986.670898438 1023 m 257
 614.329101562 0 l 257
 816.329101562 0 l 257
 1188.67089844 1023 l 257
 986.670898438 1023 l 257
789.487304688 201 m 257
 716.329101562 0 l 257
 1298.32910156 0 l 257
 1371.48730469 201 l 257
 789.487304688 201 l 257
911.810546875 625 m 257
 846.66015625 446 l 257
 1436.66015625 446 l 257
 1501.81054688 625 l 257
 911.810546875 625 l 257
1463.75195312 993 m 257
 1264.29589844 445 l 257
 1459.29589844 445 l 257
 1658.75195312 993 l 257
 1463.75195312 993 l 257
EndSplineSet
EndChar

StartChar: eight
Encoding: 56 56 180
GlifName: eight
Width: 3140
VWidth: 0
Flags: HW
LayerCount: 2
Fore
SplineSet
1395.21289062 1548 m 257
 831.787109375 0 l 257
 1744.78710938 0 l 257
 2308.21289062 1548 l 257
 1395.21289062 1548 l 257
1819.04003906 759 m 257
 1614.48925781 197 l 257
 1107.48925781 197 l 257
 1312.04003906 759 l 257
 1819.04003906 759 l 257
1892.83496094 959 m 257
 1384.83496094 959 l 257
 1527.14648438 1350 l 257
 2035.14648438 1350 l 257
 1892.83496094 959 l 257
EndSplineSet
EndChar

StartChar: ellipsis
Encoding: 8230 8230 181
GlifName: ellipsis
Width: 1662
VWidth: 0
Flags: HW
LayerCount: 2
Fore
SplineSet
519.74609375 114 m 257
 478.25390625 0 l 257
 620.25390625 0 l 257
 661.74609375 114 l 257
 519.74609375 114 l 257
775.74609375 114 m 257
 734.25390625 0 l 257
 878.25390625 0 l 257
 919.74609375 114 l 257
 775.74609375 114 l 257
1041.74609375 114 m 257
 1000.25390625 0 l 257
 1142.25390625 0 l 257
 1183.74609375 114 l 257
 1041.74609375 114 l 257
EndSplineSet
EndChar

StartChar: emdash
Encoding: 8212 8212 183
GlifName: emdash
Width: 2432
VWidth: 0
Flags: HW
LayerCount: 2
Fore
SplineSet
666.146484375 600 m 257
 1690.14648438 600 l 257
 1765.85351562 808 l 257
 741.853515625 808 l 257
 666.146484375 600 l 257
EndSplineSet
EndChar

StartChar: endash
Encoding: 8211 8211 184
GlifName: endash
Width: 2036
VWidth: 0
Flags: HW
LayerCount: 2
Fore
SplineSet
567.146484375 600 m 257
 1393.14648438 600 l 257
 1468.85351562 808 l 257
 642.853515625 808 l 257
 567.146484375 600 l 257
EndSplineSet
EndChar

StartChar: eng
Encoding: 331 331 185
GlifName: eng
Width: 2114
VWidth: 0
Flags: HW
LayerCount: 2
Fore
SplineSet
706.53125 -211 m 257
 634.829101562 -408 l 257
 1021.82910156 -408 l 257
 1093.53125 -211 l 257
 706.53125 -211 l 257
931.659179688 990 m 257
 571.329101562 0 l 257
 772.329101562 0 l 257
 1132.65917969 990 l 257
 931.659179688 990 l 257
1325.56445312 976 m 257
 821.829101562 -408 l 257
 1022.82910156 -408 l 257
 1526.56445312 976 l 257
 1325.56445312 976 l 257
764.670898438 1023 m 257
 692.96875 826 l 257
 1470.96875 826 l 257
 1542.67089844 1023 l 257
 764.670898438 1023 l 257
EndSplineSet
EndChar

StartChar: equal
Encoding: 61 61 187
GlifName: equal
Width: 2264
VWidth: 0
Flags: HW
LayerCount: 2
Fore
SplineSet
826.639648438 914 m 257
 757.485351562 724 l 257
 1573.48535156 724 l 257
 1642.63964844 914 l 257
 826.639648438 914 l 257
690.514648438 540 m 257
 621.360351562 350 l 257
 1437.36035156 350 l 257
 1506.51464844 540 l 257
 690.514648438 540 l 257
EndSplineSet
EndChar

StartChar: eth
Encoding: 240 240 188
GlifName: eth
Width: 2326
VWidth: 0
Flags: HW
LayerCount: 2
Fore
SplineSet
1297.234375 1548 m 257
 1184.80859375 0 l 257
 1385.80859375 0 l 257
 1498.234375 1548 l 257
 1297.234375 1548 l 257
1093.15039062 1023 m 257
 1019.9921875 822 l 257
 1360.9921875 822 l 257
 1434.15039062 1023 l 257
 1093.15039062 1023 l 257
997.150390625 1023 m 257
 624.80859375 0 l 257
 825.80859375 0 l 257
 1198.15039062 1023 l 257
 997.150390625 1023 l 257
791.783203125 195 m 257
 720.80859375 0 l 257
 1337.80859375 0 l 257
 1408.78320312 195 l 257
 791.783203125 195 l 257
1169.19140625 1416 m 257
 1101.12890625 1229 l 257
 1633.12890625 1229 l 257
 1701.19140625 1416 l 257
 1169.19140625 1416 l 257
EndSplineSet
EndChar

StartChar: exclam
Encoding: 33 33 189
GlifName: exclam
Width: 1562
VWidth: 0
Flags: HW
LayerCount: 2
Fore
SplineSet
438.4765625 17 m 257
 582.4765625 17 l 257
 672.741210938 265 l 257
 528.741210938 265 l 257
 438.4765625 17 l 257
625.001953125 502 m 257
 753.001953125 502 l 257
 1123.5234375 1520 l 257
 995.5234375 1520 l 257
 625.001953125 502 l 257
EndSplineSet
EndChar

StartChar: exclamdown
Encoding: 161 161 190
GlifName: exclamdown
Width: 1562
VWidth: 0
Flags: HW
LayerCount: 2
Fore
SplineSet
1123.5234375 1520 m 257
 979.5234375 1520 l 257
 889.258789062 1272 l 257
 1033.25878906 1272 l 257
 1123.5234375 1520 l 257
936.998046875 1035 m 257
 808.998046875 1035 l 257
 438.4765625 17 l 257
 566.4765625 17 l 257
 936.998046875 1035 l 257
EndSplineSet
EndChar

StartChar: f
Encoding: 102 102 191
GlifName: f
Width: 2300
VWidth: 0
Flags: HW
LayerCount: 2
Fore
SplineSet
1138.05664062 1023 m 257
 617.943359375 -406 l 257
 817.943359375 -406 l 257
 1338.05664062 1023 l 257
 1138.05664062 1023 l 257
1200.05664062 1023 m 257
 1130.17382812 831 l 257
 1612.17382812 831 l 257
 1682.05664062 1023 l 257
 1200.05664062 1023 l 257
785.173828125 559 m 257
 711.288085938 356 l 257
 1342.28808594 356 l 257
 1416.17382812 559 l 257
 785.173828125 559 l 257
EndSplineSet
EndChar

StartChar: five
Encoding: 53 53 192
GlifName: five
Width: 3170
VWidth: 0
Flags: HW
LayerCount: 2
Fore
SplineSet
1828.54003906 759 m 257
 1624.35351562 198 l 257
 911.353515625 198 l 257
 839.287109375 0 l 257
 1757.28710938 0 l 257
 2106.33496094 959 l 257
 1389.33496094 959 l 257
 1532.375 1352 l 257
 2259.375 1352 l 257
 2330.71289062 1548 l 257
 1403.71289062 1548 l 257
 1116.54003906 759 l 257
 1828.54003906 759 l 257
EndSplineSet
EndChar

StartChar: four
Encoding: 52 52 193
GlifName: four
Width: 2438
VWidth: 0
Flags: HW
LayerCount: 2
Fore
SplineSet
656.77734375 761 m 257
 1298.77734375 761 l 257
 1024.34375 7 l 257
 1220.34375 7 l 257
 1781.22265625 1548 l 257
 1582.22265625 1548 l 257
 1368.57226562 961 l 257
 929.572265625 961 l 257
 1143.22265625 1548 l 257
 943.22265625 1548 l 257
 656.77734375 761 l 257
EndSplineSet
EndChar

StartChar: g
Encoding: 103 103 194
GlifName: g
Width: 2386
VWidth: 0
Flags: HW
LayerCount: 2
Fore
SplineSet
1168.33007812 1023 m 257
 795.98828125 0 l 257
 987.98828125 0 l 257
 1360.33007812 1023 l 257
 1168.33007812 1023 l 257
1208.33007812 1023 m 257
 1135.53710938 823 l 257
 1651.53710938 823 l 257
 1724.33007812 1023 l 257
 1208.33007812 1023 l 257
1552.33007812 1023 m 257
 1030.39648438 -411 l 257
 1224.39648438 -411 l 257
 1746.33007812 1023 l 257
 1552.33007812 1023 l 257
931.0546875 198 m 257
 858.98828125 0 l 257
 1315.98828125 0 l 257
 1388.0546875 198 l 257
 931.0546875 198 l 257
712.099609375 -214 m 257
 639.669921875 -413 l 257
 1174.66992188 -413 l 257
 1247.09960938 -214 l 257
 712.099609375 -214 l 257
EndSplineSet
EndChar

StartChar: germandbls
Encoding: 223 223 198
GlifName: germandbls
Width: 2670
VWidth: 0
Flags: HW
LayerCount: 2
Fore
SplineSet
969.194335938 1221 m 257
 897.12890625 1023 l 257
 1148.12890625 1023 l 257
 1220.19433594 1221 l 257
 969.194335938 1221 l 257
1274.21289062 1548 m 257
 710.787109375 0 l 257
 916.787109375 0 l 257
 1480.21289062 1548 l 257
 1274.21289062 1548 l 257
1480.21289062 1548 m 257
 1400.13964844 1328 l 257
 1795.13964844 1328 l 257
 1875.21289062 1548 l 257
 1480.21289062 1548 l 257
1760.21289062 1548 m 257
 1569.12890625 1023 l 257
 1768.12890625 1023 l 257
 1959.21289062 1548 l 257
 1760.21289062 1548 l 257
1583.32324219 1062 m 257
 1383.32324219 1062 l 257
 1297.42675781 826 l 257
 1497.42675781 826 l 257
 1583.32324219 1062 l 257
1505.43359375 848 m 257
 1260.48144531 175 l 257
 1460.48144531 175 l 257
 1705.43359375 848 l 257
 1505.43359375 848 l 257
1145.14355469 251 m 257
 1068.34570312 40 l 257
 1411.34570312 40 l 257
 1488.14355469 251 l 257
 1145.14355469 251 l 257
EndSplineSet
EndChar

StartChar: glyph094D
Encoding: 65536 -1 199
GlifName: glyph094D_
Width: 1524
VWidth: 0
Flags: HW
LayerCount: 2
Fore
SplineSet
522.508789062 -22 m 257
 451.170898438 -218 l 257
 808.170898438 -218 l 257
 879.508789062 -22 l 257
 522.508789062 -22 l 257
679.91015625 -183 m 257
 869.501953125 -588 l 257
 1072.82910156 -425 l 257
 881.873046875 -21 l 257
 679.91015625 -183 l 257
EndSplineSet
EndChar

StartChar: grave
Encoding: 96 96 200
GlifName: grave
Width: 652
VWidth: 0
Flags: HW
LayerCount: 2
Fore
SplineSet
220.673828125 1358 m 257
 256.119140625 1057 l 257
 431.326171875 1129 l 257
 394.880859375 1430 l 257
 220.673828125 1358 l 257
EndSplineSet
EndChar

StartChar: gravecomb
Encoding: 768 768 201
GlifName: gravecomb
Width: 596
VWidth: 0
Flags: HW
LayerCount: 2
Fore
SplineSet
227.078125 2107 m 257
 261.1796875 1871 l 257
 368.921875 1917 l 257
 336.18359375 2154 l 257
 227.078125 2107 l 257
EndSplineSet
EndChar

StartChar: greater
Encoding: 62 62 202
GlifName: greater
Width: 2328
VWidth: 0
Flags: HW
LayerCount: 2
Fore
SplineSet
1693.20019531 777 m 257
 957.09765625 1013 l 257
 882.119140625 807 l 257
 1619.13085938 568 l 257
 1693.20019531 777 l 257
1693.20019531 777 m 257
 706.501953125 319 l 257
 634.799804688 122 l 257
 1619.13085938 568 l 257
 1693.20019531 777 l 257
EndSplineSet
EndChar

StartChar: guillemotleft
Encoding: 171 171 203
GlifName: guillemotleft
Width: 2028
VWidth: 0
Flags: HW
LayerCount: 2
Fore
SplineSet
618.361328125 609 m 257
 561.9453125 454 l 257
 995.3671875 631 l 257
 1051.0546875 784 l 257
 618.361328125 609 l 257
618.361328125 609 m 257
 561.9453125 454 l 257
 809.107421875 122 l 257
 862.24609375 268 l 257
 618.361328125 609 l 257
1033.36132812 609 m 257
 976.9453125 454 l 257
 1410.3671875 631 l 257
 1466.0546875 784 l 257
 1033.36132812 609 l 257
1033.36132812 609 m 257
 976.9453125 454 l 257
 1224.10742188 122 l 257
 1277.24609375 268 l 257
 1033.36132812 609 l 257
EndSplineSet
EndChar

StartChar: guillemotright
Encoding: 187 187 204
GlifName: guillemotright
Width: 2140
VWidth: 0
Flags: HW
LayerCount: 2
Fore
SplineSet
1550.12695312 609 m 257
 1244.82128906 784 l 257
 1189.13378906 631 l 257
 1493.7109375 454 l 257
 1550.12695312 609 l 257
1550.12695312 609 m 257
 1058.01269531 268 l 257
 1004.87304688 122 l 257
 1493.7109375 454 l 257
 1550.12695312 609 l 257
1135.12695312 609 m 257
 829.821289062 784 l 257
 774.133789062 631 l 257
 1078.7109375 454 l 257
 1135.12695312 609 l 257
1135.12695312 609 m 257
 643.012695312 268 l 257
 589.873046875 122 l 257
 1078.7109375 454 l 257
 1135.12695312 609 l 257
EndSplineSet
EndChar

StartChar: guilsinglleft
Encoding: 8249 8249 205
GlifName: guilsinglleft
Width: 2174
VWidth: 0
Flags: HW
LayerCount: 2
Fore
SplineSet
672.904296875 777 m 257
 597.198242188 569 l 257
 1501.82324219 807 l 257
 1576.80175781 1013 l 257
 672.904296875 777 l 257
672.904296875 777 m 257
 597.198242188 569 l 257
 1250.50390625 122 l 257
 1322.20605469 319 l 257
 672.904296875 777 l 257
EndSplineSet
EndChar

StartChar: guilsinglright
Encoding: 8250 8250 206
GlifName: guilsinglright
Width: 2328
VWidth: 0
Flags: HW
LayerCount: 2
Fore
SplineSet
1693.20019531 777 m 257
 957.09765625 1013 l 257
 882.119140625 807 l 257
 1619.13085938 568 l 257
 1693.20019531 777 l 257
1693.20019531 777 m 257
 706.501953125 319 l 257
 634.799804688 122 l 257
 1619.13085938 568 l 257
 1693.20019531 777 l 257
EndSplineSet
EndChar

StartChar: h
Encoding: 104 104 207
GlifName: h
Width: 2264
VWidth: 0
Flags: HW
LayerCount: 2
Fore
SplineSet
1166.15917969 1537 m 257
 608.920898438 6 l 257
 808.920898438 6 l 257
 1366.15917969 1537 l 257
 1166.15917969 1537 l 257
1116.07910156 1023 m 257
 1044.37695312 826 l 257
 1575.37695312 826 l 257
 1647.07910156 1023 l 257
 1116.07910156 1023 l 257
1456.07910156 1023 m 257
 1083.73730469 0 l 257
 1282.73730469 0 l 257
 1655.07910156 1023 l 257
 1456.07910156 1023 l 257
EndSplineSet
EndChar

StartChar: hbar
Encoding: 295 295 208
GlifName: hbar
Width: 2264
VWidth: 0
Flags: HW
LayerCount: 2
Fore
SplineSet
1166.15917969 1537 m 257
 608.920898438 6 l 257
 808.920898438 6 l 257
 1366.15917969 1537 l 257
 1166.15917969 1537 l 257
1116.07910156 1023 m 257
 1044.37695312 826 l 257
 1575.37695312 826 l 257
 1647.07910156 1023 l 257
 1116.07910156 1023 l 257
1456.07910156 1023 m 257
 1083.73730469 0 l 257
 1282.73730469 0 l 257
 1655.07910156 1023 l 257
 1456.07910156 1023 l 257
990.850585938 1429 m 257
 915.14453125 1221 l 257
 1371.14453125 1221 l 257
 1446.85058594 1429 l 257
 990.850585938 1429 l 257
EndSplineSet
EndChar

StartChar: hookabovecomb
Encoding: 777 777 210
GlifName: hookabovecomb
Width: 1394
VWidth: 0
Flags: HW
LayerCount: 2
Fore
SplineSet
529.279296875 1774 m 257
 465.583984375 1599 l 257
 920.583984375 1599 l 257
 984.279296875 1774 l 257
 529.279296875 1774 l 257
782.279296875 1774 m 257
 657.80078125 1432 l 257
 864.80078125 1432 l 257
 989.279296875 1774 l 257
 782.279296875 1774 l 257
500.444335938 1453 m 257
 440.389648438 1288 l 257
 811.389648438 1288 l 257
 871.444335938 1453 l 257
 500.444335938 1453 l 257
500.444335938 1453 m 257
 404.720703125 1190 l 257
 585.720703125 1190 l 257
 681.444335938 1453 l 257
 500.444335938 1453 l 257
EndSplineSet
EndChar

StartChar: hungarumlaut
Encoding: 733 733 211
GlifName: hungarumlaut
Width: 1500
VWidth: 0
Flags: HW
LayerCount: 2
Fore
SplineSet
432.8671875 122 m 257
 576.8671875 122 l 257
 667.1328125 370 l 257
 523.1328125 370 l 257
 432.8671875 122 l 257
832.8671875 122 m 257
 976.8671875 122 l 257
 1067.1328125 370 l 257
 923.1328125 370 l 257
 832.8671875 122 l 257
EndSplineSet
EndChar

StartChar: hyphen
Encoding: 45 45 212
GlifName: hyphen
Width: 2036
VWidth: 0
Flags: HW
LayerCount: 2
Fore
SplineSet
642.853515625 808 m 257
 567.146484375 600 l 257
 1393.14648438 600 l 257
 1468.85351562 808 l 257
 642.853515625 808 l 257
EndSplineSet
EndChar

StartChar: i
Encoding: 105 105 213
GlifName: i
Width: 1972
VWidth: 0
Flags: HW
LayerCount: 2
Fore
SplineSet
1174.29199219 1018 m 257
 854.362304688 139 l 257
 1056.36230469 139 l 257
 1376.29199219 1018 l 257
 1174.29199219 1018 l 257
608.020507812 204 m 257
 535.954101562 6 l 257
 1277.95410156 6 l 257
 1350.02050781 204 l 257
 608.020507812 204 l 257
1238.04589844 1369 m 257
 1164.88769531 1168 l 257
 1362.88769531 1168 l 257
 1436.04589844 1369 l 257
 1238.04589844 1369 l 257
954.291992188 1018 m 257
 881.498046875 818 l 257
 1257.49804688 818 l 257
 1330.29199219 1018 l 257
 954.291992188 1018 l 257
EndSplineSet
EndChar

StartChar: j
Encoding: 106 106 223
GlifName: j
Width: 2744
VWidth: 0
Flags: HW
LayerCount: 2
Fore
SplineSet
1679.58203125 1023 m 257
 1157.6484375 -411 l 257
 1356.6484375 -411 l 257
 1878.58203125 1023 l 257
 1679.58203125 1023 l 257
801.171875 -209 m 257
 729.46875 -406 l 257
 1259.46875 -406 l 257
 1331.171875 -209 l 257
 801.171875 -209 l 257
876.056640625 -6 m 257
 750.486328125 -351 l 257
 950.486328125 -351 l 257
 1076.05664062 -6 l 257
 876.056640625 -6 l 257
1813.53125 1413 m 257
 1741.1015625 1214 l 257
 1942.1015625 1214 l 257
 2014.53125 1413 l 257
 1813.53125 1413 l 257
EndSplineSet
EndChar

StartChar: k
Encoding: 107 107 225
GlifName: k
Width: 2484
VWidth: 0
Flags: HW
LayerCount: 2
Fore
SplineSet
1221.84082031 1537 m 257
 664.239257812 5 l 257
 864.239257812 5 l 257
 1421.84082031 1537 l 257
 1221.84082031 1537 l 257
899.227539062 516 m 257
 868.881835938 298 l 257
 1819.76074219 1023 l 257
 1602.76074219 1023 l 257
 899.227539062 516 l 257
1198.08398438 631 m 257
 992.216796875 483 l 257
 1266.41894531 0 l 257
 1504.41894531 0 l 257
 1198.08398438 631 l 257
EndSplineSet
EndChar

StartChar: l
Encoding: 108 108 226
GlifName: l
Width: 2128
VWidth: 0
Flags: HW
LayerCount: 2
Fore
SplineSet
648.21875 209 m 257
 575.424804688 9 l 257
 1209.42480469 9 l 257
 1282.21875 209 l 257
 648.21875 209 l 257
1352.57519531 1548 m 257
 820.451171875 86 l 257
 1020.45117188 86 l 257
 1552.57519531 1548 l 257
 1352.57519531 1548 l 257
1196.57519531 1548 m 257
 1124.14550781 1349 l 257
 1359.14550781 1349 l 257
 1431.57519531 1548 l 257
 1196.57519531 1548 l 257
EndSplineSet
EndChar

StartChar: lcaron
Encoding: 318 318 228
GlifName: lcaron
Width: 2510
VWidth: 0
Flags: HW
LayerCount: 2
Fore
SplineSet
743.681640625 209 m 257
 670.888671875 9 l 257
 1304.88867188 9 l 257
 1377.68164062 209 l 257
 743.681640625 209 l 257
1448.0390625 1548 m 257
 915.9140625 86 l 257
 1115.9140625 86 l 257
 1648.0390625 1548 l 257
 1448.0390625 1548 l 257
1292.0390625 1548 m 257
 1219.609375 1349 l 257
 1454.609375 1349 l 257
 1527.0390625 1548 l 257
 1292.0390625 1548 l 257
1709.11132812 1496 m 257
 1624.671875 1264 l 257
 1754.671875 1264 l 257
 1839.11132812 1496 l 257
 1709.11132812 1496 l 257
EndSplineSet
EndChar

StartChar: less
Encoding: 60 60 230
GlifName: less
Width: 2174
VWidth: 0
Flags: HW
LayerCount: 2
Fore
SplineSet
672.904296875 777 m 257
 597.198242188 569 l 257
 1501.82324219 807 l 257
 1576.80175781 1013 l 257
 672.904296875 777 l 257
672.904296875 777 m 257
 597.198242188 569 l 257
 1250.50390625 122 l 257
 1322.20605469 319 l 257
 672.904296875 777 l 257
EndSplineSet
EndChar

StartChar: logicalnot
Encoding: 172 172 231
GlifName: logicalnot
Width: 1398
VWidth: 0
Flags: HW
LayerCount: 2
Fore
SplineSet
872.19921875 935 m 257
 764.828125 640 l 257
 874.828125 640 l 257
 982.19921875 935 l 257
 872.19921875 935 l 257
442.19921875 935 m 257
 405.80078125 835 l 257
 955.80078125 835 l 257
 992.19921875 935 l 257
 442.19921875 935 l 257
EndSplineSet
EndChar

StartChar: lslash
Encoding: 322 322 232
GlifName: lslash
Width: 2366
VWidth: 0
Flags: HW
LayerCount: 2
Fore
SplineSet
707.349609375 209 m 257
 634.5546875 9 l 257
 1268.5546875 9 l 257
 1341.34960938 209 l 257
 707.349609375 209 l 257
1411.70507812 1548 m 257
 879.58203125 86 l 257
 1079.58203125 86 l 257
 1611.70507812 1548 l 257
 1411.70507812 1548 l 257
1255.70507812 1548 m 257
 1183.27539062 1349 l 257
 1418.27539062 1349 l 257
 1490.70507812 1548 l 257
 1255.70507812 1548 l 257
1692.77539062 1213 m 257
 850.375 830 l 257
 889.044921875 656 l 257
 1731.4453125 1039 l 257
 1692.77539062 1213 l 257
EndSplineSet
EndChar

StartChar: m
Encoding: 109 109 233
GlifName: m
Width: 2574
VWidth: 0
Flags: HW
LayerCount: 2
Fore
SplineSet
1047.75195312 993 m 257
 686.329101562 0 l 257
 886.329101562 0 l 257
 1247.75195312 993 l 257
 1047.75195312 993 l 257
1355.10839844 972 m 257
 1001.32910156 0 l 257
 1201.32910156 0 l 257
 1555.10839844 972 l 257
 1355.10839844 972 l 257
1671.56445312 976 m 257
 1316.32910156 0 l 257
 1516.32910156 0 l 257
 1871.56445312 976 l 257
 1671.56445312 976 l 257
981.670898438 1023 m 257
 909.96875 826 l 257
 1815.96875 826 l 257
 1887.67089844 1023 l 257
 981.670898438 1023 l 257
EndSplineSet
EndChar

StartChar: macron
Encoding: 175 175 234
GlifName: macron
Width: 1418
VWidth: 0
Flags: HW
LayerCount: 2
Fore
SplineSet
443.376953125 1023 m 257
 414.623046875 944 l 257
 974.623046875 944 l 257
 1003.37695312 1023 l 257
 443.376953125 1023 l 257
EndSplineSet
EndChar

StartChar: mu
Encoding: 181 181 236
GlifName: mu
Width: 2490
VWidth: 0
Flags: HW
LayerCount: 2
Fore
SplineSet
1705.91015625 935 m 257
 1365.59765625 0 l 257
 1475.59765625 0 l 257
 1815.91015625 935 l 257
 1705.91015625 935 l 257
974.2734375 120 m 257
 930.59765625 0 l 257
 1445.59765625 0 l 257
 1489.2734375 120 l 257
 974.2734375 120 l 257
1170.91015625 935 m 257
 674.08984375 -430 l 257
 769.08984375 -430 l 257
 1265.91015625 935 l 257
 1170.91015625 935 l 257
EndSplineSet
EndChar

StartChar: multiply
Encoding: 215 215 237
GlifName: multiply
Width: 2622
VWidth: 0
Flags: HW
LayerCount: 2
Fore
SplineSet
707.193359375 302 m 257
 908.193359375 302 l 257
 1914.80664062 1323 l 257
 1715.80664062 1323 l 257
 707.193359375 302 l 257
1081.53515625 1325 m 257
 1349.73730469 298 l 257
 1548.73730469 298 l 257
 1283.53515625 1325 l 257
 1081.53515625 1325 l 257
EndSplineSet
EndChar

StartChar: n
Encoding: 110 110 238
GlifName: n
Width: 2114
VWidth: 0
Flags: HW
LayerCount: 2
Fore
SplineSet
931.659179688 990 m 257
 571.329101562 0 l 257
 772.329101562 0 l 257
 1132.65917969 990 l 257
 931.659179688 990 l 257
1325.56445312 976 m 257
 970.329101562 0 l 257
 1171.32910156 0 l 257
 1526.56445312 976 l 257
 1325.56445312 976 l 257
764.670898438 1023 m 257
 692.96875 826 l 257
 1470.96875 826 l 257
 1542.67089844 1023 l 257
 764.670898438 1023 l 257
EndSplineSet
EndChar

StartChar: nine
Encoding: 57 57 241
GlifName: nine
Width: 3116
VWidth: 0
Flags: HW
LayerCount: 2
Fore
SplineSet
1804.44824219 759 m 257
 1600.98925781 200 l 257
 898.989257812 200 l 257
 826.1953125 0 l 257
 1724.1953125 0 l 257
 2289.8046875 1554 l 257
 1369.8046875 1554 l 257
 1363.6171875 1537 l 257
 1080.44824219 759 l 257
 1804.44824219 759 l 257
1874.24316406 959 m 257
 1353.24316406 959 l 257
 1497.01074219 1354 l 257
 2018.01074219 1354 l 257
 1874.24316406 959 l 257
EndSplineSet
EndChar

StartChar: numbersign
Encoding: 35 35 243
GlifName: numbersign
Width: 2250
VWidth: 0
Flags: HW
LayerCount: 2
Fore
SplineSet
1017.97558594 1347 m 257
 641.630859375 313 l 257
 781.630859375 313 l 257
 1157.97558594 1347 l 257
 1017.97558594 1347 l 257
1429.06738281 1350 m 257
 1039.25585938 279 l 257
 1207.25585938 279 l 257
 1597.06738281 1350 l 257
 1429.06738281 1350 l 257
818.821289062 1157 m 257
 765.318359375 1010 l 257
 1583.31835938 1010 l 257
 1636.82128906 1157 l 257
 818.821289062 1157 l 257
676.873046875 767 m 257
 613.178710938 592 l 257
 1441.17871094 592 l 257
 1504.87304688 767 l 257
 676.873046875 767 l 257
EndSplineSet
EndChar

StartChar: o
Encoding: 111 111 244
GlifName: o
Width: 2550
VWidth: 0
Flags: HW
LayerCount: 2
Fore
SplineSet
1052.67089844 1023 m 257
 680.329101562 0 l 257
 880.329101562 0 l 257
 1252.67089844 1023 l 257
 1052.67089844 1023 l 257
1667.67089844 1023 m 257
 1295.32910156 0 l 257
 1497.32910156 0 l 257
 1869.67089844 1023 l 257
 1667.67089844 1023 l 257
1175.67089844 1023 m 257
 1102.51269531 822 l 257
 1688.51269531 822 l 257
 1761.67089844 1023 l 257
 1175.67089844 1023 l 257
880.123046875 200 m 257
 807.329101562 0 l 257
 1379.32910156 0 l 257
 1452.12304688 200 l 257
 880.123046875 200 l 257
EndSplineSet
EndChar

StartChar: oe
Encoding: 339 339 249
GlifName: oe
Width: 2708
VWidth: 0
Flags: HW
LayerCount: 2
Fore
SplineSet
1448.58984375 645 m 257
 1376.16015625 446 l 257
 1603.16015625 446 l 257
 1675.58984375 645 l 257
 1448.58984375 645 l 257
1788.17089844 1023 m 257
 1577.79589844 445 l 257
 1777.79589844 445 l 257
 1988.17089844 1023 l 257
 1788.17089844 1023 l 257
1092.17089844 1023 m 257
 719.829101562 0 l 257
 919.829101562 0 l 257
 1292.17089844 1023 l 257
 1092.17089844 1023 l 257
1440.17089844 1023 m 257
 1067.82910156 0 l 257
 1267.82910156 0 l 257
 1640.17089844 1023 l 257
 1440.17089844 1023 l 257
1147.17089844 1023 m 257
 1074.37695312 823 l 257
 1775.37695312 823 l 257
 1848.17089844 1023 l 257
 1147.17089844 1023 l 257
838.623046875 200 m 257
 765.829101562 0 l 257
 1615.82910156 0 l 257
 1688.62304688 200 l 257
 838.623046875 200 l 257
EndSplineSet
EndChar

StartChar: ogonek
Encoding: 731 731 250
GlifName: ogonek
Width: 1658
VWidth: 0
Flags: HW
LayerCount: 2
Fore
SplineSet
527.0625 -288 m 257
 484.114257812 -406 l 257
 1026.11425781 -406 l 257
 1069.0625 -288 l 257
 527.0625 -288 l 257
631.885742188 0 m 257
 484.114257812 -406 l 257
 602.114257812 -406 l 257
 749.885742188 0 l 257
 631.885742188 0 l 257
631.885742188 0 m 257
 587.845703125 -121 l 257
 1129.84570312 -121 l 257
 1173.88574219 0 l 257
 631.885742188 0 l 257
EndSplineSet
EndChar

StartChar: one
Encoding: 49 49 254
GlifName: one
Width: 1712
VWidth: 0
Flags: HW
LayerCount: 2
Fore
SplineSet
474.787109375 0 m 257
 673.787109375 0 l 257
 1237.21289062 1548 l 257
 1038.21289062 1548 l 257
 474.787109375 0 l 257
1042.21289062 1548 m 257
 736.477539062 1252 l 257
 850.081054688 1152 l 257
 1156.1796875 1449 l 257
 1042.21289062 1548 l 257
EndSplineSet
EndChar

StartChar: onehalf
Encoding: 189 189 255
GlifName: onehalf
Width: 2726
VWidth: 0
Flags: HW
LayerCount: 2
Fore
SplineSet
1834.84375 1483 m 257
 727.259765625 6 l 257
 891.15625 -30 l 257
 1998.74023438 1447 l 257
 1834.84375 1483 l 257
1204.18164062 863 m 257
 1287.18164062 863 l 257
 1536.50195312 1548 l 257
 1453.50195312 1548 l 257
 1204.18164062 863 l 257
1455.50195312 1548 m 257
 1326.54882812 1419 l 257
 1372.16992188 1374 l 257
 1502.21484375 1506 l 257
 1455.50195312 1548 l 257
1465.54882812 603 m 257
 1664.54882812 603 l 257
 1593.2109375 407 l 257
 1396.2109375 407 l 257
 1248.07617188 0 l 257
 1505.07617188 0 l 257
 1537.83203125 90 l 257
 1346.83203125 90 l 257
 1429.45507812 317 l 257
 1625.45507812 317 l 257
 1762.30664062 693 l 257
 1498.30664062 693 l 257
 1465.54882812 603 l 257
EndSplineSet
EndChar

StartChar: onequarter
Encoding: 188 188 256
GlifName: onequarter
Width: 2636
VWidth: 0
Flags: HW
LayerCount: 2
Fore
SplineSet
1827.51757812 1480 m 257
 705.482421875 10 l 257
 808.482421875 10 l 257
 1930.51757812 1480 l 257
 1827.51757812 1480 l 257
1310.19140625 1045 m 257
 1364.19140625 1045 l 257
 1547.26757812 1548 l 257
 1493.26757812 1548 l 257
 1310.19140625 1045 l 257
1498.26757812 1548 m 257
 1344.59179688 1428 l 257
 1351.125 1391 l 257
 1523.26367188 1537 l 257
 1498.26757812 1548 l 257
1328.78710938 379 m 257
 1633.78710938 379 l 257
 1498.390625 7 l 257
 1557.390625 7 l 257
 1834.37109375 768 l 257
 1774.37109375 768 l 257
 1656.80859375 445 l 257
 1411.80859375 445 l 257
 1530.09960938 770 l 257
 1471.09960938 770 l 257
 1328.78710938 379 l 257
EndSplineSet
EndChar

StartChar: ordfeminine
Encoding: 170 170 257
GlifName: ordfeminine
Width: 2688
VWidth: 0
Flags: HW
LayerCount: 2
Fore
SplineSet
1285.85742188 1319 m 257
 1213.0625 1119 l 257
 1819.0625 1119 l 257
 1891.85742188 1319 l 257
 1285.85742188 1319 l 257
1779.22070312 1320 m 257
 1406.515625 296 l 257
 1600.515625 296 l 257
 1973.22070312 1320 l 257
 1779.22070312 1320 l 257
1135.16992188 894 m 257
 1062.73828125 695 l 257
 1686.73828125 695 l 257
 1759.16992188 894 l 257
 1135.16992188 894 l 257
1126.43359375 870 m 257
 916.423828125 293 l 257
 1117.42382812 293 l 257
 1327.43359375 870 l 257
 1126.43359375 870 l 257
988.30859375 496 m 257
 915.515625 296 l 257
 1605.515625 296 l 257
 1678.30859375 496 l 257
 988.30859375 496 l 257
773.7421875 162 m 257
 714.779296875 0 l 257
 1582.77929688 0 l 257
 1641.7421875 162 l 257
 773.7421875 162 l 257
EndSplineSet
EndChar

StartChar: ordmasculine
Encoding: 186 186 258
GlifName: ordmasculine
Width: 2868
VWidth: 0
Flags: HW
LayerCount: 2
Fore
SplineSet
1290.92089844 1023 m 257
 918.579101562 0 l 257
 1118.57910156 0 l 257
 1490.92089844 1023 l 257
 1290.92089844 1023 l 257
1905.92089844 1023 m 257
 1533.57910156 0 l 257
 1735.57910156 0 l 257
 2107.92089844 1023 l 257
 1905.92089844 1023 l 257
1413.92089844 1023 m 257
 1340.76269531 822 l 257
 1926.76269531 822 l 257
 1999.92089844 1023 l 257
 1413.92089844 1023 l 257
1118.37304688 200 m 257
 1045.57910156 0 l 257
 1617.57910156 0 l 257
 1690.37304688 200 l 257
 1118.37304688 200 l 257
784.1015625 -70 m 257
 760.079101562 -136 l 257
 1784.07910156 -136 l 257
 1808.1015625 -70 l 257
 784.1015625 -70 l 257
EndSplineSet
EndChar

StartChar: oslash
Encoding: 248 248 259
GlifName: oslash
Width: 2934
VWidth: 0
Flags: HW
LayerCount: 2
Fore
SplineSet
2030.07519531 1164 m 257
 776.59375 -5 l 257
 902.924804688 -103 l 257
 2157.40625 1066 l 257
 2030.07519531 1164 l 257
1245.75585938 1023 m 257
 873.4140625 0 l 257
 1073.4140625 0 l 257
 1445.75585938 1023 l 257
 1245.75585938 1023 l 257
1860.75585938 1023 m 257
 1488.4140625 0 l 257
 1690.4140625 0 l 257
 2062.75585938 1023 l 257
 1860.75585938 1023 l 257
1368.75585938 1023 m 257
 1295.59765625 822 l 257
 1881.59765625 822 l 257
 1954.75585938 1023 l 257
 1368.75585938 1023 l 257
1073.20800781 200 m 257
 1000.4140625 0 l 257
 1572.4140625 0 l 257
 1645.20800781 200 l 257
 1073.20800781 200 l 257
EndSplineSet
EndChar

StartChar: p
Encoding: 112 112 261
GlifName: p
Width: 2486
VWidth: 0
Flags: HW
LayerCount: 2
Fore
SplineSet
1250.07128906 1203 m 257
 664.443359375 -406 l 257
 864.443359375 -406 l 257
 1450.07128906 1203 l 257
 1250.07128906 1203 l 257
1282.55664062 1023 m 257
 1209.03417969 821 l 257
 1748.03417969 821 l 257
 1821.55664062 1023 l 257
 1282.55664062 1023 l 257
987.737304688 202 m 257
 914.21484375 0 l 257
 1454.21484375 0 l 257
 1527.73730469 202 l 257
 987.737304688 202 l 257
1571.05273438 876 m 257
 1315.90917969 175 l 257
 1513.90917969 175 l 257
 1769.05273438 876 l 257
 1571.05273438 876 l 257
EndSplineSet
EndChar

StartChar: paragraph
Encoding: 182 182 262
GlifName: paragraph
Width: 2290
VWidth: 0
Flags: HW
LayerCount: 2
Fore
SplineSet
672.818359375 1130 m 257
 620.04296875 985 l 257
 1185.04296875 985 l 257
 1237.81835938 1130 l 257
 672.818359375 1130 l 257
824.95703125 1548 m 257
 625.501953125 1000 l 257
 785.501953125 1000 l 257
 984.95703125 1548 l 257
 824.95703125 1548 l 257
824.95703125 1548 m 257
 783.828125 1435 l 257
 1603.828125 1435 l 257
 1644.95703125 1548 l 257
 824.95703125 1548 l 257
1294.95703125 1548 m 257
 731.53125 0 l 257
 876.53125 0 l 257
 1439.95703125 1548 l 257
 1294.95703125 1548 l 257
1564.95703125 1548 m 257
 1001.53125 0 l 257
 1106.53125 0 l 257
 1669.95703125 1548 l 257
 1564.95703125 1548 l 257
EndSplineSet
EndChar

StartChar: parenleft
Encoding: 40 40 263
GlifName: parenleft
Width: 1940
VWidth: 0
Flags: HW
LayerCount: 2
Fore
SplineSet
837.310546875 1023 m 257
 530.119140625 179 l 257
 720.119140625 179 l 257
 1027.31054688 1023 l 257
 837.310546875 1023 l 257
1377.33203125 1633 m 257
 839.130859375 1028 l 257
 1027.13085938 1028 l 257
 1409.88085938 1640 l 257
 1377.33203125 1633 l 257
530.119140625 179 m 257
 661.197265625 -406 l 257
 693.197265625 -406 l 257
 720.119140625 179 l 257
 530.119140625 179 l 257
EndSplineSet
EndChar

StartChar: parenright
Encoding: 41 41 264
GlifName: parenright
Width: 1884
VWidth: 0
Flags: HW
LayerCount: 2
Fore
SplineSet
1178.05664062 1023 m 257
 870.865234375 179 l 257
 1060.86523438 179 l 257
 1368.05664062 1023 l 257
 1178.05664062 1023 l 257
1256.62207031 1629 m 257
 1178.05664062 1023 l 257
 1368.05664062 1023 l 257
 1294.62207031 1629 l 257
 1256.62207031 1629 l 257
870.865234375 179 m 257
 515.943359375 -406 l 257
 543.943359375 -406 l 257
 1060.86523438 179 l 257
 870.865234375 179 l 257
EndSplineSet
EndChar

StartChar: percent
Encoding: 37 37 265
GlifName: percent
Width: 2120
VWidth: 0
Flags: HW
LayerCount: 2
Fore
SplineSet
590.876953125 522 m 257
 582.1015625 377 l 257
 1529.48632812 716 l 257
 1537.8984375 860 l 257
 590.876953125 522 l 257
958.72265625 1148 m 257
 840.068359375 822 l 257
 918.068359375 822 l 257
 1036.72265625 1148 l 257
 958.72265625 1148 l 257
960.177734375 1152 m 257
 925.6015625 1057 l 257
 1273.6015625 1057 l 257
 1308.17773438 1152 l 257
 960.177734375 1152 l 257
857.90234375 871 m 257
 828.056640625 789 l 257
 1172.05664062 789 l 257
 1201.90234375 871 l 257
 857.90234375 871 l 257
1216.17773438 1152 m 257
 1084.78515625 791 l 257
 1176.78515625 791 l 257
 1308.17773438 1152 l 257
 1216.17773438 1152 l 257
1027.57617188 436 m 257
 908.921875 110 l 257
 986.921875 110 l 257
 1105.57617188 436 l 257
 1027.57617188 436 l 257
1029.03125 440 m 257
 994.453125 345 l 257
 1340.453125 345 l 257
 1375.03125 440 l 257
 1029.03125 440 l 257
926.755859375 159 m 257
 896.91015625 77 l 257
 1240.91015625 77 l 257
 1270.75585938 159 l 257
 926.755859375 159 l 257
1283.03125 440 m 257
 1151.63867188 79 l 257
 1243.63867188 79 l 257
 1375.03125 440 l 257
 1283.03125 440 l 257
EndSplineSet
EndChar

StartChar: period
Encoding: 46 46 266
GlifName: period
Width: 944
VWidth: 0
Flags: HW
LayerCount: 2
Fore
SplineSet
384.768554688 246 m 257
 295.231445312 0 l 257
 559.231445312 0 l 257
 648.768554688 246 l 257
 384.768554688 246 l 257
EndSplineSet
EndChar

StartChar: periodcentered
Encoding: 183 183 267
GlifName: periodcentered
Width: 936
VWidth: 0
Flags: HW
LayerCount: 2
Fore
SplineSet
380.451171875 1146 m 257
 290.548828125 899 l 257
 555.548828125 899 l 257
 645.451171875 1146 l 257
 380.451171875 1146 l 257
EndSplineSet
EndChar

StartChar: perthousand
Encoding: 8240 8240 268
GlifName: perthousand
Width: 2154
VWidth: 0
Flags: HW
LayerCount: 2
Fore
SplineSet
1216.00976562 436 m 257
 1097.35546875 110 l 257
 1175.35546875 110 l 257
 1294.00976562 436 l 257
 1216.00976562 436 l 257
1217.46484375 440 m 257
 1182.88769531 345 l 257
 1528.88769531 345 l 257
 1563.46484375 440 l 257
 1217.46484375 440 l 257
1115.18945312 159 m 257
 1085.34375 77 l 257
 1429.34375 77 l 257
 1459.18945312 159 l 257
 1115.18945312 159 l 257
1471.46484375 440 m 257
 1340.07226562 79 l 257
 1432.07226562 79 l 257
 1563.46484375 440 l 257
 1471.46484375 440 l 257
601.310546875 522 m 257
 590.53515625 377 l 257
 1537.92089844 716 l 257
 1546.33300781 860 l 257
 601.310546875 522 l 257
969.15625 1148 m 257
 850.501953125 822 l 257
 928.501953125 822 l 257
 1047.15625 1148 l 257
 969.15625 1148 l 257
970.612304688 1152 m 257
 936.03515625 1057 l 257
 1282.03515625 1057 l 257
 1316.61230469 1152 l 257
 970.612304688 1152 l 257
868.336914062 871 m 257
 838.491210938 789 l 257
 1182.49121094 789 l 257
 1212.33691406 871 l 257
 868.336914062 871 l 257
1224.61230469 1152 m 257
 1093.21875 791 l 257
 1185.21875 791 l 257
 1316.61230469 1152 l 257
 1224.61230469 1152 l 257
814.009765625 436 m 257
 695.35546875 110 l 257
 773.35546875 110 l 257
 892.009765625 436 l 257
 814.009765625 436 l 257
815.46484375 440 m 257
 780.887695312 345 l 257
 1128.88769531 345 l 257
 1163.46484375 440 l 257
 815.46484375 440 l 257
713.189453125 159 m 257
 683.34375 77 l 257
 1027.34375 77 l 257
 1057.18945312 159 l 257
 713.189453125 159 l 257
1071.46484375 440 m 257
 940.072265625 79 l 257
 1032.07226562 79 l 257
 1163.46484375 440 l 257
 1071.46484375 440 l 257
EndSplineSet
EndChar

StartChar: plus
Encoding: 43 43 269
GlifName: plus
Width: 2160
VWidth: 0
Flags: HW
LayerCount: 2
Fore
SplineSet
1135.44140625 1221 m 257
 751.087890625 165 l 257
 976.087890625 165 l 257
 1360.44140625 1221 l 257
 1135.44140625 1221 l 257
666.853515625 821 m 257
 591.146484375 613 l 257
 1493.14648438 613 l 257
 1568.85351562 821 l 257
 666.853515625 821 l 257
EndSplineSet
EndChar

StartChar: plusminus
Encoding: 177 177 270
GlifName: plusminus
Width: 2596
VWidth: 0
Flags: HW
LayerCount: 2
Fore
SplineSet
774.09765625 108 m 257
 698.391601562 -100 l 257
 1524.39160156 -100 l 257
 1600.09765625 108 l 257
 774.09765625 108 l 257
1464.19628906 1221 m 257
 1079.84375 165 l 257
 1304.84375 165 l 257
 1689.19628906 1221 l 257
 1464.19628906 1221 l 257
995.608398438 821 m 257
 919.90234375 613 l 257
 1821.90234375 613 l 257
 1897.60839844 821 l 257
 995.608398438 821 l 257
EndSplineSet
EndChar

StartChar: q
Encoding: 113 113 271
GlifName: q
Width: 2388
VWidth: 0
Flags: HW
LayerCount: 2
Fore
SplineSet
1549.06445312 1201 m 257
 964.1640625 -406 l 257
 1163.1640625 -406 l 257
 1748.06445312 1201 l 257
 1549.06445312 1201 l 257
1011.27734375 1023 m 257
 938.484375 823 l 257
 1587.484375 823 l 257
 1660.27734375 1023 l 257
 1011.27734375 1023 l 257
713.822265625 203 m 257
 639.935546875 0 l 257
 1255.93554688 0 l 257
 1329.82226562 203 l 257
 713.822265625 203 l 257
949.130859375 855 m 257
 676.880859375 107 l 257
 876.880859375 107 l 257
 1149.13085938 855 l 257
 949.130859375 855 l 257
1053.39257812 -268 m 257
 1003.1640625 -406 l 257
 1239.1640625 -406 l 257
 1289.39257812 -268 l 257
 1053.39257812 -268 l 257
EndSplineSet
EndChar

StartChar: question
Encoding: 63 63 272
GlifName: question
Width: 2222
VWidth: 0
Flags: HW
LayerCount: 2
Fore
SplineSet
693.375 247 m 257
 603.474609375 0 l 257
 849.474609375 0 l 257
 939.375 247 l 257
 693.375 247 l 257
980.345703125 1519 m 257
 912.646484375 1333 l 257
 1548.64648438 1333 l 257
 1616.34570312 1519 l 257
 980.345703125 1519 l 257
1424.52539062 1514 m 257
 1225.0703125 966 l 257
 1419.0703125 966 l 257
 1618.52539062 1514 l 257
 1424.52539062 1514 l 257
972.904296875 1015 m 257
 900.474609375 816 l 257
 1364.47460938 816 l 257
 1436.90429688 1015 l 257
 972.904296875 1015 l 257
971.448242188 1011 m 257
 746.151367188 392 l 257
 994.151367188 392 l 257
 1219.44824219 1011 l 257
 971.448242188 1011 l 257
EndSplineSet
EndChar

StartChar: questiondown
Encoding: 191 191 273
GlifName: questiondown
Width: 2222
VWidth: 0
Flags: HW
LayerCount: 2
Fore
SplineSet
1528.98828125 1273 m 257
 1618.52539062 1519 l 257
 1368.52539062 1519 l 257
 1278.62402344 1272 l 257
 1528.98828125 1273 l 257
1242.65429688 0 m 257
 1310.35253906 186 l 257
 673.352539062 186 l 257
 605.654296875 0 l 257
 1242.65429688 0 l 257
797.474609375 5 m 257
 996.9296875 553 l 257
 802.9296875 553 l 257
 603.474609375 5 l 257
 797.474609375 5 l 257
1249.09570312 504 m 257
 1321.52539062 703 l 257
 857.525390625 703 l 257
 785.095703125 504 l 257
 1249.09570312 504 l 257
1250.55078125 508 m 257
 1475.84863281 1127 l 257
 1227.84863281 1127 l 257
 1002.55078125 508 l 257
 1250.55078125 508 l 257
EndSplineSet
EndChar

StartChar: quotedbl
Encoding: 34 34 274
GlifName: quotedbl
Width: 1508
VWidth: 0
Flags: HW
LayerCount: 2
Fore
SplineSet
436.868164062 1326 m 257
 580.868164062 1326 l 257
 671.131835938 1574 l 257
 527.131835938 1574 l 257
 436.868164062 1326 l 257
836.868164062 1326 m 257
 980.868164062 1326 l 257
 1071.13183594 1574 l 257
 927.131835938 1574 l 257
 836.868164062 1326 l 257
EndSplineSet
EndChar

StartChar: quotedblbase
Encoding: 8222 8222 275
GlifName: quotedblbase
Width: 1838
VWidth: 0
Flags: HW
LayerCount: 2
Fore
SplineSet
674.700195312 237 m 257
 591.3515625 8 l 257
 839.3515625 8 l 257
 922.700195312 237 l 257
 674.700195312 237 l 257
736.575195312 135 m 257
 516.299804688 -146 l 257
 637.461914062 -206 l 257
 834.439453125 0 l 257
 736.575195312 135 l 257
1073.70019531 237 m 257
 990.3515625 8 l 257
 1238.3515625 8 l 257
 1321.70019531 237 l 257
 1073.70019531 237 l 257
1135.57519531 135 m 257
 915.299804688 -146 l 257
 1036.46191406 -206 l 257
 1233.43945312 0 l 257
 1135.57519531 135 l 257
EndSplineSet
EndChar

StartChar: quotedblleft
Encoding: 8220 8220 276
GlifName: quotedblleft
Width: 1798
VWidth: 0
Flags: HW
LayerCount: 2
Fore
SplineSet
775.299804688 1842 m 257
 858.6484375 2071 l 257
 610.6484375 2071 l 257
 527.299804688 1842 l 257
 775.299804688 1842 l 257
714.424804688 1944 m 257
 934.700195312 2225 l 257
 812.538085938 2285 l 257
 614.104492188 2075 l 257
 714.424804688 1944 l 257
1111.29980469 1842 m 257
 1194.6484375 2071 l 257
 946.6484375 2071 l 257
 863.299804688 1842 l 257
 1111.29980469 1842 l 257
1050.42480469 1944 m 257
 1270.70019531 2225 l 257
 1148.53808594 2285 l 257
 950.104492188 2075 l 257
 1050.42480469 1944 l 257
EndSplineSet
EndChar

StartChar: quotedblright
Encoding: 8221 8221 277
GlifName: quotedblright
Width: 1758
VWidth: 0
Flags: HW
LayerCount: 2
Fore
SplineSet
992.700195312 2285 m 257
 909.3515625 2056 l 257
 1157.3515625 2056 l 257
 1240.70019531 2285 l 257
 992.700195312 2285 l 257
1055.57519531 2183 m 257
 835.299804688 1902 l 257
 955.461914062 1842 l 257
 1153.89550781 2052 l 257
 1055.57519531 2183 l 257
674.700195312 2285 m 257
 591.3515625 2056 l 257
 839.3515625 2056 l 257
 922.700195312 2285 l 257
 674.700195312 2285 l 257
737.575195312 2183 m 257
 517.299804688 1902 l 257
 637.461914062 1842 l 257
 835.895507812 2052 l 257
 737.575195312 2183 l 257
EndSplineSet
EndChar

StartChar: quoteleft
Encoding: 8216 8216 278
GlifName: quoteleft
Width: 1126
VWidth: 0
Flags: HW
LayerCount: 2
Fore
SplineSet
607.299804688 1842 m 257
 690.6484375 2071 l 257
 442.6484375 2071 l 257
 359.299804688 1842 l 257
 607.299804688 1842 l 257
546.424804688 1944 m 257
 766.700195312 2225 l 257
 644.538085938 2285 l 257
 446.104492188 2075 l 257
 546.424804688 1944 l 257
EndSplineSet
EndChar

StartChar: quoteright
Encoding: 8217 8217 279
GlifName: quoteright
Width: 1126
VWidth: 0
Flags: HW
LayerCount: 2
Fore
SplineSet
518.700195312 2285 m 257
 435.3515625 2056 l 257
 683.3515625 2056 l 257
 766.700195312 2285 l 257
 518.700195312 2285 l 257
579.575195312 2183 m 257
 359.299804688 1902 l 257
 481.461914062 1842 l 257
 679.895507812 2052 l 257
 579.575195312 2183 l 257
EndSplineSet
EndChar

StartChar: quotesinglbase
Encoding: 8218 8218 280
GlifName: quotesinglbase
Width: 1042
VWidth: 0
Flags: HW
LayerCount: 2
Fore
SplineSet
476.700195312 237 m 257
 393.3515625 8 l 257
 641.3515625 8 l 257
 724.700195312 237 l 257
 476.700195312 237 l 257
537.575195312 135 m 257
 317.299804688 -146 l 257
 439.461914062 -206 l 257
 636.439453125 0 l 257
 537.575195312 135 l 257
EndSplineSet
EndChar

StartChar: quotesingle
Encoding: 39 39 281
GlifName: quotesingle
Width: 668
VWidth: 0
Flags: HW
LayerCount: 2
Fore
SplineSet
311.220703125 1496 m 257
 226.779296875 1264 l 257
 356.779296875 1264 l 257
 441.220703125 1496 l 257
 311.220703125 1496 l 257
EndSplineSet
EndChar

StartChar: r
Encoding: 114 114 282
GlifName: r
Width: 1952
VWidth: 0
Flags: HW
LayerCount: 2
Fore
SplineSet
688.170898438 1023 m 257
 614.6484375 821 l 257
 1347.6484375 821 l 257
 1421.17089844 1023 l 257
 688.170898438 1023 l 257
878.056640625 954 m 257
 530.829101562 0 l 257
 730.829101562 0 l 257
 1078.05664062 954 l 257
 878.056640625 954 l 257
1204.06445312 976 m 257
 1085.41015625 650 l 257
 1285.41015625 650 l 257
 1404.06445312 976 l 257
 1204.06445312 976 l 257
EndSplineSet
EndChar

StartChar: registered
Encoding: 174 174 285
GlifName: registered
Width: 3192
VWidth: 0
Flags: HW
LayerCount: 2
Fore
SplineSet
1576.90625 1032 m 257
 1383.63769531 501 l 257
 1451.63769531 501 l 257
 1644.90625 1032 l 257
 1576.90625 1032 l 257
1601.90625 1032 m 257
 1576.79199219 963 l 257
 1805.79199219 963 l 257
 1830.90625 1032 l 257
 1601.90625 1032 l 257
1770.90625 1032 m 257
 1687.19335938 802 l 257
 1756.19335938 802 l 257
 1839.90625 1032 l 257
 1770.90625 1032 l 257
1540.76269531 875 m 257
 1513.82910156 801 l 257
 1751.82910156 801 l 257
 1778.76269531 875 l 257
 1540.76269531 875 l 257
1563.74121094 809 m 257
 1590.27441406 500 l 257
 1673.27441406 500 l 257
 1633.74121094 809 l 257
 1563.74121094 809 l 257
1404.7109375 1537 m 257
 845.2890625 0 l 257
 1046.2890625 0 l 257
 1605.7109375 1537 l 257
 1404.7109375 1537 l 257
2143.7109375 1537 m 257
 1584.2890625 0 l 257
 1787.2890625 0 l 257
 2346.7109375 1537 l 257
 2143.7109375 1537 l 257
1545.7109375 1537 m 257
 1472.91699219 1337 l 257
 2115.91699219 1337 l 257
 2188.7109375 1537 l 257
 1545.7109375 1537 l 257
1036.5390625 204 m 257
 962.2890625 0 l 257
 1635.2890625 0 l 257
 1709.5390625 204 l 257
 1036.5390625 204 l 257
EndSplineSet
EndChar

StartChar: ring
Encoding: 730 730 286
GlifName: ring
Width: 1216
VWidth: 0
Flags: HW
LayerCount: 2
Fore
SplineSet
556.294921875 1756 m 257
 704.294921875 1756 l 257
 656.978515625 1626 l 257
 508.978515625 1626 l 257
 556.294921875 1756 l 257
484.416015625 1847 m 257
 371.583984375 1537 l 257
 731.583984375 1537 l 257
 844.416015625 1847 l 257
 484.416015625 1847 l 257
EndSplineSet
EndChar

StartChar: s
Encoding: 115 115 287
GlifName: s
Width: 2132
VWidth: 0
Flags: HW
LayerCount: 2
Fore
SplineSet
947.170898438 1023 m 257
 875.46875 826 l 257
 1484.46875 826 l 257
 1556.17089844 1023 l 257
 947.170898438 1023 l 257
947.170898438 1023 m 257
 842.7109375 736 l 257
 1042.7109375 736 l 257
 1147.17089844 1023 l 257
 947.170898438 1023 l 257
648.987304688 201 m 257
 575.829101562 0 l 257
 1180.82910156 0 l 257
 1253.98730469 201 l 257
 648.987304688 201 l 257
1086.47265625 293 m 257
 984.196289062 12 l 257
 1184.19628906 12 l 257
 1286.47265625 293 l 257
 1086.47265625 293 l 257
843.7109375 736 m 257
 1086.47265625 293 l 257
 1286.47265625 293 l 257
 1043.7109375 736 l 257
 843.7109375 736 l 257
EndSplineSet
EndChar

StartChar: section
Encoding: 167 167 292
GlifName: section
Width: 2676
VWidth: 0
Flags: HW
LayerCount: 2
Fore
SplineSet
1222.50292969 1238 m 257
 1148.6171875 1035 l 257
 1746.6171875 1035 l 257
 1820.50292969 1238 l 257
 1222.50292969 1238 l 257
1223.59570312 1241 m 257
 992.110351562 605 l 257
 1194.11035156 605 l 257
 1425.59570312 1241 l 257
 1223.59570312 1241 l 257
786.706054688 -61 m 257
 714.276367188 -260 l 257
 1422.27636719 -260 l 257
 1494.70605469 -61 l 257
 786.706054688 -61 l 257
1257.63964844 -259 m 257
 1458.63964844 -259 l 257
 1587.48535156 95 l 257
 1386.48535156 95 l 257
 1257.63964844 -259 l 257
992.110351562 605 m 257
 1386.48535156 95 l 257
 1587.48535156 95 l 257
 1194.11035156 605 l 257
 992.110351562 605 l 257
1363.72363281 1626 m 257
 1289.83789062 1423 l 257
 1887.83789062 1423 l 257
 1961.72363281 1626 l 257
 1363.72363281 1626 l 257
1364.81542969 1629 m 257
 1222.13964844 1237 l 257
 1424.13964844 1237 l 257
 1566.81542969 1629 l 257
 1364.81542969 1629 l 257
904.00390625 286 m 257
 831.573242188 87 l 257
 1539.57324219 87 l 257
 1612.00390625 286 l 257
 904.00390625 286 l 257
1374.9375 88 m 257
 1575.9375 88 l 257
 1704.78320312 442 l 257
 1503.78320312 442 l 257
 1374.9375 88 l 257
1222.13964844 1237 m 257
 1503.78320312 442 l 257
 1704.78320312 442 l 257
 1424.13964844 1237 l 257
 1222.13964844 1237 l 257
EndSplineSet
EndChar

StartChar: semicolon
Encoding: 59 59 293
GlifName: semicolon
Width: 1340
VWidth: 0
Flags: HW
LayerCount: 2
Fore
SplineSet
548.444335938 430 m 257
 465.095703125 201 l 257
 713.095703125 201 l 257
 796.444335938 430 l 257
 548.444335938 430 l 257
609.319335938 328 m 257
 389.043945312 47 l 257
 511.206054688 -13 l 257
 709.639648438 197 l 257
 609.319335938 328 l 257
684.956054688 871 m 257
 595.0546875 624 l 257
 861.0546875 624 l 257
 950.956054688 871 l 257
 684.956054688 871 l 257
EndSplineSet
EndChar

StartChar: seven
Encoding: 55 55 294
GlifName: seven
Width: 2162
VWidth: 0
Flags: HW
LayerCount: 2
Fore
SplineSet
587.739257812 1355 m 257
 1297.73925781 1355 l 257
 804.559570312 0 l 257
 1007.55957031 0 l 257
 1574.26074219 1557 l 257
 661.260742188 1557 l 257
 587.739257812 1355 l 257
EndSplineSet
EndChar

StartChar: six
Encoding: 54 54 295
GlifName: six
Width: 3202
VWidth: 0
Flags: HW
LayerCount: 2
Fore
SplineSet
1410.71289062 1548 m 257
 920.4453125 201 l 257
 847.287109375 0 l 257
 1786.28710938 0 l 257
 2135.33496094 959 l 257
 1399.33496094 959 l 257
 1540.91894531 1348 l 257
 2281.91894531 1348 l 257
 2354.71289062 1548 l 257
 1410.71289062 1548 l 257
1854.54003906 759 m 257
 1652.17285156 203 l 257
 1130.17285156 203 l 257
 1332.54003906 759 l 257
 1854.54003906 759 l 257
EndSplineSet
EndChar

StartChar: slash
Encoding: 47 47 296
GlifName: slash
Width: 2722
VWidth: 0
Flags: HW
LayerCount: 2
Fore
SplineSet
1834.07617188 1483 m 257
 726.4921875 6 l 257
 887.923828125 -67 l 257
 1995.5078125 1410 l 257
 1834.07617188 1483 l 257
EndSplineSet
EndChar

StartChar: sterling
Encoding: 163 163 298
GlifName: sterling
Width: 2332
VWidth: 0
Flags: HW
LayerCount: 2
Fore
SplineSet
1410.80273438 1543 m 257
 1338.37304688 1344 l 257
 1629.37304688 1344 l 257
 1701.80273438 1543 l 257
 1410.80273438 1543 l 257
802.453125 770 m 257
 730.0234375 571 l 257
 1456.0234375 571 l 257
 1528.453125 770 l 257
 802.453125 770 l 257
1366.43945312 1542 m 257
 805.197265625 0 l 257
 1003.19726562 0 l 257
 1564.43945312 1542 l 257
 1366.43945312 1542 l 257
703.71875 202 m 257
 630.197265625 0 l 257
 1356.19726562 0 l 257
 1429.71875 202 l 257
 703.71875 202 l 257
EndSplineSet
EndChar

StartChar: t
Encoding: 116 116 299
GlifName: t
Width: 1794
VWidth: 0
Flags: HW
LayerCount: 2
Fore
SplineSet
1055.25488281 1548 m 257
 491.829101562 0 l 257
 691.829101562 0 l 257
 1255.25488281 1548 l 257
 1055.25488281 1548 l 257
572.258789062 199 m 257
 499.829101562 0 l 257
 890.829101562 0 l 257
 963.258789062 199 l 257
 572.258789062 199 l 257
628.170898438 1023 m 257
 555.740234375 824 l 257
 1229.74023438 824 l 257
 1302.17089844 1023 l 257
 628.170898438 1023 l 257
EndSplineSet
EndChar

StartChar: tcaron
Encoding: 357 357 300
GlifName: tcaron
Width: 2180
VWidth: 0
Flags: HW
LayerCount: 2
Fore
SplineSet
1144.26171875 1529 m 257
 587.75 0 l 257
 788.75 0 l 257
 1345.26171875 1529 l 257
 1144.26171875 1529 l 257
813.1796875 199 m 257
 740.75 0 l 257
 1131.75 0 l 257
 1204.1796875 199 l 257
 813.1796875 199 l 257
688.091796875 1023 m 257
 615.662109375 824 l 257
 1394.66210938 824 l 257
 1467.09179688 1023 l 257
 688.091796875 1023 l 257
1462.25 1496 m 257
 1387.63671875 1291 l 257
 1517.63671875 1291 l 257
 1592.25 1496 l 257
 1462.25 1496 l 257
EndSplineSet
EndChar

StartChar: thorn
Encoding: 254 254 301
GlifName: thorn
Width: 2440
VWidth: 0
Flags: HW
LayerCount: 2
Fore
SplineSet
1177.34765625 1034 m 257
 653.23046875 -406 l 257
 853.23046875 -406 l 257
 1377.34765625 1034 l 257
 1177.34765625 1034 l 257
1230.76953125 667 m 257
 1158.33984375 468 l 257
 1714.33984375 468 l 257
 1786.76953125 667 l 257
 1230.76953125 667 l 257
998.185546875 6 m 257
 925.02734375 -195 l 257
 1471.02734375 -195 l 257
 1544.18554688 6 l 257
 998.185546875 6 l 257
1561.29101562 597 m 257
 1306.1484375 -104 l 257
 1504.1484375 -104 l 257
 1759.29101562 597 l 257
 1561.29101562 597 l 257
EndSplineSet
EndChar

StartChar: three
Encoding: 51 51 302
GlifName: three
Width: 3130
VWidth: 0
Flags: HW
LayerCount: 2
Fore
SplineSet
1141.71484375 736 m 257
 1799.71484375 736 l 257
 1601.71484375 192 l 257
 901.71484375 192 l 257
 828.920898438 -8 l 257
 1732.92089844 -8 l 257
 2301.07910156 1553 l 257
 1427.07910156 1553 l 257
 1354.28515625 1353 l 257
 2022.28515625 1353 l 257
 1870.50878906 936 l 257
 1214.50878906 936 l 257
 1141.71484375 736 l 257
EndSplineSet
EndChar

StartChar: threequarters
Encoding: 190 190 303
GlifName: threequarters
Width: 2722
VWidth: 0
Flags: HW
LayerCount: 2
Fore
SplineSet
1834.07617188 1483 m 257
 726.4921875 6 l 257
 887.923828125 -67 l 257
 1995.5078125 1410 l 257
 1834.07617188 1483 l 257
1131.27929688 1272 m 257
 1409.27929688 1272 l 257
 1340.85351562 1084 l 257
 1044.85351562 1084 l 257
 1019.73828125 1015 l 257
 1401.73828125 1015 l 257
 1597.5546875 1553 l 257
 1228.5546875 1553 l 257
 1203.44140625 1484 l 257
 1485.44140625 1484 l 257
 1433.02929688 1340 l 257
 1156.02929688 1340 l 257
 1131.27929688 1272 l 257
1358.05859375 340 m 257
 1623.05859375 340 l 257
 1501.85742188 7 l 257
 1582.85742188 7 l 257
 1830.35742188 687 l 257
 1748.35742188 687 l 257
 1654.08789062 428 l 257
 1472.08789062 428 l 257
 1567.08398438 689 l 257
 1485.08398438 689 l 257
 1358.05859375 340 l 257
EndSplineSet
EndChar

StartChar: tilde
Encoding: 732 732 304
GlifName: tilde
Width: 1562
VWidth: 0
Flags: HW
LayerCount: 2
Fore
SplineSet
678.646484375 1607 m 257
 649.892578125 1528 l 257
 912.05859375 1479 l 257
 940.8125 1558 l 257
 678.646484375 1607 l 257
471.541015625 1560 m 257
 455.150390625 1482 l 257
 649.892578125 1528 l 257
 678.646484375 1607 l 257
 471.541015625 1560 l 257
940.8125 1558 m 257
 912.05859375 1479 l 257
 1098.1875 1592 l 257
 1106.84960938 1668 l 257
 940.8125 1558 l 257
EndSplineSet
EndChar

StartChar: tildecomb
Encoding: 771 771 305
GlifName: tildecomb
Width: 1942
VWidth: 0
Flags: HW
LayerCount: 2
Fore
SplineSet
843.376953125 2015 m 257
 807.34375 1916 l 257
 1135.14160156 1855 l 257
 1171.17480469 1954 l 257
 843.376953125 2015 l 257
584.266601562 1957 m 257
 563.59765625 1859 l 257
 807.34375 1916 l 257
 843.376953125 2015 l 257
 584.266601562 1957 l 257
1171.17480469 1954 m 257
 1135.14160156 1855 l 257
 1367.4609375 1996 l 257
 1378.40234375 2092 l 257
 1171.17480469 1954 l 257
EndSplineSet
EndChar

StartChar: two
Encoding: 50 50 307
GlifName: two
Width: 2918
VWidth: 0
Flags: HW
LayerCount: 2
Fore
SplineSet
1258.46289062 1344 m 257
 1867.46289062 1344 l 257
 1708.77246094 908 l 257
 1106.77246094 908 l 257
 776.287109375 0 l 257
 1564.28710938 0 l 257
 1637.08105469 200 l 257
 1052.08105469 200 l 257
 1236.61425781 707 l 257
 1835.61425781 707 l 257
 2141.71289062 1548 l 257
 1332.71289062 1548 l 257
 1258.46289062 1344 l 257
EndSplineSet
EndChar

StartChar: u
Encoding: 117 117 308
GlifName: u
Width: 2180
VWidth: 0
Flags: HW
LayerCount: 2
Fore
SplineSet
960.170898438 1023 m 257
 587.829101562 0 l 257
 788.829101562 0 l 257
 1161.17089844 1023 l 257
 960.170898438 1023 l 257
1392.17089844 1023 m 257
 1019.82910156 0 l 257
 1219.82910156 0 l 257
 1592.17089844 1023 l 257
 1392.17089844 1023 l 257
707.623046875 200 m 257
 634.829101562 0 l 257
 1336.82910156 0 l 257
 1409.62304688 200 l 257
 707.623046875 200 l 257
EndSplineSet
EndChar

StartChar: underscore
Encoding: 95 95 316
GlifName: underscore
Width: 2380
VWidth: 0
Flags: HW
LayerCount: 2
Fore
SplineSet
690.010742188 -5 m 257
 665.989257812 -71 l 257
 1689.98925781 -71 l 257
 1714.01074219 -5 l 257
 690.010742188 -5 l 257
EndSplineSet
EndChar

StartChar: uni00B2
Encoding: 178 178 318
GlifName: uni00B_2
Width: 1632
VWidth: 0
Flags: HW
LayerCount: 2
Fore
SplineSet
675.995117188 1455 m 257
 1023.99511719 1455 l 257
 952.65625 1259 l 257
 608.65625 1259 l 257
 460.15625 851 l 257
 909.15625 851 l 257
 941.549804688 940 l 257
 608.549804688 940 l 257
 691.53515625 1168 l 257
 1033.53515625 1168 l 257
 1171.84375 1548 l 257
 709.84375 1548 l 257
 675.995117188 1455 l 257
EndSplineSet
EndChar

StartChar: uni00B3
Encoding: 179 179 319
GlifName: uni00B_3
Width: 1922
VWidth: 0
Flags: HW
LayerCount: 2
Fore
SplineSet
673.857421875 1215 m 257
 1125.85742188 1215 l 257
 1043.96484375 990 l 257
 562.96484375 990 l 257
 533.119140625 908 l 257
 1154.11914062 908 l 257
 1388.88085938 1553 l 257
 788.880859375 1553 l 257
 759.03515625 1471 l 257
 1218.03515625 1471 l 257
 1155.06835938 1298 l 257
 704.068359375 1298 l 257
 673.857421875 1215 l 257
EndSplineSet
EndChar

StartChar: uni00B9
Encoding: 185 185 320
GlifName: uni00B_9
Width: 968
VWidth: 0
Flags: HW
LayerCount: 2
Fore
SplineSet
293.393554688 887 m 257
 392.893554688 887 l 257
 674.606445312 1661 l 257
 575.106445312 1661 l 257
 293.393554688 887 l 257
577.106445312 1661 m 257
 424.23828125 1513 l 257
 481.040039062 1463 l 257
 634.08984375 1611.5 l 257
 577.106445312 1661 l 257
EndSplineSet
EndChar

StartChar: uni0123
Encoding: 291 291 322
GlifName: uni0123
Width: 2386
VWidth: 0
Flags: HW
LayerCount: 2
Fore
SplineSet
1168.33007812 1023 m 257
 795.98828125 0 l 257
 987.98828125 0 l 257
 1360.33007812 1023 l 257
 1168.33007812 1023 l 257
1208.33007812 1023 m 257
 1135.53710938 823 l 257
 1651.53710938 823 l 257
 1724.33007812 1023 l 257
 1208.33007812 1023 l 257
1552.33007812 1023 m 257
 1030.39648438 -411 l 257
 1224.39648438 -411 l 257
 1746.33007812 1023 l 257
 1552.33007812 1023 l 257
931.0546875 198 m 257
 858.98828125 0 l 257
 1315.98828125 0 l 257
 1388.0546875 198 l 257
 931.0546875 198 l 257
712.099609375 -214 m 257
 639.669921875 -413 l 257
 1174.66992188 -413 l 257
 1247.09960938 -214 l 257
 712.099609375 -214 l 257
1490.48828125 1496 m 257
 1382.02539062 1198 l 257
 1512.02539062 1198 l 257
 1620.48828125 1496 l 257
 1490.48828125 1496 l 257
EndSplineSet
EndChar

StartChar: uni0192
Encoding: 402 402 333
GlifName: uni0192
Width: 2792
VWidth: 0
Flags: HW
LayerCount: 2
Fore
SplineSet
1507.05664062 1023 m 257
 986.943359375 -406 l 257
 1186.94335938 -406 l 257
 1707.05664062 1023 l 257
 1507.05664062 1023 l 257
1569.05664062 1023 m 257
 1499.17382812 831 l 257
 1981.17382812 831 l 257
 2051.05664062 1023 l 257
 1569.05664062 1023 l 257
1154.17382812 559 m 257
 1080.28808594 356 l 257
 1711.28808594 356 l 257
 1785.17382812 559 l 257
 1154.17382812 559 l 257
815.556640625 -201 m 257
 740.943359375 -406 l 257
 1188.94335938 -406 l 257
 1263.55664062 -201 l 257
 815.556640625 -201 l 257
EndSplineSet
EndChar

StartChar: uni0237
Encoding: 567 567 341
GlifName: uni0237
Width: 2410
VWidth: 0
Flags: HW
LayerCount: 2
Fore
SplineSet
1565.45117188 940 m 257
 1073.72851562 -411 l 257
 1272.72851562 -411 l 257
 1764.45117188 940 l 257
 1565.45117188 940 l 257
717.25 -209 m 257
 645.548828125 -406 l 257
 1175.54882812 -406 l 257
 1247.25 -209 l 257
 717.25 -209 l 257
792.13671875 -6 m 257
 666.56640625 -351 l 257
 866.56640625 -351 l 257
 992.13671875 -6 l 257
 792.13671875 -6 l 257
EndSplineSet
EndChar

StartChar: uni02C9
Encoding: 713 713 345
GlifName: uni02C_9
Width: 1460
VWidth: 0
Flags: HW
LayerCount: 2
Fore
SplineSet
464.922851562 1630 m 257
 435.077148438 1548 l 257
 995.077148438 1548 l 257
 1024.92285156 1630 l 257
 464.922851562 1630 l 257
EndSplineSet
EndChar

StartChar: uni02CA
Encoding: 714 714 346
GlifName: uni02C_A_
Width: 818
VWidth: 0
Flags: HW
LayerCount: 2
Fore
SplineSet
483.9140625 1346 m 257
 261.46484375 1092 l 257
 332.72265625 1046 l 257
 556.53515625 1301 l 257
 483.9140625 1346 l 257
EndSplineSet
EndChar

StartChar: uni02CB
Encoding: 715 715 347
GlifName: uni02C_B_
Width: 596
VWidth: 0
Flags: HW
LayerCount: 2
Fore
SplineSet
227.078125 2107 m 257
 261.1796875 1871 l 257
 368.921875 1917 l 257
 336.18359375 2154 l 257
 227.078125 2107 l 257
EndSplineSet
EndChar

StartChar: uni0302
Encoding: 770 770 348
GlifName: uni0302
Width: 852
VWidth: 0
Flags: HW
LayerCount: 2
Fore
SplineSet
546.947265625 2158 m 257
 486.947265625 2158 l 257
 291.045898438 1911 l 257
 341.947265625 1886 l 257
 546.947265625 2158 l 257
471.4765625 2110 m 257
 492.947265625 1886 l 257
 560.954101562 1908 l 257
 546.947265625 2158 l 257
 471.4765625 2110 l 257
EndSplineSet
EndChar

StartChar: uni0304
Encoding: 772 772 349
GlifName: uni0304
Width: 1460
VWidth: 0
Flags: HW
LayerCount: 2
Fore
SplineSet
464.922851562 1630 m 257
 435.077148438 1548 l 257
 995.077148438 1548 l 257
 1024.92285156 1630 l 257
 464.922851562 1630 l 257
EndSplineSet
EndChar

StartChar: uni0305
Encoding: 773 773 350
GlifName: uni0305
Width: 1832
VWidth: 0
Flags: HW
LayerCount: 2
Fore
SplineSet
549.918945312 1602 m 257
 528.081054688 1542 l 257
 1282.08105469 1542 l 257
 1303.91894531 1602 l 257
 549.918945312 1602 l 257
EndSplineSet
EndChar

StartChar: uni0306
Encoding: 774 774 351
GlifName: uni0306
Width: 1642
VWidth: 0
Flags: HW
LayerCount: 2
Fore
SplineSet
968.34765625 1548 m 257
 943.59765625 1480 l 257
 1133.34765625 1548 l 257
 1168.65234375 1645 l 257
 968.34765625 1548 l 257
644.34765625 1548 m 257
 619.59765625 1480 l 257
 943.59765625 1480 l 257
 968.34765625 1548 l 257
 644.34765625 1548 l 257
503.193359375 1630 m 257
 473.34765625 1548 l 257
 619.59765625 1480 l 257
 644.34765625 1548 l 257
 503.193359375 1630 l 257
EndSplineSet
EndChar

StartChar: uni0307
Encoding: 775 775 352
GlifName: uni0307
Width: 898
VWidth: 0
Flags: HW
LayerCount: 2
Fore
SplineSet
373.760742188 1788 m 257
 300.239257812 1586 l 257
 524.239257812 1586 l 257
 597.760742188 1788 l 257
 373.760742188 1788 l 257
EndSplineSet
EndChar

StartChar: uni0308
Encoding: 776 776 353
GlifName: uni0308
Width: 1084
VWidth: 0
Flags: HW
LayerCount: 2
Fore
SplineSet
383.380859375 1738 m 257
 346.619140625 1637 l 257
 458.619140625 1637 l 257
 495.380859375 1738 l 257
 383.380859375 1738 l 257
625.380859375 1738 m 257
 588.619140625 1637 l 257
 700.619140625 1637 l 257
 737.380859375 1738 l 257
 625.380859375 1738 l 257
EndSplineSet
EndChar

StartChar: uni030A
Encoding: 778 778 354
GlifName: uni030A_
Width: 1216
VWidth: 0
Flags: HW
LayerCount: 2
Fore
SplineSet
556.294921875 1756 m 257
 704.294921875 1756 l 257
 656.978515625 1626 l 257
 508.978515625 1626 l 257
 556.294921875 1756 l 257
484.416015625 1847 m 257
 371.583984375 1537 l 257
 731.583984375 1537 l 257
 844.416015625 1847 l 257
 484.416015625 1847 l 257
EndSplineSet
EndChar

StartChar: uni030C
Encoding: 780 780 356
GlifName: uni030C_
Width: 792
VWidth: 0
Flags: HW
LayerCount: 2
Fore
SplineSet
336.053710938 1349 m 257
 329.053710938 1621 l 257
 259.954101562 1596 l 257
 276.053710938 1349 l 257
 336.053710938 1349 l 257
295.524414062 1397 m 257
 336.053710938 1349 l 257
 532.045898438 1599 l 257
 480.053710938 1621 l 257
 295.524414062 1397 l 257
EndSplineSet
EndChar

StartChar: uni0326
Encoding: 806 806 357
GlifName: uni0326
Width: 1092
VWidth: 0
Flags: HW
LayerCount: 2
Fore
SplineSet
501.3828125 0 m 257
 417.669921875 -230 l 257
 665.669921875 -230 l 257
 749.3828125 0 l 257
 501.3828125 0 l 257
562.892578125 -103 m 257
 342.6171875 -384 l 257
 463.779296875 -444 l 257
 662.212890625 -234 l 257
 562.892578125 -103 l 257
EndSplineSet
EndChar

StartChar: uni0327
Encoding: 807 807 358
GlifName: uni0327
Width: 1426
VWidth: 0
Flags: HW
LayerCount: 2
Fore
SplineSet
628.400390625 180 m 257
 510.473632812 -144 l 257
 666.473632812 -144 l 257
 784.400390625 180 l 257
 628.400390625 180 l 257
459.0625 -288 m 257
 416.114257812 -406 l 257
 862.114257812 -406 l 257
 905.0625 -288 l 257
 459.0625 -288 l 257
857.885742188 0 m 257
 722.489257812 -372 l 257
 874.489257812 -372 l 257
 1009.88574219 0 l 257
 857.885742188 0 l 257
563.885742188 0 m 257
 507.106445312 -156 l 257
 953.106445312 -156 l 257
 1009.88574219 0 l 257
 563.885742188 0 l 257
EndSplineSet
EndChar

StartChar: uni0328
Encoding: 808 808 359
GlifName: uni0328
Width: 1658
VWidth: 0
Flags: HW
LayerCount: 2
Fore
SplineSet
527.0625 -288 m 257
 484.114257812 -406 l 257
 1026.11425781 -406 l 257
 1069.0625 -288 l 257
 527.0625 -288 l 257
631.885742188 0 m 257
 484.114257812 -406 l 257
 602.114257812 -406 l 257
 749.885742188 0 l 257
 631.885742188 0 l 257
631.885742188 0 m 257
 587.845703125 -121 l 257
 1129.84570312 -121 l 257
 1173.88574219 0 l 257
 631.885742188 0 l 257
EndSplineSet
EndChar

StartChar: uni0331
Encoding: 817 817 360
GlifName: uni0331
Width: 1472
VWidth: 0
Flags: HW
LayerCount: 2
Fore
SplineSet
470.1953125 -170 m 257
 441.8046875 -248 l 257
 1001.8046875 -248 l 257
 1030.1953125 -170 l 257
 470.1953125 -170 l 257
EndSplineSet
EndChar

StartChar: uni0900
Encoding: 2304 2304 361
GlifName: uni0900
Width: 2592
VWidth: 0
Flags: HW
LayerCount: 2
Fore
SplineSet
770.02734375 1548 m 257
 697.233398438 1348 l 257
 1723.23339844 1348 l 257
 1796.02734375 1548 l 257
 770.02734375 1548 l 257
1089.67480469 2124 m 257
 913.1484375 1639 l 257
 1112.1484375 1639 l 257
 1288.67480469 2124 l 257
 1089.67480469 2124 l 257
1136.40234375 2126 m 257
 1063.24414062 1925 l 257
 1697.24414062 1925 l 257
 1770.40234375 2126 l 257
 1136.40234375 2126 l 257
1307.40625 1865 m 257
 1234.61230469 1665 l 257
 1434.61230469 1665 l 257
 1507.40625 1865 l 257
 1307.40625 1865 l 257
1694.76660156 2127 m 257
 1516.05664062 1636 l 257
 1716.05664062 1636 l 257
 1894.76660156 2127 l 257
 1694.76660156 2127 l 257
EndSplineSet
EndChar

StartChar: uni0901
Encoding: 2305 2305 362
GlifName: uni0901
Width: 2680
VWidth: 0
Flags: HW
LayerCount: 2
Fore
SplineSet
791.6171875 1548 m 257
 718.82421875 1348 l 257
 1743.82421875 1348 l 257
 1816.6171875 1548 l 257
 791.6171875 1548 l 257
1154.265625 2124 m 257
 977.73828125 1639 l 257
 1176.73828125 1639 l 257
 1353.265625 2124 l 257
 1154.265625 2124 l 257
1097.625 1842 m 257
 1024.46679688 1641 l 257
 1658.46679688 1641 l 257
 1731.625 1842 l 257
 1097.625 1842 l 257
1445.70898438 2095 m 257
 1372.91601562 1895 l 257
 1572.91601562 1895 l 257
 1645.70898438 2095 l 257
 1445.70898438 2095 l 257
1761.17578125 2132 m 257
 1582.46679688 1641 l 257
 1782.46679688 1641 l 257
 1961.17578125 2132 l 257
 1761.17578125 2132 l 257
EndSplineSet
EndChar

StartChar: uni0902
Encoding: 2306 2306 363
GlifName: uni0902
Width: 2392
VWidth: 0
Flags: HW
LayerCount: 2
Fore
SplineSet
874.8125 1839 m 257
 802.017578125 1639 l 257
 1002.01757812 1639 l 257
 1074.8125 1839 l 257
 874.8125 1839 l 257
719.896484375 1548 m 257
 647.103515625 1348 l 257
 1672.10351562 1348 l 257
 1744.89648438 1548 l 257
 719.896484375 1548 l 257
EndSplineSet
EndChar

StartChar: uni0903
Encoding: 2307 2307 364
GlifName: uni0903
Width: 1244
VWidth: 0
Flags: HW
LayerCount: 2
Fore
SplineSet
436.831054688 649 m 257
 364.037109375 449 l 257
 564.037109375 449 l 257
 636.831054688 649 l 257
 436.831054688 649 l 257
679.962890625 1317 m 257
 607.168945312 1117 l 257
 807.168945312 1117 l 257
 879.962890625 1317 l 257
 679.962890625 1317 l 257
EndSplineSet
EndChar

StartChar: uni0904
Encoding: 2308 2308 365
GlifName: uni0904
Width: 3468
VWidth: 0
Flags: HW
LayerCount: 2
Fore
SplineSet
1939.890625 2155 m 257
 1823.78417969 1836 l 257
 2021.78417969 1836 l 257
 2137.890625 2155 l 257
 1939.890625 2155 l 257
1870.46484375 1967 m 257
 1798.03417969 1768 l 257
 2481.03417969 1768 l 257
 2553.46484375 1967 l 257
 1870.46484375 1967 l 257
2350.4609375 1956 m 257
 2190.31445312 1516 l 257
 2391.31445312 1516 l 257
 2551.4609375 1956 l 257
 2350.4609375 1956 l 257
2168.9609375 1548 m 257
 2095.80273438 1347 l 257
 2404.80273438 1347 l 257
 2477.9609375 1548 l 257
 2168.9609375 1548 l 257
2183.00878906 1419 m 257
 1666.53515625 0 l 257
 1865.53515625 0 l 257
 2382.00878906 1419 l 257
 2183.00878906 1419 l 257
1502.9609375 1548 m 257
 1430.16699219 1348 l 257
 1953.16699219 1348 l 257
 2025.9609375 1548 l 257
 1502.9609375 1548 l 257
1851.9609375 1548 m 257
 1339.49121094 140 l 257
 1539.49121094 140 l 257
 2051.9609375 1548 l 257
 1851.9609375 1548 l 257
1348.92480469 894 m 257
 1275.76660156 693 l 257
 1972.76660156 693 l 257
 2045.92480469 894 l 257
 1348.92480469 894 l 257
987.693359375 201 m 257
 914.53515625 0 l 257
 1488.53515625 0 l 257
 1561.69335938 201 l 257
 987.693359375 201 l 257
EndSplineSet
EndChar

StartChar: uni0905
Encoding: 2309 2309 366
GlifName: uni0905
Width: 3320
VWidth: 0
Flags: HW
LayerCount: 2
Fore
SplineSet
2131.71289062 1548 m 257
 2058.91894531 1348 l 257
 2369.91894531 1348 l 257
 2442.71289062 1548 l 257
 2131.71289062 1548 l 257
2145.76074219 1419 m 257
 1629.28710938 0 l 257
 1828.28710938 0 l 257
 2344.76074219 1419 l 257
 2145.76074219 1419 l 257
1465.71289062 1548 m 257
 1392.91894531 1348 l 257
 1915.91894531 1348 l 257
 1988.71289062 1548 l 257
 1465.71289062 1548 l 257
1814.71289062 1548 m 257
 1302.24316406 140 l 257
 1502.24316406 140 l 257
 2014.71289062 1548 l 257
 1814.71289062 1548 l 257
1311.67675781 894 m 257
 1238.51855469 693 l 257
 1935.51855469 693 l 257
 2008.67675781 894 l 257
 1311.67675781 894 l 257
950.4453125 201 m 257
 877.287109375 0 l 257
 1451.28710938 0 l 257
 1524.4453125 201 l 257
 950.4453125 201 l 257
EndSplineSet
EndChar

StartChar: uni0906
Encoding: 2310 2310 367
GlifName: uni0906
Width: 3366
VWidth: 0
Flags: HW
LayerCount: 2
Fore
SplineSet
1980.21289062 1548 m 257
 1907.41894531 1348 l 257
 2404.41894531 1348 l 257
 2477.21289062 1548 l 257
 1980.21289062 1548 l 257
1949.26074219 1419 m 257
 1432.78710938 0 l 257
 1631.78710938 0 l 257
 2148.26074219 1419 l 257
 1949.26074219 1419 l 257
1477.21289062 1548 m 257
 1404.41894531 1348 l 257
 1764.41894531 1348 l 257
 1837.21289062 1548 l 257
 1477.21289062 1548 l 257
1663.21289062 1548 m 257
 1150.74316406 140 l 257
 1350.74316406 140 l 257
 1863.21289062 1548 l 257
 1663.21289062 1548 l 257
1323.17675781 894 m 257
 1250.01855469 693 l 257
 1784.01855469 693 l 257
 1857.17675781 894 l 257
 1323.17675781 894 l 257
961.9453125 201 m 257
 888.787109375 0 l 257
 1299.78710938 0 l 257
 1372.9453125 201 l 257
 961.9453125 201 l 257
2216.625 1420 m 257
 1699.78710938 0 l 257
 1898.78710938 0 l 257
 2415.625 1420 l 257
 2216.625 1420 l 257
EndSplineSet
EndChar

StartChar: uni0907
Encoding: 2311 2311 368
GlifName: uni0907
Width: 3024
VWidth: 0
Flags: HW
LayerCount: 2
Fore
SplineSet
1196.1171875 1548 m 257
 1123.32324219 1348 l 257
 2148.32324219 1348 l 257
 2221.1171875 1548 l 257
 1196.1171875 1548 l 257
1735.56542969 1530 m 257
 1582.69824219 1110 l 257
 1782.69824219 1110 l 257
 1935.56542969 1530 l 257
 1735.56542969 1530 l 257
1236.27539062 1205 m 257
 1163.1171875 1004 l 257
 1744.1171875 1004 l 257
 1817.27539062 1205 l 257
 1236.27539062 1205 l 257
1227.54003906 1181 m 257
 1066.30175781 738 l 257
 1236.30175781 738 l 257
 1397.54003906 1181 l 257
 1227.54003906 1181 l 257
1118.34960938 881 m 257
 1045.5546875 681 l 257
 1640.5546875 681 l 257
 1713.34960938 881 l 257
 1118.34960938 881 l 257
1592.34960938 881 m 257
 1372.875 278 l 257
 1571.875 278 l 257
 1791.34960938 881 l 257
 1592.34960938 881 l 257
884.154296875 298 m 257
 810.99609375 97 l 257
 1505.99609375 97 l 257
 1579.15429688 298 l 257
 884.154296875 298 l 257
1000.15429688 298 m 257
 802.8828125 -244 l 257
 1002.8828125 -244 l 257
 1200.15429688 298 l 257
 1000.15429688 298 l 257
EndSplineSet
EndChar

StartChar: uni0908
Encoding: 2312 2312 369
GlifName: uni0908
Width: 3024
VWidth: 0
Flags: HW
LayerCount: 2
Fore
SplineSet
1196.1171875 1548 m 257
 1123.32324219 1348 l 257
 2148.32324219 1348 l 257
 2221.1171875 1548 l 257
 1196.1171875 1548 l 257
1742.1171875 1548 m 257
 1580.51464844 1104 l 257
 1780.51464844 1104 l 257
 1942.1171875 1548 l 257
 1742.1171875 1548 l 257
1236.27539062 1205 m 257
 1163.1171875 1004 l 257
 1744.1171875 1004 l 257
 1817.27539062 1205 l 257
 1236.27539062 1205 l 257
1227.54003906 1181 m 257
 1066.30175781 738 l 257
 1266.30175781 738 l 257
 1427.54003906 1181 l 257
 1227.54003906 1181 l 257
1118.34960938 881 m 257
 1045.5546875 681 l 257
 1640.5546875 681 l 257
 1713.34960938 881 l 257
 1118.34960938 881 l 257
1610.34960938 881 m 257
 1393.42285156 285 l 257
 1574.42285156 285 l 257
 1791.34960938 881 l 257
 1610.34960938 881 l 257
884.154296875 298 m 257
 810.99609375 97 l 257
 1508.99609375 97 l 257
 1582.15429688 298 l 257
 884.154296875 298 l 257
1000.15429688 298 m 257
 802.8828125 -244 l 257
 1025.8828125 -244 l 257
 1223.15429688 298 l 257
 1000.15429688 298 l 257
1544.91894531 1770 m 257
 1665.62109375 1423 l 257
 1870.11328125 1537 l 257
 1749.13964844 1886 l 257
 1544.91894531 1770 l 257
EndSplineSet
EndChar

StartChar: uni0909
Encoding: 2313 2313 370
GlifName: uni0909
Width: 3108
VWidth: 0
Flags: HW
LayerCount: 2
Fore
SplineSet
1257.71289062 1548 m 257
 1184.91894531 1348 l 257
 2210.91894531 1348 l 257
 2283.71289062 1548 l 257
 1257.71289062 1548 l 257
1731.16113281 1530 m 257
 1538.62109375 1001 l 257
 1737.62109375 1001 l 257
 1930.16113281 1530 l 257
 1731.16113281 1530 l 257
1309.27246094 1044 m 257
 1236.84179688 845 l 257
 1878.84179688 845 l 257
 1951.27246094 1044 l 257
 1309.27246094 1044 l 257
1734.07324219 994 m 257
 1372.28710938 0 l 257
 1572.28710938 0 l 257
 1934.07324219 994 l 257
 1734.07324219 994 l 257
897.4453125 201 m 257
 824.287109375 0 l 257
 1561.28710938 0 l 257
 1634.4453125 201 l 257
 897.4453125 201 l 257
956.408203125 363 m 257
 837.389648438 36 l 257
 1037.38964844 36 l 257
 1156.40820312 363 l 257
 956.408203125 363 l 257
EndSplineSet
EndChar

StartChar: uni090A
Encoding: 2314 2314 371
GlifName: uni090A_
Width: 3272
VWidth: 0
Flags: HW
LayerCount: 2
Fore
SplineSet
1381.30273438 1548 m 257
 1308.50878906 1348 l 257
 2333.50878906 1348 l 257
 2406.30273438 1548 l 257
 1381.30273438 1548 l 257
1682.75097656 1530 m 257
 1490.2109375 1001 l 257
 1689.2109375 1001 l 257
 1881.75097656 1530 l 257
 1682.75097656 1530 l 257
1348.86230469 1044 m 257
 1276.43164062 845 l 257
 2099.43164062 845 l 257
 2171.86230469 1044 l 257
 1348.86230469 1044 l 257
1666.66308594 994 m 257
 1308.88085938 11 l 257
 1508.88085938 11 l 257
 1866.66308594 994 l 257
 1666.66308594 994 l 257
938.126953125 204 m 257
 865.697265625 5 l 257
 1503.69726562 5 l 257
 1576.12695312 204 l 257
 938.126953125 204 l 257
997.08984375 366 m 257
 878.072265625 39 l 257
 1078.07226562 39 l 257
 1197.08984375 366 l 257
 997.08984375 366 l 257
1937.19238281 946 m 257
 1671.85839844 217 l 257
 1870.85839844 217 l 257
 2136.19238281 946 l 257
 1937.19238281 946 l 257
EndSplineSet
EndChar

StartChar: uni090B
Encoding: 2315 2315 372
GlifName: uni090B_
Width: 2896
VWidth: 0
Flags: HW
LayerCount: 2
Fore
SplineSet
1097.33984375 1548 m 257
 1023.81835938 1346 l 257
 2050.81835938 1346 l 257
 2124.33984375 1548 l 257
 1097.33984375 1548 l 257
1606.96875 1525 m 257
 1051.9140625 0 l 257
 1250.9140625 0 l 257
 1805.96875 1525 l 257
 1606.96875 1525 l 257
935.899414062 1044 m 257
 863.46875 845 l 257
 1167.46875 845 l 257
 1239.89941406 1044 l 257
 935.899414062 1044 l 257
1225.44335938 496 m 257
 771.66015625 329 l 257
 783.4140625 136 l 257
 1237.19726562 303 l 257
 1225.44335938 496 l 257
1239.89941406 1044 m 257
 1167.83300781 846 l 257
 1411.97949219 742 l 257
 1485.50195312 944 l 257
 1239.89941406 1044 l 257
1555.39550781 897 m 257
 1483.32910156 699 l 257
 1798.32910156 699 l 257
 1870.39550781 897 l 257
 1555.39550781 897 l 257
1648.39550781 897 m 257
 1417.27441406 262 l 257
 1616.27441406 262 l 257
 1847.39550781 897 l 257
 1648.39550781 897 l 257
1566.06835938 462 m 257
 1493.27441406 262 l 257
 1657.27441406 262 l 257
 1730.06835938 462 l 257
 1566.06835938 462 l 257
EndSplineSet
EndChar

StartChar: uni090C
Encoding: 2316 2316 373
GlifName: uni090C_
Width: 3102
VWidth: 0
Flags: HW
LayerCount: 2
Fore
SplineSet
1252.85253906 1548 m 257
 1180.78613281 1350 l 257
 2206.78613281 1350 l 257
 2278.85253906 1548 l 257
 1252.85253906 1548 l 257
1801.1171875 1524 m 257
 1497.20214844 689 l 257
 1697.20214844 689 l 257
 2001.1171875 1524 l 257
 1801.1171875 1524 l 257
1922.32714844 791 m 257
 1018.32714844 791 l 257
 945.168945312 590 l 257
 1849.16894531 590 l 257
 1922.32714844 791 l 257
1014.23144531 777 m 257
 823.147460938 252 l 257
 1024.14746094 252 l 257
 1215.23144531 777 l 257
 1014.23144531 777 l 257
1370.32714844 791 m 257
 1240.02539062 433 l 257
 1441.02539062 433 l 257
 1571.32714844 791 l 257
 1370.32714844 791 l 257
1722.32714844 791 m 257
 1460.6328125 72 l 257
 1660.6328125 72 l 257
 1922.32714844 791 l 257
 1722.32714844 791 l 257
1604.05859375 260 m 257
 1535.6328125 72 l 257
 1736.6328125 72 l 257
 1805.05859375 260 l 257
 1604.05859375 260 l 257
EndSplineSet
EndChar

StartChar: uni090D
Encoding: 2317 2317 374
GlifName: uni090D_
Width: 2882
VWidth: 0
Flags: HW
LayerCount: 2
Fore
SplineSet
1080.88378906 1548 m 257
 1008.08984375 1348 l 257
 2034.08984375 1348 l 257
 2106.88378906 1548 l 257
 1080.88378906 1548 l 257
1809.88378906 1548 m 257
 1529.99121094 779 l 257
 1728.99121094 779 l 257
 2008.88378906 1548 l 257
 1809.88378906 1548 l 257
1457.82910156 839 m 257
 1385.03515625 639 l 257
 1678.03515625 639 l 257
 1750.82910156 839 l 257
 1457.82910156 839 l 257
1220.70019531 1542 m 257
 782.479492188 338 l 257
 981.479492188 338 l 257
 1419.70019531 1542 l 257
 1220.70019531 1542 l 257
839.987304688 496 m 257
 767.557617188 297 l 257
 1374.55761719 297 l 257
 1446.98730469 496 l 257
 839.987304688 496 l 257
1197.75976562 358 m 257
 1031.7890625 -98 l 257
 1230.7890625 -98 l 257
 1396.75976562 358 l 257
 1197.75976562 358 l 257
941.21875 101 m 257
 868.7890625 -98 l 257
 1228.7890625 -98 l 257
 1301.21875 101 l 257
 941.21875 101 l 257
1447.53125 2124 m 257
 1271.00488281 1639 l 257
 1470.00488281 1639 l 257
 1646.53125 2124 l 257
 1447.53125 2124 l 257
1390.16308594 1840 m 257
 1317.73339844 1641 l 257
 1911.73339844 1641 l 257
 1984.16308594 1840 l 257
 1390.16308594 1840 l 257
1915.44238281 2132 m 257
 1736.73339844 1641 l 257
 1935.73339844 1641 l 257
 2114.44238281 2132 l 257
 1915.44238281 2132 l 257
EndSplineSet
EndChar

StartChar: uni090E
Encoding: 2318 2318 375
GlifName: uni090E_
Width: 3054
VWidth: 0
Flags: HW
LayerCount: 2
Fore
SplineSet
1174.54199219 1548 m 257
 1101.74804688 1348 l 257
 2127.74804688 1348 l 257
 2200.54199219 1548 l 257
 1174.54199219 1548 l 257
1850.76660156 1403 m 257
 1623.64941406 779 l 257
 1822.64941406 779 l 257
 2049.76660156 1403 l 257
 1850.76660156 1403 l 257
1602.44335938 979 m 257
 1529.64941406 779 l 257
 1822.64941406 779 l 257
 1895.44335938 979 l 257
 1602.44335938 979 l 257
1314.35839844 1542 m 257
 876.137695312 338 l 257
 1075.13769531 338 l 257
 1513.35839844 1542 l 257
 1314.35839844 1542 l 257
883.41796875 358 m 257
 810.987304688 159 l 257
 1410.98730469 159 l 257
 1483.41796875 358 l 257
 883.41796875 358 l 257
1282.41796875 358 m 257
 1116.44726562 -98 l 257
 1317.44726562 -98 l 257
 1483.41796875 358 l 257
 1282.41796875 358 l 257
979.28515625 -38 m 257
 906.491210938 -238 l 257
 1266.49121094 -238 l 257
 1339.28515625 -38 l 257
 979.28515625 -38 l 257
1631.62304688 2062 m 257
 1544.63378906 1823 l 257
 1744.63378906 1823 l 257
 1831.62304688 2062 l 257
 1631.62304688 2062 l 257
1560.01269531 1868 m 257
 1486.85449219 1667 l 257
 2169.85449219 1667 l 257
 2243.01269531 1868 l 257
 1560.01269531 1868 l 257
2037.37304688 1858 m 257
 1920.53808594 1537 l 257
 2122.53808594 1537 l 257
 2239.37304688 1858 l 257
 2037.37304688 1858 l 257
EndSplineSet
EndChar

StartChar: uni090F
Encoding: 2319 2319 376
GlifName: uni090F_
Width: 2874
VWidth: 0
Flags: HW
LayerCount: 2
Fore
SplineSet
1082.66308594 1548 m 257
 1009.86914062 1348 l 257
 2035.86914062 1348 l 257
 2108.66308594 1548 l 257
 1082.66308594 1548 l 257
1806.66308594 1548 m 257
 1527.86230469 782 l 257
 1727.86230469 782 l 257
 2006.66308594 1548 l 257
 1806.66308594 1548 l 257
1506.56445312 979 m 257
 1433.77050781 779 l 257
 1726.77050781 779 l 257
 1799.56445312 979 l 257
 1506.56445312 979 l 257
1218.47949219 1542 m 257
 780.258789062 338 l 257
 980.258789062 338 l 257
 1418.47949219 1542 l 257
 1218.47949219 1542 l 257
838.130859375 497 m 257
 765.336914062 297 l 257
 1365.33691406 297 l 257
 1438.13085938 497 l 257
 838.130859375 497 l 257
1236.39550781 473 m 257
 1028.56835938 -98 l 257
 1228.56835938 -98 l 257
 1436.39550781 473 l 257
 1236.39550781 473 l 257
939.362304688 102 m 257
 866.568359375 -98 l 257
 1226.56835938 -98 l 257
 1299.36230469 102 l 257
 939.362304688 102 l 257
EndSplineSet
EndChar

StartChar: uni0910
Encoding: 2320 2320 377
GlifName: uni0910
Width: 2876
VWidth: 0
Flags: HW
LayerCount: 2
Fore
SplineSet
1083.66308594 1548 m 257
 1010.86914062 1348 l 257
 2036.86914062 1348 l 257
 2109.66308594 1548 l 257
 1083.66308594 1548 l 257
1807.66308594 1548 m 257
 1527.77050781 779 l 257
 1727.77050781 779 l 257
 2007.66308594 1548 l 257
 1807.66308594 1548 l 257
1507.56445312 979 m 257
 1434.77050781 779 l 257
 1727.77050781 779 l 257
 1800.56445312 979 l 257
 1507.56445312 979 l 257
1219.47949219 1542 m 257
 781.258789062 338 l 257
 981.258789062 338 l 257
 1419.47949219 1542 l 257
 1219.47949219 1542 l 257
839.130859375 497 m 257
 766.336914062 297 l 257
 1366.33691406 297 l 257
 1439.13085938 497 l 257
 839.130859375 497 l 257
1230.39550781 473 m 257
 1022.56835938 -98 l 257
 1222.56835938 -98 l 257
 1430.39550781 473 l 257
 1230.39550781 473 l 257
940.362304688 102 m 257
 867.568359375 -98 l 257
 1227.56835938 -98 l 257
 1300.36230469 102 l 257
 940.362304688 102 l 257
1647.59277344 1883 m 257
 1799.80664062 1433 l 257
 2005.66308594 1548 l 257
 1853.45019531 1998 l 257
 1647.59277344 1883 l 257
EndSplineSet
EndChar

StartChar: uni0911
Encoding: 2321 2321 378
GlifName: uni0911
Width: 3752
VWidth: 0
Flags: HW
LayerCount: 2
Fore
SplineSet
2076.85058594 1548 m 257
 2004.05664062 1348 l 257
 2501.05664062 1348 l 257
 2573.85058594 1548 l 257
 2076.85058594 1548 l 257
2045.8984375 1419 m 257
 1529.42480469 0 l 257
 1728.42480469 0 l 257
 2244.8984375 1419 l 257
 2045.8984375 1419 l 257
1573.85058594 1548 m 257
 1501.05664062 1348 l 257
 1861.05664062 1348 l 257
 1933.85058594 1548 l 257
 1573.85058594 1548 l 257
1759.85058594 1548 m 257
 1247.38085938 140 l 257
 1447.38085938 140 l 257
 1959.85058594 1548 l 257
 1759.85058594 1548 l 257
1419.81445312 894 m 257
 1346.65625 693 l 257
 1880.65625 693 l 257
 1953.81445312 894 l 257
 1419.81445312 894 l 257
1058.58300781 201 m 257
 985.424804688 0 l 257
 1396.42480469 0 l 257
 1469.58300781 201 l 257
 1058.58300781 201 l 257
2313.26269531 1420 m 257
 1796.42480469 0 l 257
 1995.42480469 0 l 257
 2512.26269531 1420 l 257
 2313.26269531 1420 l 257
2276.30273438 2085 m 257
 2113.97167969 1639 l 257
 2313.97167969 1639 l 257
 2476.30273438 2085 l 257
 2276.30273438 2085 l 257
2186.765625 1839 m 257
 2113.60839844 1638 l 257
 2604.60839844 1638 l 257
 2677.765625 1839 l 257
 2186.765625 1839 l 257
2566.57519531 2083 m 257
 2405.70019531 1641 l 257
 2605.70019531 1641 l 257
 2766.57519531 2083 l 257
 2566.57519531 2083 l 257
EndSplineSet
EndChar

StartChar: uni0912
Encoding: 2322 2322 379
GlifName: uni0912
Width: 3518
VWidth: 0
Flags: HW
LayerCount: 2
Fore
SplineSet
2018.4609375 1548 m 257
 1945.66699219 1348 l 257
 2442.66699219 1348 l 257
 2515.4609375 1548 l 257
 2018.4609375 1548 l 257
1992.50878906 1419 m 257
 1476.03515625 0 l 257
 1675.03515625 0 l 257
 2191.50878906 1419 l 257
 1992.50878906 1419 l 257
1515.4609375 1548 m 257
 1442.66699219 1348 l 257
 1802.66699219 1348 l 257
 1875.4609375 1548 l 257
 1515.4609375 1548 l 257
1701.4609375 1548 m 257
 1188.99121094 140 l 257
 1388.99121094 140 l 257
 1901.4609375 1548 l 257
 1701.4609375 1548 l 257
1361.42480469 894 m 257
 1288.26660156 693 l 257
 1822.26660156 693 l 257
 1895.42480469 894 l 257
 1361.42480469 894 l 257
1000.19335938 201 m 257
 927.03515625 0 l 257
 1338.03515625 0 l 257
 1411.19335938 201 l 257
 1000.19335938 201 l 257
2254.87304688 1420 m 257
 1738.03515625 0 l 257
 1937.03515625 0 l 257
 2453.87304688 1420 l 257
 2254.87304688 1420 l 257
1977.390625 2155 m 257
 1861.28417969 1836 l 257
 2059.28417969 1836 l 257
 2175.390625 2155 l 257
 1977.390625 2155 l 257
1907.96484375 1967 m 257
 1835.53417969 1768 l 257
 2518.53417969 1768 l 257
 2590.96484375 1967 l 257
 1907.96484375 1967 l 257
2387.9609375 1956 m 257
 2227.81445312 1516 l 257
 2428.81445312 1516 l 257
 2588.9609375 1956 l 257
 2387.9609375 1956 l 257
EndSplineSet
EndChar

StartChar: uni0913
Encoding: 2323 2323 380
GlifName: uni0913
Width: 3356
VWidth: 0
Flags: HW
LayerCount: 2
Fore
SplineSet
1972.71289062 1548 m 257
 1899.91894531 1348 l 257
 2396.91894531 1348 l 257
 2469.71289062 1548 l 257
 1972.71289062 1548 l 257
1941.76074219 1419 m 257
 1425.28710938 0 l 257
 1624.28710938 0 l 257
 2140.76074219 1419 l 257
 1941.76074219 1419 l 257
1469.71289062 1548 m 257
 1396.91894531 1348 l 257
 1756.91894531 1348 l 257
 1829.71289062 1548 l 257
 1469.71289062 1548 l 257
1655.71289062 1548 m 257
 1143.24316406 140 l 257
 1343.24316406 140 l 257
 1855.71289062 1548 l 257
 1655.71289062 1548 l 257
1315.67675781 894 m 257
 1242.51855469 693 l 257
 1776.51855469 693 l 257
 1849.67675781 894 l 257
 1315.67675781 894 l 257
959.4453125 201 m 257
 886.287109375 0 l 257
 1292.28710938 0 l 257
 1365.4453125 201 l 257
 959.4453125 201 l 257
2210.21679688 1423 m 257
 1692.28710938 0 l 257
 1891.28710938 0 l 257
 2409.21679688 1423 l 257
 2210.21679688 1423 l 257
2163.78613281 1768 m 257
 2211.95605469 1458 l 257
 2422.71289062 1548 l 257
 2374.63574219 1861 l 257
 2163.78613281 1768 l 257
EndSplineSet
EndChar

StartChar: uni0914
Encoding: 2324 2324 381
GlifName: uni0914
Width: 3464
VWidth: 0
Flags: HW
LayerCount: 2
Fore
SplineSet
1993.13867188 1548 m 257
 1920.34570312 1348 l 257
 2417.34570312 1348 l 257
 2490.13867188 1548 l 257
 1993.13867188 1548 l 257
1962.1875 1419 m 257
 1445.71289062 0 l 257
 1644.71289062 0 l 257
 2161.1875 1419 l 257
 1962.1875 1419 l 257
1490.13867188 1548 m 257
 1417.34570312 1348 l 257
 1777.34570312 1348 l 257
 1850.13867188 1548 l 257
 1490.13867188 1548 l 257
1676.13867188 1548 m 257
 1163.66992188 140 l 257
 1363.66992188 140 l 257
 1876.13867188 1548 l 257
 1676.13867188 1548 l 257
1336.10351562 894 m 257
 1262.9453125 693 l 257
 1796.9453125 693 l 257
 1870.10351562 894 l 257
 1336.10351562 894 l 257
986.87109375 201 m 257
 913.712890625 0 l 257
 1312.71289062 0 l 257
 1385.87109375 201 l 257
 986.87109375 201 l 257
2229.55078125 1420 m 257
 1712.71289062 0 l 257
 1911.71289062 0 l 257
 2428.55078125 1420 l 257
 2229.55078125 1420 l 257
1877.66210938 1750 m 257
 2084.13867188 1548 l 257
 2376.13867188 1548 l 257
 2069.34960938 1903 l 257
 1877.66210938 1750 l 257
2339.09179688 1949 m 257
 2246.67578125 1522 l 257
 2468.13867188 1548 l 257
 2550.28710938 1988 l 257
 2339.09179688 1949 l 257
EndSplineSet
EndChar

StartChar: uni0915
Encoding: 2325 2325 382
GlifName: uni0915
Width: 2780
VWidth: 0
Flags: HW
LayerCount: 2
Fore
SplineSet
1012.59375 1548 m 257
 939.798828125 1348 l 257
 1964.79882812 1348 l 257
 2037.59375 1548 l 257
 1012.59375 1548 l 257
1522.94726562 1516 m 257
 974.806640625 10 l 257
 1174.80664062 10 l 257
 1722.94726562 1516 l 257
 1522.94726562 1516 l 257
955.693359375 1029 m 257
 882.53515625 828 l 257
 1245.53515625 828 l 257
 1318.69335938 1029 l 257
 955.693359375 1029 l 257
941.134765625 989 m 257
 742.40625 443 l 257
 940.40625 443 l 257
 1139.13476562 989 l 257
 941.134765625 989 l 257
834.65625 647 m 257
 760.40625 443 l 257
 1186.40625 443 l 257
 1260.65625 647 l 257
 834.65625 647 l 257
1395.27734375 874 m 257
 1322.84765625 675 l 257
 1628.84765625 675 l 257
 1701.27734375 874 l 257
 1395.27734375 874 l 257
1552.27734375 874 m 257
 1445.99804688 582 l 257
 1644.99804688 582 l 257
 1751.27734375 874 l 257
 1552.27734375 874 l 257
EndSplineSet
EndChar

StartChar: uni0915_uni0930_uni094D.vatu
Encoding: 65537 -1 383
GlifName: uni0915_uni0930_uni094D_.vatu
Width: 3198
VWidth: 0
Flags: HW
LayerCount: 2
Fore
SplineSet
1335.21289062 1548 m 257
 1262.0546875 1347 l 257
 2278.0546875 1347 l 257
 2351.21289062 1548 l 257
 1335.21289062 1548 l 257
1845.56640625 1516 m 257
 1297.42675781 10 l 257
 1497.42675781 10 l 257
 2045.56640625 1516 l 257
 1845.56640625 1516 l 257
1278.3125 1029 m 257
 1205.15429688 828 l 257
 1687.15429688 828 l 257
 1760.3125 1029 l 257
 1278.3125 1029 l 257
1266.75390625 989 m 257
 1068.02636719 443 l 257
 1266.02636719 443 l 257
 1464.75390625 989 l 257
 1266.75390625 989 l 257
1155.8203125 643 m 257
 1081.5703125 439 l 257
 1507.5703125 439 l 257
 1581.8203125 643 l 257
 1155.8203125 643 l 257
1717.89746094 874 m 257
 1645.46679688 675 l 257
 1951.46679688 675 l 257
 2023.89746094 874 l 257
 1717.89746094 874 l 257
1876.71679688 879 m 257
 1770.4375 587 l 257
 1969.4375 587 l 257
 2075.71679688 879 l 257
 1876.71679688 879 l 257
846.787109375 0 m 257
 1103.78710938 0 l 257
 1522.04101562 215 l 257
 1595.19824219 416 l 257
 846.787109375 0 l 257
EndSplineSet
EndChar

StartChar: uni0915_uni094D.half
Encoding: 65538 -1 384
GlifName: uni0915_uni094D_.half
Width: 2756
VWidth: 0
Flags: HW
LayerCount: 2
Fore
SplineSet
1003.59375 1548 m 257
 930.435546875 1347 l 257
 1946.43554688 1347 l 257
 2019.59375 1548 l 257
 1003.59375 1548 l 257
1513.94726562 1516 m 257
 965.806640625 10 l 257
 1165.80664062 10 l 257
 1713.94726562 1516 l 257
 1513.94726562 1516 l 257
946.693359375 1029 m 257
 873.53515625 828 l 257
 1355.53515625 828 l 257
 1428.69335938 1029 l 257
 946.693359375 1029 l 257
935.134765625 989 m 257
 736.40625 443 l 257
 934.40625 443 l 257
 1133.13476562 989 l 257
 935.134765625 989 l 257
824.201171875 643 m 257
 749.951171875 439 l 257
 1175.95117188 439 l 257
 1250.20117188 643 l 257
 824.201171875 643 l 257
1386.27734375 874 m 257
 1313.84765625 675 l 257
 1698.84765625 675 l 257
 1771.27734375 874 l 257
 1386.27734375 874 l 257
EndSplineSet
EndChar

StartChar: uni0915_uni094D_uni0937.akhn
Encoding: 65540 -1 386
GlifName: uni0915_uni094D__uni0937.akhn
Width: 2928
VWidth: 0
Flags: HW
LayerCount: 2
Fore
SplineSet
1789.50390625 1548 m 257
 1717.80078125 1351 l 257
 2076.80078125 1351 l 257
 2148.50390625 1548 l 257
 1789.50390625 1548 l 257
1833.03710938 1511 m 257
 1283.078125 0 l 257
 1482.078125 0 l 257
 2032.03710938 1511 l 257
 1833.03710938 1511 l 257
1001.4375 1078 m 257
 928.642578125 878 l 257
 1801.64257812 878 l 257
 1874.4375 1078 l 257
 1001.4375 1078 l 257
980.419921875 1023 m 257
 1181.41992188 1023 l 257
 1326.64257812 1422 l 257
 1125.64257812 1422 l 257
 980.419921875 1023 l 257
1131.375 1435 m 257
 1058.58007812 1235 l 257
 1577.58007812 1235 l 257
 1650.375 1435 l 257
 1131.375 1435 l 257
1446.64257812 1422 m 257
 1250.09960938 882 l 257
 1448.09960938 882 l 257
 1644.64257812 1422 l 257
 1446.64257812 1422 l 257
950.19921875 635 m 257
 1147.19921875 635 l 257
 1446.37109375 880 l 257
 1248.37109375 880 l 257
 950.19921875 635 l 257
950.19921875 635 m 257
 791.87109375 200 l 257
 990.87109375 200 l 257
 1149.19921875 635 l 257
 950.19921875 635 l 257
852.654296875 367 m 257
 779.49609375 166 l 257
 1503.49609375 166 l 257
 1576.65429688 367 l 257
 852.654296875 367 l 257
EndSplineSet
EndChar

StartChar: uni0915_uni094D_uni0937.half
Encoding: 65541 -1 387
GlifName: uni0915_uni094D__uni0937.half
Width: 2928
VWidth: 0
Flags: HW
LayerCount: 2
Fore
SplineSet
1789.50390625 1548 m 257
 1717.80078125 1351 l 257
 2076.80078125 1351 l 257
 2148.50390625 1548 l 257
 1789.50390625 1548 l 257
1001.4375 1078 m 257
 928.642578125 878 l 257
 2001.64257812 878 l 257
 2074.4375 1078 l 257
 1001.4375 1078 l 257
980.419921875 1023 m 257
 1181.41992188 1023 l 257
 1326.64257812 1422 l 257
 1125.64257812 1422 l 257
 980.419921875 1023 l 257
1131.375 1435 m 257
 1058.58007812 1235 l 257
 1577.58007812 1235 l 257
 1650.375 1435 l 257
 1131.375 1435 l 257
1446.64257812 1422 m 257
 1250.09960938 882 l 257
 1448.09960938 882 l 257
 1644.64257812 1422 l 257
 1446.64257812 1422 l 257
950.19921875 635 m 257
 1147.19921875 635 l 257
 1446.37109375 880 l 257
 1248.37109375 880 l 257
 950.19921875 635 l 257
950.19921875 635 m 257
 791.87109375 200 l 257
 990.87109375 200 l 257
 1149.19921875 635 l 257
 950.19921875 635 l 257
852.654296875 367 m 257
 779.49609375 166 l 257
 1703.49609375 166 l 257
 1776.65429688 367 l 257
 852.654296875 367 l 257
EndSplineSet
EndChar

StartChar: uni0916
Encoding: 2326 2326 389
GlifName: uni0916
Width: 3086
VWidth: 0
Flags: HW
LayerCount: 2
Fore
SplineSet
1236.97460938 1548 m 257
 1164.54492188 1349 l 257
 2194.54492188 1349 l 257
 2266.97460938 1548 l 257
 1236.97460938 1548 l 257
1921.59960938 1514 m 257
 1370.54882812 0 l 257
 1570.54882812 0 l 257
 2121.59960938 1514 l 257
 1921.59960938 1514 l 257
1465.875 979 m 257
 1393.08203125 779 l 257
 1621.08203125 779 l 257
 1693.875 979 l 257
 1465.875 979 l 257
1435.875 979 m 257
 1245.8828125 457 l 257
 1445.8828125 457 l 257
 1635.875 979 l 257
 1435.875 979 l 257
1286.28320312 568 m 257
 1213.49023438 368 l 257
 1556.49023438 368 l 257
 1629.28320312 568 l 257
 1286.28320312 568 l 257
1319.02929688 1441 m 257
 838.224609375 120 l 257
 1038.22460938 120 l 257
 1519.02929688 1441 l 257
 1319.02929688 1441 l 257
956.703125 734 m 257
 883.908203125 534 l 257
 1187.90820312 534 l 257
 1260.703125 734 l 257
 956.703125 734 l 257
891.8203125 270 m 257
 819.025390625 70 l 257
 1533.02539062 70 l 257
 1605.8203125 270 l 257
 891.8203125 270 l 257
EndSplineSet
EndChar

StartChar: uni0916_uni0930_uni094D.vatu
Encoding: 65543 -1 390
GlifName: uni0916_uni0930_uni094D_.vatu
Width: 3212
VWidth: 0
Flags: HW
LayerCount: 2
Fore
SplineSet
850.287109375 0 m 257
 1107.28710938 0 l 257
 1525.54101562 215 l 257
 1598.69824219 416 l 257
 850.287109375 0 l 257
1331.71289062 1548 m 257
 1259.28320312 1349 l 257
 2289.28320312 1349 l 257
 2361.71289062 1548 l 257
 1331.71289062 1548 l 257
2016.33789062 1514 m 257
 1465.28710938 0 l 257
 1665.28710938 0 l 257
 2216.33789062 1514 l 257
 2016.33789062 1514 l 257
1621.03320312 1145 m 257
 1548.23925781 945 l 257
 1776.23925781 945 l 257
 1849.03320312 1145 l 257
 1621.03320312 1145 l 257
1591.03320312 1145 m 257
 1401.04101562 623 l 257
 1601.04101562 623 l 257
 1791.03320312 1145 l 257
 1591.03320312 1145 l 257
1441.44140625 734 m 257
 1368.64746094 534 l 257
 1711.64746094 534 l 257
 1784.44140625 734 l 257
 1441.44140625 734 l 257
1413.76855469 1441 m 257
 993.3828125 286 l 257
 1193.3828125 286 l 257
 1613.76855469 1441 l 257
 1413.76855469 1441 l 257
1111.86035156 900 m 257
 1039.06640625 700 l 257
 1343.06640625 700 l 257
 1415.86035156 900 l 257
 1111.86035156 900 l 257
1046.97851562 436 m 257
 974.184570312 236 l 257
 1688.18457031 236 l 257
 1760.97851562 436 l 257
 1046.97851562 436 l 257
EndSplineSet
EndChar

StartChar: uni0916_uni094D.half
Encoding: 65544 -1 391
GlifName: uni0916_uni094D_.half
Width: 2698
VWidth: 0
Flags: HW
LayerCount: 2
Fore
SplineSet
945.974609375 1548 m 257
 873.544921875 1349 l 257
 1903.54492188 1349 l 257
 1975.97460938 1548 l 257
 945.974609375 1548 l 257
1368.875 979 m 257
 1296.08203125 779 l 257
 1524.08203125 779 l 257
 1596.875 979 l 257
 1368.875 979 l 257
1338.875 979 m 257
 1148.8828125 457 l 257
 1348.8828125 457 l 257
 1538.875 979 l 257
 1338.875 979 l 257
1189.28320312 568 m 257
 1116.49023438 368 l 257
 1538.49023438 368 l 257
 1611.28320312 568 l 257
 1189.28320312 568 l 257
1222.02929688 1441 m 257
 741.224609375 120 l 257
 941.224609375 120 l 257
 1422.02929688 1441 l 257
 1222.02929688 1441 l 257
859.703125 734 m 257
 786.908203125 534 l 257
 1090.90820312 534 l 257
 1163.703125 734 l 257
 859.703125 734 l 257
794.8203125 270 m 257
 722.025390625 70 l 257
 1436.02539062 70 l 257
 1508.8203125 270 l 257
 794.8203125 270 l 257
EndSplineSet
EndChar

StartChar: uni0917
Encoding: 2327 2327 393
GlifName: uni0917
Width: 2666
VWidth: 0
Flags: HW
LayerCount: 2
Fore
SplineSet
775.958007812 853 m 257
 974.958007812 853 l 257
 1044.4765625 1044 l 257
 845.4765625 1044 l 257
 775.958007812 853 l 257
786.512695312 882 m 257
 714.083007812 683 l 257
 1190.08300781 683 l 257
 1262.51269531 882 l 257
 786.512695312 882 l 257
1305.91699219 1548 m 257
 1038.03515625 812 l 257
 1237.03515625 812 l 257
 1504.91699219 1548 l 257
 1305.91699219 1548 l 257
1951.91699219 1548 m 257
 1187.91699219 1548 l 257
 1115.12304688 1348 l 257
 1879.12304688 1348 l 257
 1951.91699219 1548 l 257
1649.81835938 1523 m 257
 1095.49121094 0 l 257
 1294.49121094 0 l 257
 1848.81835938 1523 l 257
 1649.81835938 1523 l 257
EndSplineSet
EndChar

StartChar: uni0917_uni0930_uni094D.vatu
Encoding: 65546 -1 394
GlifName: uni0917_uni0930_uni094D_.vatu
Width: 3034
VWidth: 0
Flags: HW
LayerCount: 2
Fore
SplineSet
805.787109375 0 m 257
 1062.78710938 0 l 257
 1481.04101562 215 l 257
 1554.19824219 416 l 257
 805.787109375 0 l 257
1065.25390625 853 m 257
 1264.25390625 853 l 257
 1333.77246094 1044 l 257
 1134.77246094 1044 l 257
 1065.25390625 853 l 257
1075.80859375 882 m 257
 1003.37890625 683 l 257
 1479.37890625 683 l 257
 1551.80859375 882 l 257
 1075.80859375 882 l 257
1595.21289062 1548 m 257
 1327.33105469 812 l 257
 1526.33105469 812 l 257
 1794.21289062 1548 l 257
 1595.21289062 1548 l 257
2228.21289062 1548 m 257
 1477.21289062 1548 l 257
 1404.41894531 1348 l 257
 2155.41894531 1348 l 257
 2228.21289062 1548 l 257
1939.11425781 1523 m 257
 1384.78710938 0 l 257
 1583.78710938 0 l 257
 2138.11425781 1523 l 257
 1939.11425781 1523 l 257
EndSplineSet
EndChar

StartChar: uni0917_uni094D.half
Encoding: 65547 -1 395
GlifName: uni0917_uni094D_.half
Width: 2642
VWidth: 0
Flags: HW
LayerCount: 2
Fore
SplineSet
770.458007812 853 m 257
 969.458007812 853 l 257
 1038.9765625 1044 l 257
 839.9765625 1044 l 257
 770.458007812 853 l 257
781.012695312 882 m 257
 708.583007812 683 l 257
 1184.58300781 683 l 257
 1257.01269531 882 l 257
 781.012695312 882 l 257
1300.41699219 1548 m 257
 1032.53515625 812 l 257
 1231.53515625 812 l 257
 1499.41699219 1548 l 257
 1300.41699219 1548 l 257
1933.41699219 1548 m 257
 1182.41699219 1548 l 257
 1109.62304688 1348 l 257
 1860.62304688 1348 l 257
 1933.41699219 1548 l 257
EndSplineSet
EndChar

StartChar: uni0918
Encoding: 2328 2328 397
GlifName: uni0918
Width: 2828
VWidth: 0
Flags: HW
LayerCount: 2
Fore
SplineSet
1047.25878906 1548 m 257
 974.46484375 1348 l 257
 2000.46484375 1348 l 257
 2073.25878906 1548 l 257
 1047.25878906 1548 l 257
1738.79589844 1522 m 257
 1189.56445312 13 l 257
 1389.56445312 13 l 257
 1938.79589844 1522 l 257
 1738.79589844 1522 l 257
1208.24804688 1515 m 257
 978.21875 883 l 257
 1177.21875 883 l 257
 1407.24804688 1515 l 257
 1208.24804688 1515 l 257
1084.59375 917 m 257
 1011.79980469 717 l 257
 1255.79980469 717 l 257
 1328.59375 917 l 257
 1084.59375 917 l 257
833.53515625 469 m 257
 760.741210938 269 l 257
 1458.74121094 269 l 257
 1531.53515625 469 l 257
 833.53515625 469 l 257
754.741210938 269 m 257
 953.741210938 269 l 257
 1133.90625 764 l 257
 934.90625 764 l 257
 754.741210938 269 l 257
EndSplineSet
EndChar

StartChar: uni0918_uni0930_uni094D.vatu
Encoding: 65549 -1 398
GlifName: uni0918_uni0930_uni094D_.vatu
Width: 3108
VWidth: 0
Flags: HW
LayerCount: 2
Fore
SplineSet
824.6953125 0 m 257
 1081.6953125 0 l 257
 1499.94921875 215 l 257
 1573.10644531 416 l 257
 824.6953125 0 l 257
1261.3046875 1554 m 257
 1188.51074219 1354 l 257
 2210.51074219 1354 l 257
 2283.3046875 1554 l 257
 1261.3046875 1554 l 257
1950.65820312 1522 m 257
 1401.42675781 13 l 257
 1601.42675781 13 l 257
 2150.65820312 1522 l 257
 1950.65820312 1522 l 257
1420.11035156 1515 m 257
 1190.08105469 883 l 257
 1389.08105469 883 l 257
 1619.11035156 1515 l 257
 1420.11035156 1515 l 257
1296.45605469 917 m 257
 1223.66210938 717 l 257
 1467.66210938 717 l 257
 1540.45605469 917 l 257
 1296.45605469 917 l 257
1045.39746094 469 m 257
 972.603515625 269 l 257
 1670.60351562 269 l 257
 1743.39746094 469 l 257
 1045.39746094 469 l 257
966.603515625 269 m 257
 1165.60351562 269 l 257
 1345.76855469 764 l 257
 1146.76855469 764 l 257
 966.603515625 269 l 257
EndSplineSet
EndChar

StartChar: uni0918_uni094D.half
Encoding: 65550 -1 399
GlifName: uni0918_uni094D_.half
Width: 2824
VWidth: 0
Flags: HW
LayerCount: 2
Fore
SplineSet
1048.35058594 1554 m 257
 975.556640625 1354 l 257
 1997.55664062 1354 l 257
 2070.35058594 1554 l 257
 1048.35058594 1554 l 257
1207.15625 1515 m 257
 977.126953125 883 l 257
 1176.12695312 883 l 257
 1406.15625 1515 l 257
 1207.15625 1515 l 257
1083.50195312 917 m 257
 1010.70800781 717 l 257
 1254.70800781 717 l 257
 1327.50195312 917 l 257
 1083.50195312 917 l 257
832.443359375 469 m 257
 759.649414062 269 l 257
 1594.64941406 269 l 257
 1667.44335938 469 l 257
 832.443359375 469 l 257
753.649414062 269 m 257
 952.649414062 269 l 257
 1132.81445312 764 l 257
 933.814453125 764 l 257
 753.649414062 269 l 257
EndSplineSet
EndChar

StartChar: uni0919
Encoding: 2329 2329 401
GlifName: uni0919
Width: 3142
VWidth: 0
Flags: HW
LayerCount: 2
Fore
SplineSet
1284.21289062 1548 m 257
 1212.14648438 1350 l 257
 2237.14648438 1350 l 257
 2309.21289062 1548 l 257
 1284.21289062 1548 l 257
1791.39355469 1543 m 257
 1602.12890625 1023 l 257
 1802.12890625 1023 l 257
 1991.39355469 1543 l 257
 1791.39355469 1543 l 257
1867.01464844 1226 m 257
 1393.01464844 1226 l 257
 1319.12890625 1023 l 257
 1793.12890625 1023 l 257
 1867.01464844 1226 l 257
1339.96679688 1083 m 257
 1174.72460938 629 l 257
 1379.72460938 629 l 257
 1544.96679688 1083 l 257
 1339.96679688 1083 l 257
1244.24316406 820 m 257
 1171.44824219 620 l 257
 1732.44824219 620 l 257
 1805.24316406 820 l 257
 1244.24316406 820 l 257
1554.28710938 680 m 257
 1317.34179688 29 l 257
 1517.34179688 29 l 257
 1754.28710938 680 l 257
 1554.28710938 680 l 257
905.9453125 201 m 257
 832.787109375 0 l 257
 1507.78710938 0 l 257
 1580.9453125 201 l 257
 905.9453125 201 l 257
986.74609375 423 m 257
 835.69921875 8 l 257
 1036.69921875 8 l 257
 1187.74609375 423 l 257
 986.74609375 423 l 257
1911.22460938 1037 m 257
 1857.72070312 890 l 257
 2014.72070312 890 l 257
 2068.22460938 1037 l 257
 1911.22460938 1037 l 257
EndSplineSet
EndChar

StartChar: uni0919_uni0930_uni094D.vatu
Encoding: 65552 -1 402
GlifName: uni0919_uni0930_uni094D_.vatu
Width: 3454
VWidth: 0
Flags: HW
LayerCount: 2
Fore
SplineSet
1336.86914062 112 m 257
 1422.56054688 -268 l 257
 1704.56054688 -268 l 257
 1520.38085938 281 l 257
 1336.86914062 112 l 257
1520.38085938 281 m 257
 910.28515625 -277 l 257
 1131.28515625 -277 l 257
 1575.32617188 116 l 257
 1520.38085938 281 l 257
1521.71484375 1554 m 257
 1448.91992188 1354 l 257
 2470.91992188 1354 l 257
 2543.71484375 1554 l 257
 1521.71484375 1554 l 257
2026.7109375 1543 m 257
 1861.10546875 1088 l 257
 2061.10546875 1088 l 257
 2226.7109375 1543 l 257
 2026.7109375 1543 l 257
2124.8984375 1288 m 257
 1650.8984375 1288 l 257
 1578.10546875 1088 l 257
 2052.10546875 1088 l 257
 2124.8984375 1288 l 257
1597.8515625 1145 m 257
 1432.609375 691 l 257
 1637.609375 691 l 257
 1802.8515625 1145 l 257
 1597.8515625 1145 l 257
1502.12695312 882 m 257
 1429.33203125 682 l 257
 1990.33203125 682 l 257
 2063.12695312 882 l 257
 1502.12695312 882 l 257
1812.16992188 742 m 257
 1662.58007812 331 l 257
 1862.58007812 331 l 257
 2012.16992188 742 l 257
 1812.16992188 742 l 257
1251.18164062 503 m 257
 1178.0234375 302 l 257
 1853.0234375 302 l 257
 1926.18164062 503 l 257
 1251.18164062 503 l 257
1300.68164062 639 m 257
 1180.93554688 310 l 257
 1381.93554688 310 l 257
 1501.68164062 639 l 257
 1300.68164062 639 l 257
2169.10742188 1099 m 257
 2115.60546875 952 l 257
 2272.60546875 952 l 257
 2326.10742188 1099 l 257
 2169.10742188 1099 l 257
EndSplineSet
EndChar

StartChar: uni0919_uni094D.half
Encoding: 65553 -1 403
GlifName: uni0919_uni094D_.half
Width: 3040
VWidth: 0
Flags: HW
LayerCount: 2
Fore
SplineSet
1211.0546875 1554 m 257
 1138.26074219 1354 l 257
 2160.26074219 1354 l 257
 2233.0546875 1554 l 257
 1211.0546875 1554 l 257
1716.05175781 1543 m 257
 1526.78710938 1023 l 257
 1726.78710938 1023 l 257
 1916.05175781 1543 l 257
 1716.05175781 1543 l 257
1791.67285156 1226 m 257
 1317.67285156 1226 l 257
 1243.78710938 1023 l 257
 1717.78710938 1023 l 257
 1791.67285156 1226 l 257
1264.625 1083 m 257
 1099.3828125 629 l 257
 1304.3828125 629 l 257
 1469.625 1083 l 257
 1264.625 1083 l 257
1168.90136719 820 m 257
 1096.10644531 620 l 257
 1657.10644531 620 l 257
 1729.90136719 820 l 257
 1168.90136719 820 l 257
1478.9453125 680 m 257
 1291.5 165 l 257
 1491.5 165 l 257
 1678.9453125 680 l 257
 1478.9453125 680 l 257
880.103515625 337 m 257
 806.9453125 136 l 257
 1481.9453125 136 l 257
 1555.10351562 337 l 257
 880.103515625 337 l 257
960.904296875 559 m 257
 809.857421875 144 l 257
 1010.85742188 144 l 257
 1161.90429688 559 l 257
 960.904296875 559 l 257
1835.8828125 1037 m 257
 1782.37890625 890 l 257
 1939.37890625 890 l 257
 1992.8828125 1037 l 257
 1835.8828125 1037 l 257
1004.46386719 55 m 257
 809.125976562 -141 l 257
 1166.12597656 -141 l 257
 1361.46386719 55 l 257
 1004.46386719 55 l 257
1155.86425781 -106 m 257
 1345.45605469 -511 l 257
 1548.78320312 -348 l 257
 1357.828125 56 l 257
 1155.86425781 -106 l 257
EndSplineSet
EndChar

StartChar: uni091A
Encoding: 2330 2330 405
GlifName: uni091A_
Width: 2648
VWidth: 0
Flags: HW
LayerCount: 2
Fore
SplineSet
913.262695312 1548 m 257
 841.560546875 1351 l 257
 1866.56054688 1351 l 257
 1938.26269531 1548 l 257
 913.262695312 1548 l 257
1551.08300781 1553 m 257
 985.836914062 0 l 257
 1185.83691406 0 l 257
 1751.08300781 1553 l 257
 1551.08300781 1553 l 257
1254.74902344 280 m 257
 1327.54296875 480 l 257
 820.54296875 480 l 257
 747.749023438 280 l 257
 1254.74902344 280 l 257
950.48046875 837 m 257
 799.068359375 421 l 257
 999.068359375 421 l 257
 1150.48046875 837 l 257
 950.48046875 837 l 257
782.53125 991 m 257
 709.737304688 791 l 257
 1205.73730469 791 l 257
 1278.53125 991 l 257
 782.53125 991 l 257
EndSplineSet
EndChar

StartChar: uni091A_uni0930_uni094D.vatu
Encoding: 65555 -1 406
GlifName: uni091A__uni0930_uni094D_.vatu
Width: 3108
VWidth: 0
Flags: HW
LayerCount: 2
Fore
SplineSet
824.331054688 0 m 257
 1081.33105469 0 l 257
 1499.58496094 215 l 257
 1572.7421875 416 l 257
 824.331054688 0 l 257
1261.66894531 1556 m 257
 1188.875 1356 l 257
 2210.875 1356 l 257
 2283.66894531 1556 l 257
 1261.66894531 1556 l 257
1896.57714844 1553 m 257
 1331.33105469 0 l 257
 1531.33105469 0 l 257
 2096.57714844 1553 l 257
 1896.57714844 1553 l 257
1600.24316406 280 m 257
 1673.03710938 480 l 257
 1166.03710938 480 l 257
 1093.24316406 280 l 257
 1600.24316406 280 l 257
1295.97460938 837 m 257
 1144.5625 421 l 257
 1344.5625 421 l 257
 1495.97460938 837 l 257
 1295.97460938 837 l 257
1128.02539062 991 m 257
 1055.23144531 791 l 257
 1551.23144531 791 l 257
 1624.02539062 991 l 257
 1128.02539062 991 l 257
EndSplineSet
EndChar

StartChar: uni091A_uni094D.half
Encoding: 65556 -1 407
GlifName: uni091A__uni094D_.half
Width: 2646
VWidth: 0
Flags: HW
LayerCount: 2
Fore
SplineSet
915.21875 1556 m 257
 842.424804688 1356 l 257
 1864.42480469 1356 l 257
 1937.21875 1556 l 257
 915.21875 1556 l 257
1503.79296875 280 m 257
 1576.58691406 480 l 257
 819.586914062 480 l 257
 746.79296875 280 l 257
 1503.79296875 280 l 257
949.524414062 837 m 257
 798.112304688 421 l 257
 998.112304688 421 l 257
 1149.52441406 837 l 257
 949.524414062 837 l 257
781.575195312 991 m 257
 708.78125 791 l 257
 1204.78125 791 l 257
 1277.57519531 991 l 257
 781.575195312 991 l 257
EndSplineSet
EndChar

StartChar: uni091B
Encoding: 2331 2331 409
GlifName: uni091B_
Width: 3200
VWidth: 0
Flags: HW
LayerCount: 2
Fore
SplineSet
1326.71289062 1548 m 257
 1254.64648438 1350 l 257
 2280.64648438 1350 l 257
 2352.71289062 1548 l 257
 1326.71289062 1548 l 257
1607.57324219 1130 m 257
 1266.57324219 1130 l 257
 1194.14355469 931 l 257
 1535.14355469 931 l 257
 1607.57324219 1130 l 257
1263.57324219 1130 m 257
 1064.84570312 584 l 257
 1264.84570312 584 l 257
 1463.57324219 1130 l 257
 1263.57324219 1130 l 257
1162.86425781 639 m 257
 1090.0703125 439 l 257
 1340.0703125 439 l 257
 1412.86425781 639 l 257
 1162.86425781 639 l 257
1026.72460938 493 m 257
 847.287109375 0 l 257
 1047.28710938 0 l 257
 1226.72460938 493 l 257
 1026.72460938 493 l 257
919.716796875 199 m 257
 847.287109375 0 l 257
 1482.28710938 0 l 257
 1554.71679688 199 l 257
 919.716796875 199 l 257
1283.47070312 6 m 257
 1484.47070312 6 l 257
 2033.70214844 1515 l 257
 1832.70214844 1515 l 257
 1283.47070312 6 l 257
1788.8046875 1007 m 257
 1716.375 808 l 257
 2054.375 808 l 257
 2126.8046875 1007 l 257
 1788.8046875 1007 l 257
1875.21289062 868 m 257
 1730.71679688 471 l 257
 1931.71679688 471 l 257
 2076.21289062 868 l 257
 1875.21289062 868 l 257
EndSplineSet
EndChar

StartChar: uni091B_uni0930_uni094D.vatu
Encoding: 65558 -1 410
GlifName: uni091B__uni0930_uni094D_.vatu
Width: 3154
VWidth: 0
Flags: HW
LayerCount: 2
Fore
SplineSet
836.013671875 0 m 257
 1093.01367188 0 l 257
 1511.26757812 215 l 257
 1584.42382812 416 l 257
 836.013671875 0 l 257
1295.98632812 1555 m 257
 1223.19335938 1355 l 257
 2245.19335938 1355 l 257
 2317.98632812 1555 l 257
 1295.98632812 1555 l 257
1607.9609375 1206 m 257
 1266.9609375 1206 l 257
 1194.53125 1007 l 257
 1535.53125 1007 l 257
 1607.9609375 1206 l 257
1263.9609375 1206 m 257
 1096.53515625 746 l 257
 1296.53515625 746 l 257
 1463.9609375 1206 l 257
 1263.9609375 1206 l 257
1194.55273438 801 m 257
 1121.75976562 601 l 257
 1371.75976562 601 l 257
 1444.55273438 801 l 257
 1194.55273438 801 l 257
1058.4140625 655 m 257
 905.181640625 234 l 257
 1105.18164062 234 l 257
 1258.4140625 655 l 257
 1058.4140625 655 l 257
977.611328125 433 m 257
 905.181640625 234 l 257
 1540.18164062 234 l 257
 1612.61132812 433 l 257
 977.611328125 433 l 257
1254.01367188 0 m 257
 1455.01367188 0 l 257
 1981.31445312 1446 l 257
 1780.31445312 1446 l 257
 1254.01367188 0 l 257
1761.53125 1007 m 257
 1689.1015625 808 l 257
 2027.1015625 808 l 257
 2099.53125 1007 l 257
 1761.53125 1007 l 257
1847.93945312 868 m 257
 1703.44335938 471 l 257
 1904.44335938 471 l 257
 2048.93945312 868 l 257
 1847.93945312 868 l 257
EndSplineSet
EndChar

StartChar: uni091B_uni094D.half
Encoding: 65559 -1 411
GlifName: uni091B__uni094D_.half
Width: 2686
VWidth: 0
Flags: HW
LayerCount: 2
Fore
SplineSet
944.986328125 1555 m 257
 872.193359375 1355 l 257
 1894.19335938 1355 l 257
 1966.98632812 1555 l 257
 944.986328125 1555 l 257
1479.29882812 1130 m 257
 1138.29882812 1130 l 257
 1065.86914062 931 l 257
 1406.86914062 931 l 257
 1479.29882812 1130 l 257
1135.29882812 1130 m 257
 936.572265625 584 l 257
 1136.57226562 584 l 257
 1335.29882812 1130 l 257
 1135.29882812 1130 l 257
1034.58984375 639 m 257
 961.796875 439 l 257
 1211.796875 439 l 257
 1284.58984375 639 l 257
 1034.58984375 639 l 257
898.451171875 493 m 257
 719.013671875 0 l 257
 919.013671875 0 l 257
 1098.45117188 493 l 257
 898.451171875 493 l 257
791.443359375 199 m 257
 719.013671875 0 l 257
 1404.01367188 0 l 257
 1476.44335938 199 l 257
 791.443359375 199 l 257
EndSplineSet
EndChar

StartChar: uni091C
Encoding: 2332 2332 413
GlifName: uni091C_
Width: 3020
VWidth: 0
Flags: HW
LayerCount: 2
Fore
SplineSet
1191.42382812 1548 m 257
 1118.63085938 1348 l 257
 2144.63085938 1348 l 257
 2217.42382812 1548 l 257
 1191.42382812 1548 l 257
1869.42382812 1548 m 257
 1301.63085938 -12 l 257
 1500.63085938 -12 l 257
 2068.42382812 1548 l 257
 1869.42382812 1548 l 257
1338.01367188 860 m 257
 1266.31054688 663 l 257
 1680.31054688 663 l 257
 1752.01367188 860 l 257
 1338.01367188 860 l 257
1292.01367188 860 m 257
 1129.31835938 413 l 257
 1329.31835938 413 l 257
 1492.01367188 860 l 257
 1292.01367188 860 l 257
875.369140625 567 m 257
 802.576171875 367 l 257
 1312.57617188 367 l 257
 1385.36914062 567 l 257
 875.369140625 567 l 257
933.60546875 727 m 257
 854.259765625 509 l 257
 1054.25976562 509 l 257
 1133.60546875 727 l 257
 933.60546875 727 l 257
EndSplineSet
EndChar

StartChar: uni091C_uni0930_uni094D.vatu
Encoding: 65561 -1 414
GlifName: uni091C__uni0930_uni094D_.vatu
Width: 3106
VWidth: 0
Flags: HW
LayerCount: 2
Fore
SplineSet
823.787109375 0 m 257
 1080.78710938 0 l 257
 1499.04101562 215 l 257
 1572.19824219 416 l 257
 823.787109375 0 l 257
1224.21289062 1548 m 257
 1152.14648438 1350 l 257
 2210.14648438 1350 l 257
 2282.21289062 1548 l 257
 1224.21289062 1548 l 257
1936.21289062 1548 m 257
 1368.41992188 -12 l 257
 1567.41992188 -12 l 257
 2135.21289062 1548 l 257
 1936.21289062 1548 l 257
1404.80175781 860 m 257
 1333.09960938 663 l 257
 1747.09960938 663 l 257
 1818.80175781 860 l 257
 1404.80175781 860 l 257
1358.80175781 860 m 257
 1196.10644531 413 l 257
 1396.10644531 413 l 257
 1558.80175781 860 l 257
 1358.80175781 860 l 257
942.158203125 567 m 257
 869.364257812 367 l 257
 1379.36425781 367 l 257
 1452.15820312 567 l 257
 942.158203125 567 l 257
1000.39355469 727 m 257
 921.047851562 509 l 257
 1121.04785156 509 l 257
 1200.39355469 727 l 257
 1000.39355469 727 l 257
EndSplineSet
EndChar

StartChar: uni091C_uni094D.half
Encoding: 65562 -1 415
GlifName: uni091C__uni094D_.half
Width: 2718
VWidth: 0
Flags: HW
LayerCount: 2
Fore
SplineSet
932.423828125 1548 m 257
 860.357421875 1350 l 257
 1918.35742188 1350 l 257
 1990.42382812 1548 l 257
 932.423828125 1548 l 257
1263.01367188 860 m 257
 1191.31054688 663 l 257
 1705.31054688 663 l 257
 1777.01367188 860 l 257
 1263.01367188 860 l 257
1217.01367188 860 m 257
 1054.31835938 413 l 257
 1254.31835938 413 l 257
 1417.01367188 860 l 257
 1217.01367188 860 l 257
800.369140625 567 m 257
 727.576171875 367 l 257
 1237.57617188 367 l 257
 1310.36914062 567 l 257
 800.369140625 567 l 257
858.60546875 727 m 257
 779.259765625 509 l 257
 979.259765625 509 l 257
 1058.60546875 727 l 257
 858.60546875 727 l 257
EndSplineSet
EndChar

StartChar: uni091C_uni094D_uni091E.akhn
Encoding: 65564 -1 417
GlifName: uni091C__uni094D__uni091E_.akhn
Width: 3016
VWidth: 0
Flags: HW
LayerCount: 2
Fore
SplineSet
1156.42382812 1548 m 257
 1084.35742188 1350 l 257
 2142.35742188 1350 l 257
 2214.42382812 1548 l 257
 1156.42382812 1548 l 257
1868.42382812 1548 m 257
 1300.63085938 -12 l 257
 1499.63085938 -12 l 257
 2067.42382812 1548 l 257
 1868.42382812 1548 l 257
1337.01367188 860 m 257
 1265.31054688 663 l 257
 1679.31054688 663 l 257
 1751.01367188 860 l 257
 1337.01367188 860 l 257
1291.01367188 860 m 257
 1128.31835938 413 l 257
 1328.31835938 413 l 257
 1491.01367188 860 l 257
 1291.01367188 860 l 257
874.369140625 567 m 257
 801.576171875 367 l 257
 1311.57617188 367 l 257
 1384.36914062 567 l 257
 874.369140625 567 l 257
801.939453125 368 m 257
 843.296875 75 l 257
 1101.296875 75 l 257
 1044.93945312 368 l 257
 801.939453125 368 l 257
EndSplineSet
EndChar

StartChar: uni091C_uni094D_uni091E.half
Encoding: 65565 -1 418
GlifName: uni091C__uni094D__uni091E_.half
Width: 2624
VWidth: 0
Flags: HW
LayerCount: 2
Fore
SplineSet
862.423828125 1548 m 257
 790.357421875 1350 l 257
 1848.35742188 1350 l 257
 1920.42382812 1548 l 257
 862.423828125 1548 l 257
1239.01367188 860 m 257
 1167.31054688 663 l 257
 1581.31054688 663 l 257
 1653.01367188 860 l 257
 1239.01367188 860 l 257
1193.01367188 860 m 257
 1030.31835938 413 l 257
 1230.31835938 413 l 257
 1393.01367188 860 l 257
 1193.01367188 860 l 257
776.369140625 567 m 257
 703.576171875 367 l 257
 1213.57617188 367 l 257
 1286.36914062 567 l 257
 776.369140625 567 l 257
703.939453125 368 m 257
 745.296875 75 l 257
 1003.296875 75 l 257
 946.939453125 368 l 257
 703.939453125 368 l 257
EndSplineSet
EndChar

StartChar: uni091D
Encoding: 2333 2333 420
GlifName: uni091D_
Width: 3224
VWidth: 0
Flags: HW
LayerCount: 2
Fore
SplineSet
1345.14648438 1548 m 257
 1272.71679688 1349 l 257
 2298.71679688 1349 l 257
 2371.14648438 1548 l 257
 1345.14648438 1548 l 257
2024.14648438 1548 m 257
 1460.72070312 0 l 257
 1661.72070312 0 l 257
 2225.14648438 1548 l 257
 2024.14648438 1548 l 257
1788.14257812 1537 m 257
 1601.0625 1023 l 257
 1800.0625 1023 l 257
 1987.14257812 1537 l 257
 1788.14257812 1537 l 257
1351.85644531 1223 m 257
 1279.0625 1023 l 257
 1800.0625 1023 l 257
 1872.85644531 1223 l 257
 1351.85644531 1223 l 257
1301.62792969 1085 m 257
 1143.66503906 651 l 257
 1343.66503906 651 l 257
 1501.62792969 1085 l 257
 1301.62792969 1085 l 257
1211.36425781 837 m 257
 1138.93359375 638 l 257
 1887.93359375 638 l 257
 1960.36425781 837 l 257
 1211.36425781 837 l 257
1451.22460938 691 m 257
 1202.26855469 7 l 257
 1402.26855469 7 l 257
 1651.22460938 691 l 257
 1451.22460938 691 l 257
979.514648438 200 m 257
 906.720703125 0 l 257
 1399.72070312 0 l 257
 1472.51464844 200 l 257
 979.514648438 200 l 257
929.650390625 63 m 257
 852.853515625 -148 l 257
 1052.85351562 -148 l 257
 1129.65039062 63 l 257
 929.650390625 63 l 257
EndSplineSet
EndChar

StartChar: uni091D_uni0930_uni094D.vatu
Encoding: 65567 -1 421
GlifName: uni091D__uni0930_uni094D_.vatu
Width: 3326
VWidth: 0
Flags: HW
LayerCount: 2
Fore
SplineSet
1251.78710938 0 m 257
 1417.78710938 0 l 257
 1729.04101562 215 l 257
 1829.1328125 490 l 257
 1251.78710938 0 l 257
1406.21289062 1548 m 257
 1333.78320312 1349 l 257
 2374.78320312 1349 l 257
 2447.21289062 1548 l 257
 1406.21289062 1548 l 257
2160.20898438 1537 m 257
 1598.96679688 -5 l 257
 1799.96679688 -5 l 257
 2361.20898438 1537 l 257
 2160.20898438 1537 l 257
1867.20898438 1537 m 257
 1680.12890625 1023 l 257
 1879.12890625 1023 l 257
 2066.20898438 1537 l 257
 1867.20898438 1537 l 257
1430.92285156 1223 m 257
 1358.12890625 1023 l 257
 1879.12890625 1023 l 257
 1951.92285156 1223 l 257
 1430.92285156 1223 l 257
1346.10253906 1218 m 257
 1139.73144531 651 l 257
 1339.73144531 651 l 257
 1546.10253906 1218 l 257
 1346.10253906 1218 l 257
1294.79785156 849 m 257
 1222.36816406 650 l 257
 1971.36816406 650 l 257
 2043.79785156 849 l 257
 1294.79785156 849 l 257
1333.29101562 691 m 257
 1135.29101562 147 l 257
 1335.29101562 147 l 257
 1533.29101562 691 l 257
 1333.29101562 691 l 257
1006.17675781 350 m 257
 932.291015625 147 l 257
 1314.29101562 147 l 257
 1388.17675781 350 l 257
 1006.17675781 350 l 257
955.220703125 210 m 257
 878.787109375 0 l 257
 1078.78710938 0 l 257
 1155.22070312 210 l 257
 955.220703125 210 l 257
EndSplineSet
EndChar

StartChar: uni091D_uni094D.half
Encoding: 65568 -1 422
GlifName: uni091D__uni094D_.half
Width: 3218
VWidth: 0
Flags: HW
LayerCount: 2
Fore
SplineSet
1325.64648438 1548 m 257
 1253.21679688 1349 l 257
 2294.21679688 1349 l 257
 2366.64648438 1548 l 257
 1325.64648438 1548 l 257
1786.64257812 1537 m 257
 1599.5625 1023 l 257
 1798.5625 1023 l 257
 1985.64257812 1537 l 257
 1786.64257812 1537 l 257
1350.35644531 1223 m 257
 1277.5625 1023 l 257
 1798.5625 1023 l 257
 1871.35644531 1223 l 257
 1350.35644531 1223 l 257
1300.12792969 1085 m 257
 1142.16503906 651 l 257
 1342.16503906 651 l 257
 1500.12792969 1085 l 257
 1300.12792969 1085 l 257
1209.86425781 837 m 257
 1137.43359375 638 l 257
 2086.43359375 638 l 257
 2158.86425781 837 l 257
 1209.86425781 837 l 257
1449.72460938 691 m 257
 1200.76855469 7 l 257
 1400.76855469 7 l 257
 1649.72460938 691 l 257
 1449.72460938 691 l 257
979.106445312 203 m 257
 905.220703125 0 l 257
 1398.22070312 0 l 257
 1472.10644531 203 l 257
 979.106445312 203 l 257
928.150390625 63 m 257
 851.353515625 -148 l 257
 1051.35351562 -148 l 257
 1128.15039062 63 l 257
 928.150390625 63 l 257
EndSplineSet
EndChar

StartChar: uni091E
Encoding: 2334 2334 424
GlifName: uni091E_
Width: 3058
VWidth: 0
Flags: HW
LayerCount: 2
Fore
SplineSet
1219.89648438 1548 m 257
 1147.10351562 1348 l 257
 2173.10351562 1348 l 257
 2245.89648438 1548 l 257
 1219.89648438 1548 l 257
1950.89257812 1537 m 257
 1388.55859375 -8 l 257
 1588.55859375 -8 l 257
 2150.89257812 1537 l 257
 1950.89257812 1537 l 257
1389.71679688 737 m 257
 1316.92382812 537 l 257
 1683.92382812 537 l 257
 1756.71679688 737 l 257
 1389.71679688 737 l 257
1089.8828125 960 m 257
 1017.08789062 760 l 257
 1375.08789062 760 l 257
 1447.8828125 960 l 257
 1089.8828125 960 l 257
1416.8828125 960 m 257
 1182.48632812 316 l 257
 1382.48632812 316 l 257
 1616.8828125 960 l 257
 1416.8828125 960 l 257
884.8984375 460 m 257
 812.103515625 260 l 257
 1362.10351562 260 l 257
 1434.8984375 460 l 257
 884.8984375 460 l 257
EndSplineSet
EndChar

StartChar: uni091E_uni0930_uni094D.vatu
Encoding: 65570 -1 425
GlifName: uni091E__uni0930_uni094D_.vatu
Width: 3038
VWidth: 0
Flags: HW
LayerCount: 2
Fore
SplineSet
806.787109375 0 m 257
 1063.78710938 0 l 257
 1470.02929688 182 l 257
 1543.1875 383 l 257
 806.787109375 0 l 257
1197.21289062 1548 m 257
 1124.41894531 1348 l 257
 2158.41894531 1348 l 257
 2231.21289062 1548 l 257
 1197.21289062 1548 l 257
1933.20898438 1537 m 257
 1370.875 -8 l 257
 1570.875 -8 l 257
 2133.20898438 1537 l 257
 1933.20898438 1537 l 257
1372.03320312 737 m 257
 1299.23925781 537 l 257
 1666.23925781 537 l 257
 1739.03320312 737 l 257
 1372.03320312 737 l 257
1072.19824219 960 m 257
 999.404296875 760 l 257
 1357.40429688 760 l 257
 1430.19824219 960 l 257
 1072.19824219 960 l 257
1399.19824219 960 m 257
 1164.80175781 316 l 257
 1364.80175781 316 l 257
 1599.19824219 960 l 257
 1399.19824219 960 l 257
885.412109375 510 m 257
 812.618164062 310 l 257
 1362.61816406 310 l 257
 1435.41210938 510 l 257
 885.412109375 510 l 257
EndSplineSet
EndChar

StartChar: uni091E_uni094D.half
Encoding: 65571 -1 426
GlifName: uni091E__uni094D_.half
Width: 2664
VWidth: 0
Flags: HW
LayerCount: 2
Fore
SplineSet
916.396484375 1548 m 257
 843.603515625 1348 l 257
 1877.60351562 1348 l 257
 1950.39648438 1548 l 257
 916.396484375 1548 l 257
1291.21679688 737 m 257
 1218.42382812 537 l 257
 1585.42382812 537 l 257
 1658.21679688 737 l 257
 1291.21679688 737 l 257
991.3828125 960 m 257
 918.587890625 760 l 257
 1276.58789062 760 l 257
 1349.3828125 960 l 257
 991.3828125 960 l 257
1318.3828125 960 m 257
 1083.98632812 316 l 257
 1283.98632812 316 l 257
 1518.3828125 960 l 257
 1318.3828125 960 l 257
786.3984375 460 m 257
 713.603515625 260 l 257
 1263.60351562 260 l 257
 1336.3984375 460 l 257
 786.3984375 460 l 257
EndSplineSet
EndChar

StartChar: uni091F
Encoding: 2335 2335 428
GlifName: uni091F_
Width: 3166
VWidth: 0
Flags: HW
LayerCount: 2
Fore
SplineSet
1313.21289062 1548 m 257
 1240.78320312 1349 l 257
 2254.78320312 1349 l 257
 2327.21289062 1548 l 257
 1313.21289062 1548 l 257
1864.93359375 1528 m 257
 1668.38964844 988 l 257
 1868.38964844 988 l 257
 2064.93359375 1528 l 257
 1864.93359375 1528 l 257
1881.12890625 1023 m 257
 1232.12890625 1023 l 257
 1158.97070312 822 l 257
 1807.97070312 822 l 257
 1881.12890625 1023 l 257
1211.12890625 1023 m 257
 840.607421875 5 l 257
 1040.60742188 5 l 257
 1411.12890625 1023 l 257
 1211.12890625 1023 l 257
911.9453125 201 m 257
 838.787109375 0 l 257
 1551.78710938 0 l 257
 1624.9453125 201 l 257
 911.9453125 201 l 257
EndSplineSet
EndChar

StartChar: uni091F_uni0930_uni094D.vatu
Encoding: 65573 -1 429
GlifName: uni091F__uni0930_uni094D_.vatu
Width: 3242
VWidth: 0
Flags: HW
LayerCount: 2
Fore
SplineSet
1283.84179688 213 m 257
 1369.53320312 -167 l 257
 1651.53320312 -167 l 257
 1467.35351562 382 l 257
 1283.84179688 213 l 257
1467.35351562 382 m 257
 857.2578125 -176 l 257
 1078.2578125 -176 l 257
 1522.29785156 217 l 257
 1467.35351562 382 l 257
1358.7421875 1548 m 257
 1285.94824219 1348 l 257
 2311.94824219 1348 l 257
 2384.7421875 1548 l 257
 1358.7421875 1548 l 257
1910.46289062 1528 m 257
 1741.58105469 1064 l 257
 1941.58105469 1064 l 257
 2110.46289062 1528 l 257
 1910.46289062 1528 l 257
1954.31933594 1099 m 257
 1305.31933594 1099 l 257
 1232.16210938 898 l 257
 1881.16210938 898 l 257
 1954.31933594 1099 l 257
1284.68359375 1100 m 257
 1031.72460938 405 l 257
 1231.72460938 405 l 257
 1484.68359375 1100 l 257
 1284.68359375 1100 l 257
1103.0625 601 m 257
 1029.90429688 400 l 257
 1742.90429688 400 l 257
 1816.0625 601 l 257
 1103.0625 601 l 257
EndSplineSet
EndChar

StartChar: uni0920
Encoding: 2336 2336 431
GlifName: uni0920
Width: 3220
VWidth: 0
Flags: HW
LayerCount: 2
Fore
SplineSet
1342.71289062 1548 m 257
 1270.28320312 1349 l 257
 2295.28320312 1349 l 257
 2367.71289062 1548 l 257
 1342.71289062 1548 l 257
1730.41894531 1484 m 257
 1562.62890625 1023 l 257
 1762.62890625 1023 l 257
 1930.41894531 1484 l 257
 1730.41894531 1484 l 257
1240.99609375 1035 m 257
 1167.83789062 834 l 257
 2045.83789062 834 l 257
 2118.99609375 1035 l 257
 1240.99609375 1035 l 257
1227.99609375 1035 m 257
 856.018554688 13 l 257
 1056.01855469 13 l 257
 1427.99609375 1035 l 257
 1227.99609375 1035 l 257
1918.99609375 1035 m 257
 1542.28710938 0 l 257
 1742.28710938 0 l 257
 2118.99609375 1035 l 257
 1918.99609375 1035 l 257
924.353515625 198 m 257
 852.287109375 0 l 257
 1722.28710938 0 l 257
 1794.35351562 198 l 257
 924.353515625 198 l 257
EndSplineSet
EndChar

StartChar: uni0920_uni0930_uni094D.vatu
Encoding: 65575 -1 432
GlifName: uni0920_uni0930_uni094D_.vatu
Width: 3192
VWidth: 0
Flags: HW
LayerCount: 2
Fore
SplineSet
1271.38769531 216 m 257
 1357.07910156 -164 l 257
 1639.07910156 -164 l 257
 1454.89941406 385 l 257
 1271.38769531 216 l 257
1454.89941406 385 m 257
 844.803710938 -173 l 257
 1065.80371094 -173 l 257
 1509.84375 220 l 257
 1454.89941406 385 l 257
1321.19628906 1548 m 257
 1249.12988281 1350 l 257
 2275.12988281 1350 l 257
 2347.19628906 1548 l 257
 1321.19628906 1548 l 257
1754.90234375 1484 m 257
 1587.11230469 1023 l 257
 1787.11230469 1023 l 257
 1954.90234375 1484 l 257
 1754.90234375 1484 l 257
1219.47949219 1035 m 257
 1146.32128906 834 l 257
 2024.32128906 834 l 257
 2097.47949219 1035 l 257
 1219.47949219 1035 l 257
1206.47949219 1035 m 257
 980.08984375 413 l 257
 1180.08984375 413 l 257
 1406.47949219 1035 l 257
 1206.47949219 1035 l 257
1897.47949219 1035 m 257
 1665.63085938 398 l 257
 1865.63085938 398 l 257
 2097.47949219 1035 l 257
 1897.47949219 1035 l 257
1048.42480469 598 m 257
 975.266601562 397 l 257
 1845.26660156 397 l 257
 1918.42480469 598 l 257
 1048.42480469 598 l 257
EndSplineSet
EndChar

StartChar: uni0921
Encoding: 2337 2337 434
GlifName: uni0921
Width: 3244
VWidth: 0
Flags: HW
LayerCount: 2
Fore
SplineSet
1359.71289062 1548 m 257
 1286.91894531 1348 l 257
 2312.91894531 1348 l 257
 2385.71289062 1548 l 257
 1359.71289062 1548 l 257
1562.09179688 1049 m 257
 1412.5 638 l 257
 1611.5 638 l 257
 1761.09179688 1049 l 257
 1562.09179688 1049 l 257
1451.80859375 746 m 257
 1376.10351562 538 l 257
 1919.10351562 538 l 257
 1994.80859375 746 l 257
 1451.80859375 746 l 257
1780.15820312 703 m 257
 1526.10742188 5 l 257
 1725.10742188 5 l 257
 1979.15820312 703 l 257
 1780.15820312 703 l 257
931.081054688 200 m 257
 858.287109375 0 l 257
 1723.28710938 0 l 257
 1796.08105469 200 l 257
 931.081054688 200 l 257
978.76171875 331 m 257
 860.107421875 5 l 257
 1060.10742188 5 l 257
 1178.76171875 331 l 257
 978.76171875 331 l 257
1593.02929688 1134 m 257
 1517.32324219 926 l 257
 2060.32324219 926 l 257
 2136.02929688 1134 l 257
 1593.02929688 1134 l 257
2030.56933594 1391 m 257
 1880.97753906 980 l 257
 2079.97753906 980 l 257
 2229.56933594 1391 l 257
 2030.56933594 1391 l 257
EndSplineSet
EndChar

StartChar: uni0921_uni0930_uni094D.vatu
Encoding: 65577 -1 435
GlifName: uni0921_uni0930_uni094D_.vatu
Width: 3188
VWidth: 0
Flags: HW
LayerCount: 2
Fore
SplineSet
1229.58398438 134 m 257
 1354.94726562 -137 l 257
 1636.94726562 -137 l 257
 1395.62304688 255 l 257
 1229.58398438 134 l 257
1395.62304688 255 m 257
 843.763671875 -143 l 257
 1064.76367188 -143 l 257
 1467.67578125 137 l 257
 1395.62304688 255 l 257
1318.23632812 1548 m 257
 1245.44335938 1348 l 257
 2271.44335938 1348 l 257
 2344.23632812 1548 l 257
 1318.23632812 1548 l 257
1549.734375 1129 m 257
 1413.97265625 756 l 257
 1612.97265625 756 l 257
 1748.734375 1129 l 257
 1549.734375 1129 l 257
1453.28125 864 m 257
 1377.57617188 656 l 257
 1920.57617188 656 l 257
 1996.28125 864 l 257
 1453.28125 864 l 257
1781.63085938 821 m 257
 1575.25976562 254 l 257
 1774.25976562 254 l 257
 1980.63085938 821 l 257
 1781.63085938 821 l 257
980.234375 449 m 257
 907.439453125 249 l 257
 1772.43945312 249 l 257
 1845.234375 449 l 257
 980.234375 449 l 257
1027.9140625 580 m 257
 909.259765625 254 l 257
 1109.25976562 254 l 257
 1227.9140625 580 l 257
 1027.9140625 580 l 257
1580.671875 1214 m 257
 1504.96484375 1006 l 257
 2047.96484375 1006 l 257
 2123.671875 1214 l 257
 1580.671875 1214 l 257
1989.09375 1391 m 257
 1868.61914062 1060 l 257
 2067.61914062 1060 l 257
 2188.09375 1391 l 257
 1989.09375 1391 l 257
EndSplineSet
EndChar

StartChar: uni0922
Encoding: 2338 2338 437
GlifName: uni0922
Width: 3168
VWidth: 0
Flags: HW
LayerCount: 2
Fore
SplineSet
1303.71289062 1548 m 257
 1230.91894531 1348 l 257
 2255.91894531 1348 l 257
 2328.71289062 1548 l 257
 1303.71289062 1548 l 257
1865.43359375 1528 m 257
 1668.88964844 988 l 257
 1868.88964844 988 l 257
 2065.43359375 1528 l 257
 1865.43359375 1528 l 257
1881.62890625 1023 m 257
 1232.62890625 1023 l 257
 1159.47070312 822 l 257
 1808.47070312 822 l 257
 1881.62890625 1023 l 257
1211.62890625 1023 m 257
 841.107421875 5 l 257
 1041.10742188 5 l 257
 1411.62890625 1023 l 257
 1211.62890625 1023 l 257
912.4453125 201 m 257
 839.287109375 0 l 257
 1552.28710938 0 l 257
 1625.4453125 201 l 257
 912.4453125 201 l 257
1551.28710938 544 m 257
 1353.28710938 0 l 257
 1554.28710938 0 l 257
 1752.28710938 544 l 257
 1551.28710938 544 l 257
1499.37890625 547 m 257
 1426.58496094 347 l 257
 1678.58496094 347 l 257
 1751.37890625 547 l 257
 1499.37890625 547 l 257
EndSplineSet
EndChar

StartChar: uni0922_uni0930_uni094D.vatu
Encoding: 65579 -1 438
GlifName: uni0922_uni0930_uni094D_.vatu
Width: 3196
VWidth: 0
Flags: HW
LayerCount: 2
Fore
SplineSet
1272.43554688 230 m 257
 1358.12695312 -150 l 257
 1640.12695312 -150 l 257
 1455.94726562 399 l 257
 1272.43554688 230 l 257
1455.94726562 399 m 257
 845.8515625 -159 l 257
 1066.8515625 -159 l 257
 1510.89160156 234 l 257
 1455.94726562 399 l 257
1336.1484375 1548 m 257
 1263.35449219 1348 l 257
 2277.35449219 1348 l 257
 2350.1484375 1548 l 257
 1336.1484375 1548 l 257
1887.86914062 1528 m 257
 1691.32519531 988 l 257
 1891.32519531 988 l 257
 2087.86914062 1528 l 257
 1887.86914062 1528 l 257
1957.20410156 1169 m 257
 1308.20410156 1169 l 257
 1235.04589844 968 l 257
 1884.04589844 968 l 257
 1957.20410156 1169 l 257
1286.83984375 1168 m 257
 1009.13085938 405 l 257
 1209.13085938 405 l 257
 1486.83984375 1168 l 257
 1286.83984375 1168 l 257
1080.46875 601 m 257
 1007.31054688 400 l 257
 1720.31054688 400 l 257
 1793.46875 601 l 257
 1080.46875 601 l 257
1682.91308594 844 m 257
 1520.58300781 398 l 257
 1721.58300781 398 l 257
 1883.91308594 844 l 257
 1682.91308594 844 l 257
1631.00585938 847 m 257
 1558.2109375 647 l 257
 1810.2109375 647 l 257
 1883.00585938 847 l 257
 1631.00585938 847 l 257
EndSplineSet
EndChar

StartChar: uni0923
Encoding: 2339 2339 440
GlifName: uni0923
Width: 2548
VWidth: 0
Flags: HW
LayerCount: 2
Fore
SplineSet
838.575195312 1548 m 257
 765.78125 1348 l 257
 1790.78125 1348 l 257
 1863.57519531 1548 l 257
 838.575195312 1548 l 257
1553.0234375 1530 m 257
 996.149414062 0 l 257
 1196.14941406 0 l 257
 1753.0234375 1530 l 257
 1553.0234375 1530 l 257
945.755859375 1543 m 257
 695.34375 855 l 257
 895.34375 855 l 257
 1145.75585938 1543 l 257
 945.755859375 1543 l 257
1296.29589844 1528 m 257
 1047.33984375 844 l 257
 1247.33984375 844 l 257
 1496.29589844 1528 l 257
 1296.29589844 1528 l 257
756.491210938 1023 m 257
 684.424804688 825 l 257
 1240.42480469 825 l 257
 1312.49121094 1023 l 257
 756.491210938 1023 l 257
EndSplineSet
EndChar

StartChar: uni0923_uni0930_uni094D.vatu
Encoding: 65581 -1 441
GlifName: uni0923_uni0930_uni094D_.vatu
Width: 3116
VWidth: 0
Flags: HW
LayerCount: 2
Fore
SplineSet
826.287109375 0 m 257
 1083.28710938 0 l 257
 1501.54101562 215 l 257
 1574.69824219 416 l 257
 826.287109375 0 l 257
1260.71289062 1548 m 257
 1188.64648438 1350 l 257
 2217.64648438 1350 l 257
 2289.71289062 1548 l 257
 1260.71289062 1548 l 257
1975.16113281 1530 m 257
 1418.28710938 0 l 257
 1618.28710938 0 l 257
 2175.16113281 1530 l 257
 1975.16113281 1530 l 257
1367.89355469 1543 m 257
 1117.48144531 855 l 257
 1317.48144531 855 l 257
 1567.89355469 1543 l 257
 1367.89355469 1543 l 257
1718.43359375 1528 m 257
 1469.47753906 844 l 257
 1669.47753906 844 l 257
 1918.43359375 1528 l 257
 1718.43359375 1528 l 257
1178.62890625 1023 m 257
 1106.5625 825 l 257
 1662.5625 825 l 257
 1734.62890625 1023 l 257
 1178.62890625 1023 l 257
EndSplineSet
EndChar

StartChar: uni0923_uni094D.half
Encoding: 65582 -1 442
GlifName: uni0923_uni094D_.half
Width: 2394
VWidth: 0
Flags: HW
LayerCount: 2
Fore
SplineSet
718.533203125 1548 m 257
 646.466796875 1350 l 257
 1675.46679688 1350 l 257
 1747.53320312 1548 l 257
 718.533203125 1548 l 257
1025.71386719 1543 m 257
 775.301757812 855 l 257
 975.301757812 855 l 257
 1225.71386719 1543 l 257
 1025.71386719 1543 l 257
1376.25390625 1528 m 257
 1127.29785156 844 l 257
 1327.29785156 844 l 257
 1576.25390625 1528 l 257
 1376.25390625 1528 l 257
836.44921875 1023 m 257
 764.3828125 825 l 257
 1320.3828125 825 l 257
 1392.44921875 1023 l 257
 836.44921875 1023 l 257
EndSplineSet
EndChar

StartChar: uni0924
Encoding: 2340 2340 444
GlifName: uni0924
Width: 2912
VWidth: 0
Flags: HW
LayerCount: 2
Fore
SplineSet
1111.71289062 1548 m 257
 1038.91894531 1348 l 257
 2063.91894531 1348 l 257
 2136.71289062 1548 l 257
 1111.71289062 1548 l 257
1728.24609375 1511 m 257
 1178.28710938 0 l 257
 1377.28710938 0 l 257
 1927.24609375 1511 l 257
 1728.24609375 1511 l 257
1619.09570312 788 m 257
 940.095703125 788 l 257
 867.301757812 588 l 257
 1546.30175781 588 l 257
 1619.09570312 788 l 257
867.301757812 588 m 257
 775.287109375 0 l 257
 975.287109375 0 l 257
 1067.30175781 588 l 257
 867.301757812 588 l 257
EndSplineSet
EndChar

StartChar: uni0924_uni0930_uni094D.vatu
Encoding: 65584 -1 445
GlifName: uni0924_uni0930_uni094D_.vatu
Width: 3110
VWidth: 0
Flags: HW
LayerCount: 2
Fore
SplineSet
825.239257812 0 m 257
 1179.23925781 0 l 257
 1539.4375 322 l 257
 1612.59570312 523 l 257
 825.239257812 0 l 257
1234.76074219 1562 m 257
 1161.96679688 1362 l 257
 2211.96679688 1362 l 257
 2284.76074219 1562 l 257
 1234.76074219 1562 l 257
1894.76074219 1562 m 257
 1326.23925781 0 l 257
 1525.23925781 0 l 257
 2093.76074219 1562 l 257
 1894.76074219 1562 l 257
1651.96679688 546 m 257
 1396.55175781 935 l 257
 1090.55175781 935 l 257
 1458.64746094 405 l 257
 1651.96679688 546 l 257
EndSplineSet
EndChar

StartChar: uni0924_uni094D.half
Encoding: 65585 -1 446
GlifName: uni0924_uni094D_.half
Width: 2436
VWidth: 0
Flags: HW
LayerCount: 2
Fore
SplineSet
729.396484375 1562 m 257
 656.603515625 1362 l 257
 1706.60351562 1362 l 257
 1779.39648438 1562 l 257
 729.396484375 1562 l 257
1561.68359375 788 m 257
 882.68359375 788 l 257
 809.890625 588 l 257
 1488.890625 588 l 257
 1561.68359375 788 l 257
809.890625 588 m 257
 734.875 0 l 257
 934.875 0 l 257
 1009.890625 588 l 257
 809.890625 588 l 257
EndSplineSet
EndChar

StartChar: uni0924_uni094D_uni0924.pres
Encoding: 65587 -1 448
GlifName: uni0924_uni094D__uni0924.pres
Width: 2938
VWidth: 0
Flags: HW
LayerCount: 2
Fore
SplineSet
1105.8046875 1554 m 257
 1033.01074219 1354 l 257
 2083.01074219 1354 l 257
 2155.8046875 1554 l 257
 1105.8046875 1554 l 257
1750.15429688 1511 m 257
 1200.1953125 0 l 257
 1399.1953125 0 l 257
 1949.15429688 1511 l 257
 1750.15429688 1511 l 257
1641.00390625 788 m 257
 962.00390625 788 l 257
 889.209960938 588 l 257
 1568.20996094 588 l 257
 1641.00390625 788 l 257
889.209960938 588 m 257
 782.1953125 0 l 257
 982.1953125 0 l 257
 1088.20996094 588 l 257
 889.209960938 588 l 257
1642.99609375 1038 m 257
 963.99609375 1038 l 257
 891.202148438 838 l 257
 1570.20214844 838 l 257
 1642.99609375 1038 l 257
EndSplineSet
EndChar

StartChar: uni0925
Encoding: 2341 2341 449
GlifName: uni0925
Width: 3196
VWidth: 0
Flags: HW
LayerCount: 2
Fore
SplineSet
1969.69140625 1548 m 257
 1896.89648438 1348 l 257
 2276.89648438 1348 l 257
 2349.69140625 1548 l 257
 1969.69140625 1548 l 257
2101.6875 1537 m 257
 1535.71289062 -18 l 257
 1734.71289062 -18 l 257
 2300.6875 1537 l 257
 2101.6875 1537 l 257
1357.69140625 1548 m 257
 1284.89648438 1348 l 257
 1729.89648438 1348 l 257
 1802.69140625 1548 l 257
 1357.69140625 1548 l 257
1552.5546875 1413 m 257
 1375.66601562 927 l 257
 1575.66601562 927 l 257
 1752.5546875 1413 l 257
 1552.5546875 1413 l 257
1609.78710938 1018 m 257
 1168.78710938 1018 l 257
 1093.08007812 810 l 257
 1534.08007812 810 l 257
 1609.78710938 1018 l 257
1142.58007812 946 m 257
 846.30859375 132 l 257
 1045.30859375 132 l 257
 1341.58007812 946 l 257
 1142.58007812 946 l 257
918.740234375 331 m 257
 846.30859375 132 l 257
 1789.30859375 132 l 257
 1861.74023438 331 l 257
 918.740234375 331 l 257
EndSplineSet
EndChar

StartChar: uni0925_uni0930_uni094D.vatu
Encoding: 65588 -1 450
GlifName: uni0925_uni0930_uni094D_.vatu
Width: 3124
VWidth: 0
Flags: HW
LayerCount: 2
Fore
SplineSet
884.064453125 0 m 257
 1141.06445312 0 l 257
 1559.31835938 215 l 257
 1632.4765625 416 l 257
 884.064453125 0 l 257
1911.49023438 1548 m 257
 1839.42382812 1350 l 257
 2223.42382812 1350 l 257
 2295.49023438 1548 l 257
 1911.49023438 1548 l 257
2043.48632812 1537 m 257
 1477.51367188 -18 l 257
 1676.51367188 -18 l 257
 2242.48632812 1537 l 257
 2043.48632812 1537 l 257
1299.49023438 1548 m 257
 1227.42382812 1350 l 257
 1672.42382812 1350 l 257
 1744.49023438 1548 l 257
 1299.49023438 1548 l 257
1494.35546875 1413 m 257
 1317.46484375 927 l 257
 1517.46484375 927 l 257
 1694.35546875 1413 l 257
 1494.35546875 1413 l 257
1551.5859375 1018 m 257
 1110.5859375 1018 l 257
 1034.88085938 810 l 257
 1475.88085938 810 l 257
 1551.5859375 1018 l 257
1084.38085938 946 m 257
 828.509765625 243 l 257
 1027.50976562 243 l 257
 1283.38085938 946 l 257
 1084.38085938 946 l 257
900.939453125 442 m 257
 828.509765625 243 l 257
 1771.50976562 243 l 257
 1843.93945312 442 l 257
 900.939453125 442 l 257
EndSplineSet
EndChar

StartChar: uni0925_uni094D.half
Encoding: 65589 -1 451
GlifName: uni0925_uni094D_.half
Width: 3204
VWidth: 0
Flags: HW
LayerCount: 2
Fore
SplineSet
1971.69140625 1548 m 257
 1899.625 1350 l 257
 2283.625 1350 l 257
 2355.69140625 1548 l 257
 1971.69140625 1548 l 257
1359.69140625 1548 m 257
 1287.625 1350 l 257
 1732.625 1350 l 257
 1804.69140625 1548 l 257
 1359.69140625 1548 l 257
1554.5546875 1413 m 257
 1377.66601562 927 l 257
 1577.66601562 927 l 257
 1754.5546875 1413 l 257
 1554.5546875 1413 l 257
1611.78710938 1018 m 257
 1170.78710938 1018 l 257
 1095.08007812 810 l 257
 1536.08007812 810 l 257
 1611.78710938 1018 l 257
1144.58007812 946 m 257
 848.30859375 132 l 257
 1047.30859375 132 l 257
 1343.58007812 946 l 257
 1144.58007812 946 l 257
920.740234375 331 m 257
 848.30859375 132 l 257
 1791.30859375 132 l 257
 1863.74023438 331 l 257
 920.740234375 331 l 257
EndSplineSet
EndChar

StartChar: uni0926
Encoding: 2342 2342 453
GlifName: uni0926
Width: 3146
VWidth: 0
Flags: HW
LayerCount: 2
Fore
SplineSet
1287.14257812 1548 m 257
 1214.34960938 1348 l 257
 2239.34960938 1348 l 257
 2312.14257812 1548 l 257
 1287.14257812 1548 l 257
1756.94921875 1509 m 257
 1543.66210938 923 l 257
 1743.66210938 923 l 257
 1956.94921875 1509 l 257
 1756.94921875 1509 l 257
1779.05859375 1023 m 257
 1157.05859375 1023 l 257
 1083.53710938 821 l 257
 1705.53710938 821 l 257
 1779.05859375 1023 l 257
1143.23242188 996 m 257
 860.427734375 219 l 257
 1060.42773438 219 l 257
 1343.23242188 996 l 257
 1143.23242188 996 l 257
906.650390625 346 m 257
 833.857421875 146 l 257
 1585.85742188 146 l 257
 1658.65039062 346 l 257
 906.650390625 346 l 257
1484.48828125 406 m 257
 1334.16992188 -7 l 257
 1534.16992188 -7 l 257
 1684.48828125 406 l 257
 1484.48828125 406 l 257
EndSplineSet
EndChar

StartChar: uni0926_uni0930_uni094D.vatu
Encoding: 65591 -1 454
GlifName: uni0926_uni0930_uni094D_.vatu
Width: 3100
VWidth: 0
Flags: HW
LayerCount: 2
Fore
SplineSet
874.208007812 0 m 257
 1131.20800781 0 l 257
 1549.46191406 215 l 257
 1622.61914062 416 l 257
 874.208007812 0 l 257
1262.63378906 1548 m 257
 1190.56738281 1350 l 257
 2205.56738281 1350 l 257
 2277.63378906 1548 l 257
 1262.63378906 1548 l 257
1725.43945312 1509 m 257
 1512.15234375 923 l 257
 1712.15234375 923 l 257
 1925.43945312 1509 l 257
 1725.43945312 1509 l 257
1747.54980469 1023 m 257
 1125.54980469 1023 l 257
 1052.02734375 821 l 257
 1674.02734375 821 l 257
 1747.54980469 1023 l 257
1111.72265625 996 m 257
 848.935546875 274 l 257
 1048.93554688 274 l 257
 1311.72265625 996 l 257
 1111.72265625 996 l 257
895.16015625 401 m 257
 822.366210938 201 l 257
 1574.36621094 201 l 257
 1647.16015625 401 l 257
 895.16015625 401 l 257
1472.99804688 461 m 257
 1302.66015625 -7 l 257
 1502.66015625 -7 l 257
 1672.99804688 461 l 257
 1472.99804688 461 l 257
EndSplineSet
EndChar

StartChar: uni0926_uni094D.half
Encoding: 65592 -1 455
GlifName: uni0926_uni094D_.half
Width: 3144
VWidth: 0
Flags: HW
LayerCount: 2
Fore
SplineSet
1286.14257812 1548 m 257
 1213.34960938 1348 l 257
 2238.34960938 1348 l 257
 2311.14257812 1548 l 257
 1286.14257812 1548 l 257
1755.94921875 1509 m 257
 1542.66210938 923 l 257
 1742.66210938 923 l 257
 1955.94921875 1509 l 257
 1755.94921875 1509 l 257
1778.05859375 1023 m 257
 1156.05859375 1023 l 257
 1082.53710938 821 l 257
 1704.53710938 821 l 257
 1778.05859375 1023 l 257
1142.23242188 996 m 257
 859.427734375 219 l 257
 1059.42773438 219 l 257
 1342.23242188 996 l 257
 1142.23242188 996 l 257
905.650390625 346 m 257
 832.857421875 146 l 257
 1584.85742188 146 l 257
 1657.65039062 346 l 257
 905.650390625 346 l 257
1483.48828125 406 m 257
 1333.16992188 -7 l 257
 1533.16992188 -7 l 257
 1683.48828125 406 l 257
 1483.48828125 406 l 257
1061.70898438 -22 m 257
 990.37109375 -218 l 257
 1347.37109375 -218 l 257
 1418.70898438 -22 l 257
 1061.70898438 -22 l 257
1219.11132812 -183 m 257
 1408.703125 -588 l 257
 1612.02929688 -425 l 257
 1421.07421875 -21 l 257
 1219.11132812 -183 l 257
EndSplineSet
EndChar

StartChar: uni0926_uni094D_uni0926.pres
Encoding: 65594 -1 457
GlifName: uni0926_uni094D__uni0926.pres
Width: 3140
VWidth: 0
Flags: HW
LayerCount: 2
Fore
SplineSet
1292.64257812 1548 m 257
 1220.57617188 1350 l 257
 2235.57617188 1350 l 257
 2307.64257812 1548 l 257
 1292.64257812 1548 l 257
1755.44921875 1509 m 257
 1606.58398438 1100 l 257
 1806.58398438 1100 l 257
 1955.44921875 1509 l 257
 1755.44921875 1509 l 257
1840.890625 1197 m 257
 1218.890625 1197 l 257
 1146.45898438 998 l 257
 1768.45898438 998 l 257
 1840.890625 1197 l 257
1206.15429688 1173 m 257
 1055.10742188 758 l 257
 1255.10742188 758 l 257
 1406.15429688 1173 l 257
 1206.15429688 1173 l 257
905.150390625 346 m 257
 832.357421875 146 l 257
 1584.35742188 146 l 257
 1657.15039062 346 l 257
 905.150390625 346 l 257
1482.98828125 406 m 257
 1332.66992188 -7 l 257
 1532.66992188 -7 l 257
 1682.98828125 406 l 257
 1482.98828125 406 l 257
1695.66601562 798 m 257
 1214.66601562 798 l 257
 1142.23632812 599 l 257
 1623.23632812 599 l 257
 1695.66601562 798 l 257
1016.16210938 651 m 257
 880.765625 279 l 257
 1080.765625 279 l 257
 1216.16210938 651 l 257
 1016.16210938 651 l 257
EndSplineSet
EndChar

StartChar: uni0926_uni094D_uni0927.pres
Encoding: 65595 -1 458
GlifName: uni0926_uni094D__uni0927.pres
Width: 3202
VWidth: 0
Flags: HW
LayerCount: 2
Fore
SplineSet
1338.91699219 1548 m 257
 1266.85058594 1350 l 257
 2281.85058594 1350 l 257
 2353.91699219 1548 l 257
 1338.91699219 1548 l 257
1948.72265625 1509 m 257
 1735.43554688 923 l 257
 1935.43554688 923 l 257
 2148.72265625 1509 l 257
 1948.72265625 1509 l 257
1970.83300781 1023 m 257
 1521.83300781 1023 l 257
 1448.31054688 821 l 257
 1897.31054688 821 l 257
 1970.83300781 1023 l 257
1512.00585938 996 m 257
 1229.20117188 219 l 257
 1429.20117188 219 l 257
 1712.00585938 996 l 257
 1512.00585938 996 l 257
1676.26269531 406 m 257
 1525.94335938 -7 l 257
 1725.94335938 -7 l 257
 1876.26269531 406 l 257
 1676.26269531 406 l 257
1175.04589844 1117 m 257
 1102.61621094 918 l 257
 1404.61621094 918 l 257
 1477.04589844 1117 l 257
 1175.04589844 1117 l 257
1114.26269531 950 m 257
 1029.82226562 718 l 257
 1224.82226562 718 l 257
 1309.26269531 950 l 257
 1114.26269531 950 l 257
1025.18554688 719 m 257
 952.02734375 518 l 257
 1351.02734375 518 l 257
 1424.18554688 719 l 257
 1025.18554688 719 l 257
1042.80761719 674 m 257
 876.836914062 218 l 257
 1076.83691406 218 l 257
 1242.80761719 674 l 257
 1042.80761719 674 l 257
920.876953125 339 m 257
 848.083007812 139 l 257
 1666.08300781 139 l 257
 1738.87695312 339 l 257
 920.876953125 339 l 257
EndSplineSet
EndChar

StartChar: uni0926_uni094D_uni092F.pres
Encoding: 65596 -1 459
GlifName: uni0926_uni094D__uni092F_.pres
Width: 3080
VWidth: 0
Flags: HW
LayerCount: 2
Fore
SplineSet
2035.35058594 1531 m 257
 1478.11230469 0 l 257
 1679.11230469 0 l 257
 2236.35058594 1531 l 257
 2035.35058594 1531 l 257
1506.89160156 428 m 257
 1434.46191406 229 l 257
 1478.11230469 0 l 257
 1602.53125 166 l 257
 1506.89160156 428 l 257
1235.53808594 1548 m 257
 1163.47167969 1350 l 257
 2190.47167969 1350 l 257
 2262.53808594 1548 l 257
 1235.53808594 1548 l 257
1710.34375 1509 m 257
 1497.05664062 923 l 257
 1697.05664062 923 l 257
 1910.34375 1509 l 257
 1710.34375 1509 l 257
1506.89160156 428 m 257
 889.891601562 428 l 257
 817.461914062 229 l 257
 1434.46191406 229 l 257
 1506.89160156 428 l 257
1096.62695312 996 m 257
 839.6640625 290 l 257
 1039.6640625 290 l 257
 1296.62695312 996 l 257
 1096.62695312 996 l 257
1733.45410156 1023 m 257
 1105.45410156 1023 l 257
 1031.93164062 821 l 257
 1659.93164062 821 l 257
 1733.45410156 1023 l 257
EndSplineSet
EndChar

StartChar: uni0926_uni094D_uni0935.pres
Encoding: 65597 -1 460
GlifName: uni0926_uni094D__uni0935.pres
Width: 3152
VWidth: 0
Flags: HW
LayerCount: 2
Fore
SplineSet
1301.74609375 1548 m 257
 1229.6796875 1350 l 257
 2244.6796875 1350 l 257
 2316.74609375 1548 l 257
 1301.74609375 1548 l 257
1764.55175781 1509 m 257
 1632.43066406 1146 l 257
 1832.43066406 1146 l 257
 1964.55175781 1509 l 257
 1764.55175781 1509 l 257
1866.73535156 1243 m 257
 1244.73535156 1243 l 257
 1172.30566406 1044 l 257
 1794.30566406 1044 l 257
 1866.73535156 1243 l 257
1240.73535156 1243 m 257
 1028.17675781 659 l 257
 1228.17675781 659 l 257
 1440.73535156 1243 l 257
 1240.73535156 1243 l 257
1088.59570312 825 m 257
 1015.80175781 625 l 257
 1767.80175781 625 l 257
 1840.59570312 825 l 257
 1088.59570312 825 l 257
1652.23925781 846 m 257
 1341.77246094 -7 l 257
 1541.77246094 -7 l 257
 1852.23925781 846 l 257
 1652.23925781 846 l 257
984.9375 488 m 257
 844.4453125 102 l 257
 1044.4453125 102 l 257
 1184.9375 488 l 257
 984.9375 488 l 257
908.047851562 274 m 257
 835.25390625 74 l 257
 1570.25390625 74 l 257
 1643.04785156 274 l 257
 908.047851562 274 l 257
1007.59570312 553 m 257
 934.4375 352 l 257
 1370.4375 352 l 257
 1443.59570312 553 l 257
 1007.59570312 553 l 257
EndSplineSet
EndChar

StartChar: uni0927
Encoding: 2343 2343 461
GlifName: uni0927
Width: 3004
VWidth: 0
Flags: HW
LayerCount: 2
Fore
SplineSet
1904.28320312 1548 m 257
 1831.48828125 1348 l 257
 2132.48828125 1348 l 257
 2205.28320312 1548 l 257
 1904.28320312 1548 l 257
1913.97460938 1440 m 257
 1387.67382812 -6 l 257
 1586.67382812 -6 l 257
 2112.97460938 1440 l 257
 1913.97460938 1440 l 257
1283.28320312 1548 m 257
 1210.48828125 1348 l 257
 1596.48828125 1348 l 257
 1669.28320312 1548 l 257
 1283.28320312 1548 l 257
1266.17578125 1501 m 257
 1013.9453125 808 l 257
 1212.9453125 808 l 257
 1465.17578125 1501 l 257
 1266.17578125 1501 l 257
1039.87890625 882 m 257
 966.720703125 681 l 257
 1365.72070312 681 l 257
 1438.87890625 882 l 257
 1039.87890625 882 l 257
1011.640625 711 m 257
 827.470703125 205 l 257
 1027.47070312 205 l 257
 1211.640625 711 l 257
 1011.640625 711 l 257
871.51171875 326 m 257
 798.716796875 126 l 257
 1501.71679688 126 l 257
 1574.51171875 326 l 257
 871.51171875 326 l 257
EndSplineSet
EndChar

StartChar: uni0927_uni0930_uni094D.vatu
Encoding: 65598 -1 462
GlifName: uni0927_uni0930_uni094D_.vatu
Width: 3022
VWidth: 0
Flags: HW
LayerCount: 2
Fore
SplineSet
802.787109375 0 m 257
 1059.78710938 0 l 257
 1478.04101562 215 l 257
 1551.19824219 416 l 257
 802.787109375 0 l 257
1918.21289062 1548 m 257
 1845.41894531 1348 l 257
 2146.41894531 1348 l 257
 2219.21289062 1548 l 257
 1918.21289062 1548 l 257
1927.90429688 1440 m 257
 1401.60351562 -6 l 257
 1600.60351562 -6 l 257
 2126.90429688 1440 l 257
 1927.90429688 1440 l 257
1303.21289062 1548 m 257
 1229.69140625 1346 l 257
 1615.69140625 1346 l 257
 1689.21289062 1548 l 257
 1303.21289062 1548 l 257
1280.10644531 1501 m 257
 1027.875 808 l 257
 1226.875 808 l 257
 1479.10644531 1501 l 257
 1280.10644531 1501 l 257
1053.80859375 882 m 257
 980.650390625 681 l 257
 1379.65039062 681 l 257
 1452.80859375 882 l 257
 1053.80859375 882 l 257
1025.5703125 711 m 257
 879.618164062 310 l 257
 1079.61816406 310 l 257
 1225.5703125 711 l 257
 1025.5703125 711 l 257
923.658203125 431 m 257
 850.864257812 231 l 257
 1553.86425781 231 l 257
 1626.65820312 431 l 257
 923.658203125 431 l 257
EndSplineSet
EndChar

StartChar: uni0927_uni094D.half
Encoding: 65599 -1 463
GlifName: uni0927_uni094D_.half
Width: 1944
VWidth: 0
Flags: HW
LayerCount: 2
Fore
SplineSet
1024.28320312 1548 m 257
 950.76171875 1346 l 257
 1336.76171875 1346 l 257
 1410.28320312 1548 l 257
 1024.28320312 1548 l 257
1001.17578125 1501 m 257
 748.9453125 808 l 257
 947.9453125 808 l 257
 1200.17578125 1501 l 257
 1001.17578125 1501 l 257
774.87890625 882 m 257
 701.720703125 681 l 257
 1100.72070312 681 l 257
 1173.87890625 882 l 257
 774.87890625 882 l 257
746.640625 711 m 257
 562.470703125 205 l 257
 762.470703125 205 l 257
 946.640625 711 l 257
 746.640625 711 l 257
606.51171875 326 m 257
 533.716796875 126 l 257
 1236.71679688 126 l 257
 1309.51171875 326 l 257
 606.51171875 326 l 257
EndSplineSet
EndChar

StartChar: uni0928
Encoding: 2344 2344 465
GlifName: uni0928
Width: 2830
VWidth: 0
Flags: HW
LayerCount: 2
Fore
SplineSet
1050.22753906 1548 m 257
 977.43359375 1348 l 257
 2002.43359375 1348 l 257
 2075.22753906 1548 l 257
 1050.22753906 1548 l 257
1756.22753906 1548 m 257
 1192.80175781 0 l 257
 1391.80175781 0 l 257
 1955.22753906 1548 l 257
 1756.22753906 1548 l 257
858.595703125 744 m 257
 785.801757812 544 l 257
 1559.80175781 544 l 257
 1632.59570312 744 l 257
 858.595703125 744 l 257
858.50390625 741 m 257
 754.772460938 456 l 257
 955.772460938 456 l 257
 1059.50390625 741 l 257
 858.50390625 741 l 257
EndSplineSet
EndChar

StartChar: uni0928_uni0930_uni094D.vatu
Encoding: 65601 -1 466
GlifName: uni0928_uni0930_uni094D_.vatu
Width: 2994
VWidth: 0
Flags: HW
LayerCount: 2
Fore
SplineSet
795.787109375 0 m 257
 1052.78710938 0 l 257
 1471.04101562 215 l 257
 1544.19824219 416 l 257
 795.787109375 0 l 257
1183.21289062 1548 m 257
 1110.0546875 1347 l 257
 2125.0546875 1347 l 257
 2198.21289062 1548 l 257
 1183.21289062 1548 l 257
1883.21289062 1548 m 257
 1319.78710938 0 l 257
 1518.78710938 0 l 257
 2082.21289062 1548 l 257
 1883.21289062 1548 l 257
985.581054688 744 m 257
 912.787109375 544 l 257
 1686.78710938 544 l 257
 1759.58105469 744 l 257
 985.581054688 744 l 257
985.489257812 741 m 257
 881.7578125 456 l 257
 1082.7578125 456 l 257
 1186.48925781 741 l 257
 985.489257812 741 l 257
EndSplineSet
EndChar

StartChar: uni0928_uni094D.half
Encoding: 65602 -1 467
GlifName: uni0928_uni094D_.half
Width: 2464
VWidth: 0
Flags: HW
LayerCount: 2
Fore
SplineSet
785.227539062 1548 m 257
 712.069335938 1347 l 257
 1727.06933594 1347 l 257
 1800.22753906 1548 l 257
 785.227539062 1548 l 257
767.595703125 744 m 257
 694.801757812 544 l 257
 1468.80175781 544 l 257
 1541.59570312 744 l 257
 767.595703125 744 l 257
767.50390625 741 m 257
 663.772460938 456 l 257
 864.772460938 456 l 257
 968.50390625 741 l 257
 767.50390625 741 l 257
EndSplineSet
EndChar

StartChar: uni0929
Encoding: 2345 2345 469
GlifName: uni0929
Width: 2830
VWidth: 0
Flags: HW
LayerCount: 2
Fore
SplineSet
1060.53613281 1548 m 257
 987.377929688 1347 l 257
 2002.37792969 1347 l 257
 2075.53613281 1548 l 257
 1060.53613281 1548 l 257
1760.53613281 1548 m 257
 1197.11035156 0 l 257
 1396.11035156 0 l 257
 1959.53613281 1548 l 257
 1760.53613281 1548 l 257
862.904296875 744 m 257
 790.110351562 544 l 257
 1564.11035156 544 l 257
 1636.90429688 744 l 257
 862.904296875 744 l 257
862.8125 741 m 257
 759.081054688 456 l 257
 960.081054688 456 l 257
 1063.8125 741 l 257
 862.8125 741 l 257
844.364257812 -57 m 257
 754.463867188 -304 l 257
 1018.46386719 -304 l 257
 1108.36425781 -57 l 257
 844.364257812 -57 l 257
EndSplineSet
EndChar

StartChar: uni0929_uni0930_uni094D.vatu
Encoding: 65604 -1 470
GlifName: uni0929_uni0930_uni094D_.vatu
Width: 2992
VWidth: 0
Flags: HW
LayerCount: 2
Fore
SplineSet
794.787109375 0 m 257
 1051.78710938 0 l 257
 1470.04101562 215 l 257
 1543.19824219 416 l 257
 794.787109375 0 l 257
1182.21289062 1548 m 257
 1109.0546875 1347 l 257
 2124.0546875 1347 l 257
 2197.21289062 1548 l 257
 1182.21289062 1548 l 257
1882.21289062 1548 m 257
 1318.78710938 0 l 257
 1517.78710938 0 l 257
 2081.21289062 1548 l 257
 1882.21289062 1548 l 257
984.581054688 744 m 257
 911.787109375 544 l 257
 1685.78710938 544 l 257
 1758.58105469 744 l 257
 984.581054688 744 l 257
984.489257812 741 m 257
 880.7578125 456 l 257
 1081.7578125 456 l 257
 1185.48925781 741 l 257
 984.489257812 741 l 257
966.041015625 -57 m 257
 876.140625 -304 l 257
 1140.140625 -304 l 257
 1230.04101562 -57 l 257
 966.041015625 -57 l 257
EndSplineSet
EndChar

StartChar: uni0929_uni094D.half
Encoding: 65605 -1 471
GlifName: uni0929_uni094D_.half
Width: 2472
VWidth: 0
Flags: HW
LayerCount: 2
Fore
SplineSet
791.536132812 1548 m 257
 718.377929688 1347 l 257
 1733.37792969 1347 l 257
 1806.53613281 1548 l 257
 791.536132812 1548 l 257
773.904296875 744 m 257
 701.110351562 544 l 257
 1475.11035156 544 l 257
 1547.90429688 744 l 257
 773.904296875 744 l 257
773.8125 741 m 257
 670.081054688 456 l 257
 871.081054688 456 l 257
 974.8125 741 l 257
 773.8125 741 l 257
755.364257812 -57 m 257
 665.463867188 -304 l 257
 929.463867188 -304 l 257
 1019.36425781 -57 l 257
 755.364257812 -57 l 257
EndSplineSet
EndChar

StartChar: uni092A
Encoding: 2346 2346 473
GlifName: uni092A_
Width: 2590
VWidth: 0
Flags: HW
LayerCount: 2
Fore
SplineSet
834.075195312 1548 m 257
 761.645507812 1349 l 257
 1822.64550781 1349 l 257
 1895.07519531 1548 l 257
 834.075195312 1548 l 257
1551.07128906 1537 m 257
 991.649414062 0 l 257
 1191.64941406 0 l 257
 1751.07128906 1537 l 257
 1551.07128906 1537 l 257
958.075195312 1548 m 257
 699.29296875 837 l 257
 900.29296875 837 l 257
 1159.07519531 1548 l 257
 958.075195312 1548 l 257
766.991210938 1023 m 257
 694.924804688 825 l 257
 1457.92480469 825 l 257
 1529.99121094 1023 l 257
 766.991210938 1023 l 257
EndSplineSet
EndChar

StartChar: uni092A_uni0930_uni094D.vatu
Encoding: 65607 -1 474
GlifName: uni092A__uni0930_uni094D_.vatu
Width: 3132
VWidth: 0
Flags: HW
LayerCount: 2
Fore
SplineSet
830.287109375 0 m 257
 1087.28710938 0 l 257
 1634.42285156 407 l 257
 1707.58105469 608 l 257
 830.287109375 0 l 257
1240.71289062 1548 m 257
 1168.28320312 1349 l 257
 2229.28320312 1349 l 257
 2301.71289062 1548 l 257
 1240.71289062 1548 l 257
1957.70898438 1537 m 257
 1398.28710938 0 l 257
 1598.28710938 0 l 257
 2157.70898438 1537 l 257
 1957.70898438 1537 l 257
1364.71289062 1548 m 257
 1105.93066406 837 l 257
 1306.93066406 837 l 257
 1565.71289062 1548 l 257
 1364.71289062 1548 l 257
1173.62890625 1023 m 257
 1101.5625 825 l 257
 1864.5625 825 l 257
 1936.62890625 1023 l 257
 1173.62890625 1023 l 257
EndSplineSet
EndChar

